{"glyphs":{"0":{"ha":317,"x_min":31,"x_max":286,"o":"m 286 728 l 286 728 q 255 820 286 781 q 156 860 224 860 l 156 860 q 65 828 100 860 q 31 728 31 797 l 31 122 l 31 122 q 60 31 31 69 q 164 -8 90 -8 l 164 -8 q 258 25 229 -8 q 286 122 286 58 l 286 728 m 138 772 l 179 772 l 179 122 l 179 122 q 176 86 179 100 q 157 72 172 72 l 157 72 q 142 83 146 72 q 138 122 138 93 l 138 772 "},"1":{"ha":213,"x_min":4,"x_max":178,"o":"m 178 0 l 178 851 l 76 851 l 76 772 l 4 772 l 4 682 l 76 682 l 76 0 l 178 0 "},"2":{"ha":290,"x_min":21,"x_max":276,"o":"m 21 0 l 276 0 l 276 90 l 128 90 l 128 90 q 138 210 128 158 q 172 325 149 261 l 172 325 q 214 415 192 378 q 253 493 236 453 q 269 590 269 533 l 269 735 l 269 735 q 240 823 269 788 q 147 858 211 858 l 147 858 q 54 826 88 858 q 21 735 21 793 l 21 549 l 121 549 l 121 789 l 163 789 l 163 601 l 163 601 q 145 507 163 547 q 106 428 128 467 q 65 340 83 390 l 65 340 q 31 203 42 274 q 21 63 21 132 l 21 0 "},"3":{"ha":304,"x_min":22,"x_max":278,"o":"m 129 301 l 22 301 l 22 114 l 22 114 q 56 24 22 57 q 150 -10 89 -10 l 150 -10 q 244 24 211 -10 q 278 114 278 57 l 278 332 l 278 332 q 260 405 278 376 q 192 433 242 433 l 192 444 l 192 444 q 260 476 243 444 q 278 551 278 508 l 278 738 l 278 738 q 247 824 278 788 q 147 860 215 860 l 147 860 q 57 831 92 860 q 22 738 22 803 l 22 550 l 129 550 l 129 778 l 174 778 l 174 544 l 174 544 q 162 494 174 507 q 118 482 150 482 l 118 394 l 118 394 q 162 383 150 394 q 174 333 174 371 l 174 124 l 174 124 q 170 91 174 101 q 153 81 167 81 l 153 81 q 134 91 139 81 q 129 124 129 101 l 129 301 "},"4":{"ha":314,"x_min":7,"x_max":307,"o":"m 179 139 l 179 0 l 275 0 l 275 139 l 307 139 l 307 224 l 275 224 l 275 851 l 157 851 l 7 214 l 7 139 l 179 139 m 97 224 l 179 599 l 179 224 l 97 224 "},"5":{"ha":308,"x_min":28,"x_max":286,"o":"m 132 301 l 28 301 l 28 114 l 28 114 q 61 24 28 56 q 151 -8 94 -8 l 151 -8 q 251 21 217 -8 q 286 114 286 50 l 286 422 l 286 422 q 282 477 286 449 q 262 526 278 506 q 211 546 246 546 l 211 546 q 172 535 193 546 q 146 496 150 524 l 132 496 l 132 769 l 283 769 l 283 851 l 31 851 l 31 406 l 140 406 l 140 431 l 140 431 q 160 471 140 471 l 160 471 q 176 461 174 471 q 179 431 179 451 l 179 121 l 179 121 q 176 83 179 97 q 158 68 172 68 l 158 68 q 138 83 143 68 q 132 121 132 97 l 132 301 "},"6":{"ha":311,"x_min":31,"x_max":286,"o":"m 286 422 l 286 422 q 281 476 286 447 q 260 524 276 504 q 207 544 243 544 l 207 544 q 167 534 185 544 q 144 496 149 524 l 131 496 l 131 771 l 179 771 l 179 626 l 282 626 l 282 735 l 282 735 q 251 822 282 785 q 154 858 219 858 l 154 858 q 65 827 99 858 q 31 735 31 796 l 31 114 l 31 114 q 62 28 31 64 q 161 -8 93 -8 l 161 -8 q 251 21 217 -8 q 286 114 286 50 l 286 422 m 188 121 l 188 121 q 183 83 188 99 q 161 68 179 68 l 161 68 q 138 83 143 68 q 132 121 132 99 l 132 422 l 132 422 q 138 458 132 442 q 161 475 143 475 l 161 475 q 188 425 188 475 l 188 121 "},"7":{"ha":239,"x_min":6,"x_max":232,"o":"m 232 796 l 232 851 l 6 851 l 6 774 l 131 774 l 17 0 l 118 0 l 232 796 "},"8":{"ha":311,"x_min":28,"x_max":283,"o":"m 283 325 l 283 325 q 263 403 283 378 q 208 431 242 429 l 208 440 l 208 440 q 261 464 239 443 q 283 544 283 485 l 283 735 l 283 735 q 252 822 283 785 q 153 858 221 858 l 153 858 q 63 829 97 858 q 28 735 28 800 l 28 544 l 28 544 q 51 463 28 485 q 103 439 74 442 l 103 431 l 103 431 q 49 403 69 429 q 28 325 28 378 l 28 113 l 28 113 q 61 28 28 64 q 164 -8 94 -8 l 164 -8 q 252 20 221 -8 q 283 113 283 49 l 283 325 m 135 775 l 176 775 l 176 492 l 135 492 l 135 775 m 129 326 l 129 326 q 135 371 129 358 q 156 383 142 383 l 156 383 q 176 371 171 383 q 182 326 182 358 l 182 125 l 182 125 q 177 78 182 92 q 157 65 172 65 l 157 65 q 135 78 142 65 q 129 125 129 92 l 129 326 "},"9":{"ha":311,"x_min":25,"x_max":281,"o":"m 132 224 l 29 224 l 29 115 l 29 115 q 60 28 29 64 q 147 -8 90 -8 l 147 -8 q 246 24 211 -8 q 281 115 281 56 l 281 736 l 281 736 q 249 822 281 786 q 150 858 218 858 l 150 858 q 60 830 94 858 q 25 736 25 801 l 25 400 l 25 400 q 42 333 25 361 q 100 304 58 304 l 100 304 q 136 316 118 304 q 160 354 154 328 l 174 354 l 174 111 l 174 111 q 169 78 174 88 q 154 68 165 68 l 154 68 q 137 78 142 68 q 132 111 132 88 l 132 224 m 132 776 l 174 776 l 174 403 l 132 403 l 132 776 "}," ":{"ha":196,"x_min":null,"x_max":null,"o":""}," ":{"ha":196,"x_min":null,"x_max":null,"o":""},"\r":{"ha":167,"x_min":null,"x_max":null,"o":""},"K":{"ha":353,"x_min":36,"x_max":347,"o":"m 136 0 l 136 358 l 142 358 l 240 0 l 347 0 l 235 394 l 235 394 q 207 442 225 428 q 144 456 189 457 l 144 471 l 144 471 q 210 499 190 468 q 242 568 229 529 l 333 851 l 224 851 l 142 557 l 136 557 l 136 851 l 36 851 l 36 0 l 136 0 "},"L":{"ha":253,"x_min":36,"x_max":247,"o":"m 247 0 l 247 94 l 140 94 l 140 851 l 36 851 l 36 0 l 247 0 "},"M":{"ha":465,"x_min":36,"x_max":429,"o":"m 126 0 l 126 500 l 131 500 l 200 0 l 267 0 l 335 500 l 339 500 l 339 0 l 429 0 l 429 851 l 311 851 l 235 256 l 231 256 l 154 851 l 36 851 l 36 0 l 126 0 "},"N":{"ha":400,"x_min":36,"x_max":364,"o":"m 138 0 l 138 564 l 142 564 l 250 0 l 364 0 l 364 850 l 261 850 l 261 299 l 258 299 l 156 850 l 36 850 l 36 0 l 138 0 "},"O":{"ha":326,"x_min":32,"x_max":294,"o":"m 294 728 l 294 728 q 257 828 294 797 q 178 860 219 860 l 149 860 l 149 860 q 69 828 107 860 q 32 728 32 797 l 32 122 l 32 122 q 69 22 32 53 q 149 -8 107 -8 l 178 -8 l 178 -8 q 257 22 219 -8 q 294 122 294 53 l 294 728 m 136 772 l 190 772 l 190 79 l 136 79 l 136 772 "},"P":{"ha":308,"x_min":36,"x_max":292,"o":"m 139 0 l 139 382 l 182 382 l 182 382 q 260 408 229 382 q 292 493 292 433 l 292 721 l 292 721 q 257 818 292 785 q 175 851 222 851 l 36 851 l 36 0 l 139 0 m 139 461 l 139 771 l 185 771 l 185 503 l 185 503 q 178 470 185 479 q 161 461 172 461 l 139 461 "},"Q":{"ha":336,"x_min":32,"x_max":325,"o":"m 325 -8 l 325 78 l 265 78 l 265 96 l 265 96 q 299 136 299 100 l 299 726 l 299 726 q 261 827 299 796 q 182 858 224 858 l 149 858 l 149 858 q 69 827 107 858 q 32 726 32 796 l 32 122 l 32 122 q 69 22 32 53 q 149 -8 107 -8 l 325 -8 m 139 771 l 192 771 l 192 79 l 139 79 l 139 771 "},"R":{"ha":322,"x_min":36,"x_max":292,"o":"m 36 851 l 36 0 l 139 0 l 139 418 l 147 418 l 147 418 q 185 357 185 418 l 185 0 l 292 0 l 292 376 l 292 376 q 218 456 292 456 l 215 456 l 215 469 l 215 469 q 292 564 292 469 l 292 733 l 292 733 q 260 821 292 790 q 175 851 229 851 l 36 851 m 139 493 l 139 771 l 185 771 l 185 556 l 185 556 q 147 493 185 493 l 139 493 "},"S":{"ha":303,"x_min":25,"x_max":281,"o":"m 131 324 l 25 324 l 25 114 l 25 114 q 54 27 25 63 q 156 -8 83 -8 l 156 -8 q 249 21 217 -8 q 281 114 281 50 l 281 260 l 281 260 q 265 341 281 307 q 228 403 250 375 q 185 458 207 431 q 147 520 163 486 q 132 601 132 554 l 132 776 l 171 776 l 171 525 l 274 525 l 274 735 l 274 735 q 243 821 274 783 q 147 858 213 858 l 147 858 q 58 826 92 858 q 25 735 25 794 l 25 590 l 25 590 q 40 507 25 542 q 78 444 56 472 q 122 390 100 417 q 158 328 143 363 q 174 247 174 294 l 174 107 l 174 107 q 170 81 174 93 q 153 68 167 68 l 153 68 q 135 81 139 68 q 131 107 131 93 l 131 324 "},"T":{"ha":272,"x_min":6,"x_max":267,"o":"m 190 0 l 190 761 l 267 761 l 267 851 l 6 851 l 6 761 l 83 761 l 83 0 l 190 0 "},"U":{"ha":322,"x_min":33,"x_max":289,"o":"m 140 851 l 33 851 l 33 135 l 33 135 q 63 29 33 67 q 161 -8 92 -8 l 161 -8 q 260 29 231 -8 q 289 135 289 67 l 289 851 l 183 851 l 183 128 l 183 128 q 180 89 183 101 q 163 76 176 76 l 163 76 q 144 89 149 76 q 140 128 140 101 l 140 851 "},"V":{"ha":308,"x_min":8,"x_max":300,"o":"m 215 0 l 300 851 l 210 851 l 157 240 l 151 240 l 108 851 l 8 851 l 93 0 l 215 0 "},"W":{"ha":474,"x_min":10,"x_max":464,"o":"m 236 543 l 240 543 l 306 0 l 396 0 l 464 850 l 367 850 l 329 368 l 325 368 l 268 850 l 203 850 l 154 368 l 150 368 l 113 850 l 10 850 l 78 0 l 175 0 l 236 543 "},"X":{"ha":361,"x_min":4,"x_max":354,"o":"m 24 0 l 125 0 l 186 299 l 247 0 l 349 0 l 276 347 l 276 347 q 258 406 269 385 q 210 426 246 426 l 210 436 l 210 436 q 247 451 233 436 q 269 488 261 467 q 281 528 276 510 l 354 851 l 251 851 l 185 554 l 107 851 l 4 851 l 92 528 l 92 528 q 104 488 97 510 q 125 451 111 467 q 163 436 139 436 l 163 426 l 163 426 q 116 406 128 426 q 96 346 104 385 l 24 0 "},"Y":{"ha":315,"x_min":6,"x_max":310,"o":"m 201 0 l 201 317 l 310 851 l 207 851 l 156 522 l 151 522 l 108 851 l 6 851 l 103 317 l 103 0 l 201 0 "},"Z":{"ha":282,"x_min":10,"x_max":274,"o":"m 274 0 l 274 88 l 117 88 l 261 767 l 261 851 l 35 851 l 35 764 l 153 764 l 10 85 l 10 0 l 274 0 "},"a":{"ha":300,"x_min":25,"x_max":271,"o":"m 106 -4 q 157 15 142 -4 q 174 53 172 35 l 182 53 l 182 0 l 271 0 l 271 688 l 182 688 l 182 638 l 174 638 l 174 638 q 157 675 172 656 q 106 694 142 694 l 106 694 q 55 676 72 694 q 31 628 38 657 q 25 571 25 600 l 25 119 l 25 119 q 31 63 25 92 q 55 15 38 33 q 106 -4 72 -4 l 106 -4 m 153 86 q 133 121 133 86 l 133 569 l 133 569 q 136 594 133 585 q 151 604 139 604 l 151 604 q 171 567 171 604 l 171 124 l 171 124 q 167 97 171 107 q 153 86 164 86 l 153 86 "},"b":{"ha":300,"x_min":29,"x_max":275,"o":"m 194 -4 q 246 15 229 -4 q 269 63 263 33 q 275 119 275 92 l 275 571 l 275 571 q 269 628 275 600 q 248 676 264 657 q 200 694 232 694 l 200 694 q 151 675 167 694 q 135 638 136 656 l 126 638 l 126 851 l 29 851 l 29 0 l 118 0 l 118 53 l 126 53 l 126 53 q 144 15 128 35 q 194 -4 160 -4 l 194 -4 m 147 86 q 133 97 136 86 q 129 122 129 107 l 129 568 l 129 568 q 149 604 129 604 l 149 604 q 164 594 161 604 q 167 568 167 583 l 167 122 l 167 122 q 163 97 167 107 q 147 86 158 86 l 147 86 "},"c":{"ha":275,"x_min":24,"x_max":257,"o":"m 125 575 l 125 575 q 129 605 125 597 q 143 613 133 613 l 143 613 q 156 605 153 613 q 160 575 160 597 l 160 418 l 257 418 l 257 568 l 257 568 q 238 638 257 610 q 193 679 219 665 q 140 693 167 693 l 140 693 q 88 679 115 693 q 42 638 61 665 q 24 569 24 611 l 24 106 l 24 106 q 42 40 24 65 q 88 3 61 14 q 140 -8 115 -8 l 140 -8 q 193 3 167 -8 q 238 40 219 15 q 257 107 257 65 l 257 285 l 160 285 l 160 108 l 160 108 q 143 76 160 76 l 143 76 q 125 108 125 76 l 125 575 "},"d":{"ha":300,"x_min":25,"x_max":271,"o":"m 106 -4 q 157 15 142 -4 q 174 53 172 35 l 182 53 l 182 0 l 271 0 l 271 851 l 174 851 l 174 638 l 165 638 l 165 638 q 149 675 164 656 q 100 694 133 694 l 100 694 q 53 676 69 694 q 31 628 36 657 q 25 571 25 600 l 25 119 l 25 119 q 31 63 25 92 q 55 15 38 33 q 106 -4 72 -4 l 106 -4 m 153 86 q 138 97 142 86 q 133 122 133 107 l 133 568 l 133 568 q 136 594 133 583 q 151 604 139 604 l 151 604 q 171 568 171 604 l 171 122 l 171 122 q 167 97 171 107 q 153 86 164 86 l 153 86 "},"e":{"ha":281,"x_min":24,"x_max":260,"o":"m 158 115 l 158 115 q 153 95 158 100 q 142 90 147 90 l 142 90 q 131 95 136 90 q 125 115 125 100 l 125 349 l 260 349 l 260 568 l 260 568 q 222 662 260 631 q 140 693 185 693 l 140 693 q 60 662 97 693 q 24 569 24 631 l 24 119 l 24 119 q 60 27 24 58 q 140 -4 97 -4 l 140 -4 q 222 27 185 -4 q 260 121 260 58 l 260 285 l 158 285 l 158 115 m 126 421 l 126 596 l 158 596 l 158 421 l 126 421 "},"f":{"ha":176,"x_min":-1,"x_max":178,"o":"m 139 611 l 178 611 l 178 688 l 139 688 l 139 739 l 178 739 l 178 851 l 156 851 l 156 851 q 68 829 99 851 q 38 729 38 807 l 38 688 l -1 688 l -1 611 l 38 611 l 38 -3 l 139 -3 l 139 611 "},"g":{"ha":281,"x_min":22,"x_max":257,"o":"m 22 197 l 22 197 q 44 108 22 138 q 111 71 67 78 l 111 39 l 111 39 q 29 -46 29 28 l 29 -46 q 56 -111 29 -86 q 133 -136 82 -136 l 151 -136 l 151 -136 q 229 -111 204 -136 q 254 -47 254 -86 l 254 -47 q 233 12 254 -11 q 171 39 213 35 l 171 72 l 171 72 q 236 108 215 79 q 257 197 257 136 l 257 688 l 169 688 l 169 635 l 161 635 l 161 635 q 142 672 160 653 q 90 692 124 692 l 90 692 q 44 673 58 692 q 26 626 29 654 q 22 568 22 597 l 22 197 m 140 164 q 126 174 129 164 q 122 203 122 183 l 122 575 l 122 575 q 126 593 122 585 q 142 601 131 601 l 142 601 q 155 592 153 601 q 157 572 157 583 l 157 206 l 157 206 q 154 174 157 183 q 140 164 151 164 l 140 164 m 143 -68 q 124 -65 133 -68 q 114 -49 114 -61 l 114 -49 q 124 -32 114 -36 q 142 -28 133 -28 l 144 -28 l 144 -28 q 162 -32 153 -28 q 171 -49 171 -36 l 171 -49 q 162 -65 171 -61 q 143 -68 153 -68 l 143 -68 "},"h":{"ha":290,"x_min":29,"x_max":264,"o":"m 129 0 l 129 567 l 129 567 q 133 590 129 578 q 147 601 136 601 l 147 601 q 161 590 158 601 q 164 569 164 579 l 164 0 l 264 0 l 264 568 l 264 568 q 259 626 264 597 q 238 673 254 654 q 190 692 222 692 l 190 692 q 147 672 157 692 q 135 635 136 653 l 126 635 l 126 851 l 29 851 l 29 0 l 129 0 "},"i":{"ha":157,"x_min":26,"x_max":128,"o":"m 125 739 l 125 851 l 26 851 l 26 739 l 125 739 m 128 0 l 128 688 l 29 688 l 29 0 l 128 0 "},"j":{"ha":157,"x_min":-18,"x_max":128,"o":"m 125 735 l 125 851 l 24 851 l 24 735 l 125 735 m -18 -221 l 10 -221 l 10 -221 q 97 -198 67 -221 q 128 -99 128 -175 l 128 688 l 29 688 l 29 -119 l -18 -119 l -18 -221 "},"k":{"ha":328,"x_min":29,"x_max":328,"o":"m 129 0 l 129 406 l 150 406 l 221 0 l 328 0 l 260 389 l 260 389 q 236 431 256 411 q 181 449 217 450 l 181 463 l 181 463 q 234 485 217 460 q 267 556 251 511 l 313 689 l 203 689 l 149 513 l 129 513 l 129 851 l 29 851 l 29 0 l 129 0 "},"l":{"ha":158,"x_min":29,"x_max":129,"o":"m 129 0 l 129 851 l 29 851 l 29 0 l 129 0 "},"m":{"ha":438,"x_min":29,"x_max":411,"o":"m 129 0 l 129 574 l 129 574 q 133 595 129 586 q 149 604 136 604 l 149 604 q 165 595 161 604 q 169 574 169 586 l 169 0 l 269 0 l 269 574 l 269 574 q 273 595 269 586 q 290 604 276 604 l 290 604 q 306 595 303 604 q 310 574 310 586 l 310 0 l 411 0 l 411 568 l 411 568 q 406 626 411 597 q 384 673 400 654 q 336 692 368 692 l 336 692 q 286 672 304 692 q 267 635 268 653 l 257 635 l 257 635 q 237 675 251 658 q 194 692 222 692 l 194 692 q 150 672 164 692 q 135 635 136 653 l 126 635 l 126 688 l 29 688 l 29 0 l 129 0 "},"n":{"ha":299,"x_min":29,"x_max":272,"o":"m 129 0 l 129 567 l 129 567 q 133 590 129 578 q 150 601 136 601 l 150 601 q 168 590 164 601 q 172 569 172 579 l 172 0 l 272 0 l 272 568 l 272 568 q 267 626 272 597 q 244 673 261 654 q 193 692 228 692 l 193 692 q 147 672 158 692 q 135 635 136 653 l 126 635 l 126 688 l 29 688 l 29 0 l 129 0 "},"o":{"ha":289,"x_min":24,"x_max":265,"o":"m 24 119 l 24 119 q 61 25 24 58 q 144 -8 99 -8 l 144 -8 q 228 25 190 -8 q 265 121 265 58 l 265 568 l 265 568 q 228 662 265 631 q 144 693 190 693 l 144 693 q 61 662 99 693 q 24 569 24 631 l 24 119 m 125 596 l 164 596 l 164 117 l 164 117 q 158 98 164 103 q 146 93 153 93 l 146 93 q 132 98 139 93 q 125 117 125 103 l 125 596 "},"p":{"ha":300,"x_min":29,"x_max":275,"o":"m 29 -219 l 128 -219 l 128 46 l 138 46 l 138 46 q 153 10 140 28 q 197 -7 165 -7 l 197 -7 q 247 12 231 -7 q 269 59 264 31 q 275 117 275 88 l 275 568 l 275 568 q 269 626 275 597 q 247 673 264 654 q 197 692 231 692 l 197 692 q 148 672 163 692 q 132 635 133 653 l 125 635 l 125 688 l 29 688 l 29 -219 m 129 592 l 129 592 q 133 619 129 608 q 147 629 136 629 l 147 629 q 167 594 167 629 l 167 90 l 167 90 q 164 66 167 76 q 150 56 161 56 l 150 56 q 133 66 138 56 q 129 93 129 76 l 129 592 "},"q":{"ha":300,"x_min":25,"x_max":271,"o":"m 175 688 l 175 635 l 168 635 l 168 635 q 153 672 167 653 q 103 692 139 692 l 103 692 q 53 673 71 692 q 31 626 36 654 q 25 568 25 597 l 25 117 l 25 117 q 31 59 25 88 q 53 12 36 31 q 103 -7 71 -7 l 103 -7 q 148 10 135 -7 q 163 46 161 28 l 172 46 l 172 -219 l 271 -219 l 271 688 l 175 688 m 171 93 l 171 93 q 167 66 171 76 q 150 56 163 56 l 150 56 q 136 66 139 56 q 133 90 133 76 l 133 594 l 133 594 q 153 629 133 629 l 153 629 q 167 619 164 629 q 171 592 171 608 l 171 93 "},"r":{"ha":239,"x_min":29,"x_max":213,"o":"m 131 0 l 131 611 l 213 611 l 213 688 l 213 688 q 163 680 185 688 q 139 646 140 672 l 131 646 l 131 688 l 29 688 l 29 0 l 131 0 "},"s":{"ha":269,"x_min":17,"x_max":253,"o":"m 151 83 l 114 83 l 114 285 l 17 285 l 17 121 l 17 121 q 54 25 17 58 q 135 -8 92 -8 l 135 -8 q 215 24 179 -8 q 253 118 251 57 l 253 201 l 253 201 q 233 293 253 256 q 187 362 213 331 q 141 427 161 393 q 121 508 121 461 l 121 613 l 156 613 l 156 418 l 253 418 l 253 568 l 253 568 q 217 662 253 631 q 136 693 181 693 l 136 693 q 56 662 93 693 q 19 568 19 631 l 19 485 l 19 485 q 40 396 19 435 q 85 324 60 357 q 131 258 111 292 q 151 183 151 225 l 151 83 "},"t":{"ha":186,"x_min":-1,"x_max":183,"o":"m 38 119 l 38 119 q 68 20 38 43 q 156 -3 99 -3 l 183 -3 l 183 72 l 139 72 l 139 611 l 183 611 l 183 688 l 138 688 l 138 851 l 38 851 l 38 688 l -1 688 l -1 611 l 38 611 l 38 119 "},"u":{"ha":299,"x_min":26,"x_max":269,"o":"m 169 688 l 169 121 l 169 121 q 166 98 169 110 q 149 86 163 86 l 149 86 q 131 97 135 86 q 126 118 126 108 l 126 688 l 26 688 l 26 119 l 26 119 q 32 63 26 92 q 55 15 38 33 q 106 -4 72 -4 l 106 -4 q 152 15 142 -4 q 164 53 163 35 l 172 53 l 172 0 l 269 0 l 269 688 l 169 688 "},"v":{"ha":263,"x_min":3,"x_max":260,"o":"m 185 0 l 260 688 l 164 688 l 133 279 l 131 279 l 100 688 l 3 688 l 79 0 l 185 0 "},"w":{"ha":444,"x_min":4,"x_max":442,"o":"m 164 0 l 221 403 l 225 403 l 282 0 l 376 0 l 442 688 l 346 688 l 314 228 l 308 228 l 261 688 l 185 688 l 138 228 l 132 228 l 100 688 l 4 688 l 69 0 l 164 0 "},"x":{"ha":290,"x_min":0,"x_max":289,"o":"m 96 351 l 0 0 l 94 0 l 142 183 l 193 0 l 289 0 l 192 349 l 286 688 l 192 688 l 146 514 l 97 688 l 1 688 l 96 351 "},"y":{"ha":282,"x_min":8,"x_max":279,"o":"m 96 -225 l 96 -225 q 155 -208 135 -225 q 184 -167 175 -190 q 194 -125 193 -143 l 279 688 l 188 688 l 136 114 l 132 114 l 99 688 l 8 688 l 44 107 l 44 107 q 69 24 49 47 q 108 0 90 0 l 125 0 l 111 -133 l 69 -133 l 69 -225 l 96 -225 "},"z":{"ha":240,"x_min":4,"x_max":233,"o":"m 233 0 l 233 83 l 103 83 l 231 600 l 231 688 l 19 688 l 19 604 l 133 604 l 4 88 l 4 0 l 233 0 "},"$":{"ha":315,"x_min":31,"x_max":286,"o":"m 92 846 l 92 846 q 47 803 64 832 q 31 735 31 775 l 31 590 l 31 590 q 46 507 31 542 q 83 444 61 472 q 127 390 106 417 q 164 328 149 363 q 179 247 179 294 l 179 107 l 179 107 q 176 81 179 93 q 158 68 172 68 l 158 68 q 140 81 144 68 q 136 107 136 93 l 136 324 l 31 324 l 31 114 l 31 114 q 44 49 31 78 q 92 4 58 19 l 92 -65 l 139 -65 l 139 -7 l 139 -7 q 151 -8 146 -8 q 161 -8 156 -8 l 172 -8 l 172 -65 l 219 -65 l 219 0 l 219 0 q 269 40 251 11 q 286 114 286 68 l 286 260 l 286 260 q 271 341 286 307 q 234 403 256 375 q 190 458 213 431 q 153 520 168 486 q 138 601 138 554 l 138 776 l 176 776 l 176 525 l 279 525 l 279 735 l 279 735 q 265 798 279 769 q 219 843 251 826 l 219 928 l 172 928 l 172 857 l 172 857 q 163 858 167 858 q 153 858 158 858 l 139 858 l 139 928 l 92 928 l 92 846 "},"D":{"ha":322,"x_min":36,"x_max":292,"o":"m 292 722 l 292 722 q 254 821 292 792 q 175 850 217 850 l 36 850 l 36 0 l 175 0 l 175 0 q 254 28 217 0 q 292 126 292 57 l 292 722 m 142 67 l 142 783 l 185 783 l 185 111 l 185 111 q 175 76 185 85 q 154 67 165 67 l 142 67 "},"ﬁ":{"ha":333,"x_min":-1,"x_max":304,"o":"m 139 611 l 178 611 l 178 688 l 139 688 l 139 739 l 178 739 l 178 851 l 156 851 l 156 851 q 68 829 99 851 q 38 729 38 807 l 38 688 l -1 688 l -1 611 l 38 611 l 38 -3 l 139 -3 l 139 611 m 301 739 l 301 851 l 203 851 l 203 739 l 301 739 m 304 0 l 304 688 l 206 688 l 206 0 l 304 0 "},"…":{"ha":494,"x_min":57,"x_max":438,"o":"m 151 0 l 151 133 l 57 133 l 57 0 l 151 0 m 294 0 l 294 133 l 200 133 l 200 0 l 294 0 m 438 0 l 438 133 l 343 133 l 343 0 l 438 0 "},"!":{"ha":154,"x_min":24,"x_max":131,"o":"m 113 165 l 131 543 l 131 851 l 24 851 l 24 543 l 40 165 l 113 165 m 125 0 l 125 133 l 31 133 l 31 0 l 125 0 "},".":{"ha":153,"x_min":29,"x_max":124,"o":"m 124 0 l 124 133 l 29 133 l 29 0 l 124 0 "},",":{"ha":136,"x_min":21,"x_max":115,"o":"m 69 -82 l 115 0 l 115 133 l 21 133 l 21 0 l 57 0 l 36 -82 l 69 -82 "},":":{"ha":114,"x_min":10,"x_max":104,"o":"m 104 0 l 104 133 l 10 133 l 10 0 l 104 0 m 104 554 l 104 688 l 10 688 l 10 554 l 104 554 "},";":{"ha":113,"x_min":8,"x_max":104,"o":"m 104 553 l 104 686 l 10 686 l 10 553 l 104 553 m 57 -82 l 103 0 l 103 133 l 8 133 l 8 0 l 44 0 l 24 -82 l 57 -82 "},"”":{"ha":290,"x_min":26,"x_max":265,"o":"m 78 649 l 126 731 l 126 851 l 26 851 l 26 731 l 64 731 l 43 649 l 78 649 m 217 649 l 265 731 l 265 851 l 165 851 l 165 731 l 203 731 l 182 649 l 217 649 "},"“":{"ha":290,"x_min":25,"x_max":264,"o":"m 213 933 l 164 851 l 164 731 l 264 731 l 264 851 l 226 851 l 247 933 l 213 933 m 74 933 l 25 851 l 25 731 l 125 731 l 125 851 l 88 851 l 108 933 l 74 933 "},"’":{"ha":151,"x_min":26,"x_max":126,"o":"m 78 649 l 126 731 l 126 851 l 26 851 l 26 731 l 64 731 l 43 649 l 78 649 "},"‘":{"ha":151,"x_min":22,"x_max":122,"o":"m 71 933 l 22 851 l 22 731 l 122 731 l 122 851 l 85 851 l 106 933 l 71 933 "},"?":{"ha":260,"x_min":6,"x_max":254,"o":"m 51 165 l 150 165 l 150 307 l 150 307 q 166 375 150 339 q 202 449 182 411 q 238 528 222 488 q 254 608 254 568 l 254 738 l 254 738 q 224 823 254 788 q 136 858 193 858 l 136 858 q 40 826 74 858 q 6 738 6 794 l 6 554 l 106 554 l 106 739 l 106 739 q 110 772 106 761 q 128 782 114 782 l 128 782 q 147 773 143 782 q 150 739 150 764 l 150 613 l 150 613 q 135 522 150 561 q 101 449 121 482 q 66 386 81 417 q 51 324 51 356 l 51 165 m 147 0 l 147 133 l 53 133 l 53 0 l 147 0 "},"|":{"ha":179,"x_min":43,"x_max":136,"o":"m 136 -97 l 136 938 l 43 938 l 43 -97 l 136 -97 "},"/":{"ha":292,"x_min":-3,"x_max":294,"o":"m 92 0 l 294 851 l 200 851 l -3 0 l 92 0 "},"\\":{"ha":292,"x_min":-28,"x_max":269,"o":"m 67 851 l -28 851 l 175 0 l 269 0 l 67 851 "},"⁄":{"ha":283,"x_min":4,"x_max":279,"o":"m 63 0 l 279 851 l 221 851 l 4 0 l 63 0 "},"<":{"ha":315,"x_min":13,"x_max":290,"o":"m 290 150 l 125 343 l 290 539 l 290 679 l 13 361 l 13 322 l 290 7 l 290 150 "},">":{"ha":315,"x_min":25,"x_max":303,"o":"m 303 322 l 303 361 l 25 679 l 25 539 l 190 343 l 25 150 l 25 7 l 303 322 "},"%":{"ha":544,"x_min":19,"x_max":525,"o":"m 178 0 l 471 851 l 371 851 l 79 0 l 178 0 m 417 -7 q 500 30 475 -7 q 525 124 525 67 l 525 244 l 525 244 q 495 338 525 300 q 414 376 465 376 l 414 376 q 326 338 356 376 q 297 244 297 300 l 297 124 l 297 124 q 324 35 297 76 q 417 -7 350 -7 l 417 -7 m 414 74 q 395 84 400 74 q 390 124 390 94 l 390 289 l 436 289 l 436 124 l 436 124 q 431 88 436 101 q 414 74 426 74 l 414 74 m 138 478 q 222 515 197 478 q 247 608 247 551 l 247 729 l 247 729 q 217 823 247 785 q 132 861 186 861 l 132 861 q 48 823 76 861 q 19 729 19 785 l 19 608 l 19 608 q 46 519 19 561 q 138 478 72 478 l 138 478 m 132 558 q 117 569 121 558 q 113 608 113 579 l 113 774 l 158 774 l 158 608 l 158 608 q 153 572 158 586 q 132 558 147 558 l 132 558 "},"‰":{"ha":881,"x_min":40,"x_max":861,"o":"m 751 -7 q 836 30 811 -7 q 861 124 861 67 l 861 244 l 861 244 q 831 338 861 300 q 746 376 800 376 l 746 376 q 662 338 690 376 q 633 244 633 300 l 633 124 l 633 124 q 660 35 633 76 q 751 -7 686 -7 l 751 -7 m 199 0 l 492 851 l 392 851 l 100 0 l 199 0 m 438 -7 q 521 30 496 -7 q 546 124 546 67 l 546 244 l 546 244 q 516 338 546 300 q 435 376 486 376 l 435 376 q 347 338 376 376 q 318 244 318 300 l 318 124 l 318 124 q 344 35 318 76 q 438 -7 371 -7 l 438 -7 m 435 74 q 416 84 421 74 q 411 124 411 94 l 411 289 l 457 289 l 457 124 l 457 124 q 452 88 457 101 q 435 74 447 74 l 435 74 m 158 478 q 243 515 218 478 q 268 608 268 551 l 268 729 l 268 729 q 238 823 268 785 q 153 861 207 861 l 153 861 q 69 823 97 861 q 40 729 40 785 l 40 608 l 40 608 q 67 519 40 561 q 158 478 93 478 l 158 478 m 153 558 q 138 569 142 558 q 133 608 133 579 l 133 774 l 179 774 l 179 608 l 179 608 q 174 572 179 586 q 153 558 168 558 l 153 558 m 746 74 q 731 84 735 74 q 726 124 726 94 l 726 289 l 772 289 l 772 124 l 772 124 q 767 88 772 101 q 746 74 761 74 l 746 74 "},"«":{"ha":328,"x_min":10,"x_max":319,"o":"m 319 3 l 253 343 l 317 688 l 219 688 l 156 344 l 221 3 l 319 3 m 174 3 l 107 343 l 171 688 l 74 688 l 10 344 l 75 3 l 174 3 "},"»":{"ha":328,"x_min":8,"x_max":318,"o":"m 172 344 l 108 688 l 11 688 l 75 343 l 8 3 l 107 3 l 172 344 m 318 344 l 254 688 l 157 688 l 221 343 l 154 3 l 253 3 l 318 344 "},"^":{"ha":304,"x_min":15,"x_max":289,"o":"m 147 675 l 221 486 l 289 486 l 196 851 l 108 851 l 15 486 l 85 486 l 147 675 "},"*":{"ha":490,"x_min":6,"x_max":476,"o":"m 6 853 l 133 758 l 21 758 l 21 685 l 133 685 l 8 592 l 133 592 l 204 646 l 204 592 l 283 592 l 283 647 l 360 592 l 476 592 l 350 685 l 471 685 l 471 758 l 353 758 l 476 853 l 360 853 l 283 796 l 283 853 l 204 853 l 204 793 l 124 853 l 6 853 "},"#":{"ha":390,"x_min":-1,"x_max":392,"o":"m 129 0 l 154 250 l 208 250 l 183 0 l 276 0 l 300 250 l 356 250 l 364 321 l 307 321 l 326 517 l 383 517 l 392 586 l 333 586 l 360 851 l 268 851 l 242 586 l 188 586 l 214 851 l 121 851 l 94 586 l 33 586 l 26 517 l 88 517 l 68 321 l 6 321 l -1 250 l 61 250 l 38 0 l 129 0 m 161 321 l 181 517 l 235 517 l 215 321 l 161 321 "},"[":{"ha":214,"x_min":35,"x_max":208,"o":"m 135 865 l 208 865 l 208 946 l 35 946 l 35 -103 l 208 -103 l 208 -22 l 135 -22 l 135 865 "},"]":{"ha":214,"x_min":6,"x_max":179,"o":"m 6 -22 l 6 -103 l 179 -103 l 179 946 l 6 946 l 6 865 l 79 865 l 79 -22 l 6 -22 "},"(":{"ha":236,"x_min":29,"x_max":231,"o":"m 126 865 l 231 865 l 231 946 l 160 946 l 160 946 q 68 912 107 946 q 29 786 29 878 l 29 57 l 29 57 q 68 -67 29 -33 q 160 -101 107 -101 l 231 -101 l 231 -21 l 126 -21 l 126 865 "},")":{"ha":236,"x_min":4,"x_max":206,"o":"m 4 -21 l 4 -101 l 75 -101 l 75 -101 q 167 -67 128 -101 q 206 57 206 -33 l 206 786 l 206 786 q 167 912 206 878 q 75 946 128 946 l 4 946 l 4 865 l 108 865 l 108 -21 l 4 -21 "},"{":{"ha":290,"x_min":3,"x_max":285,"o":"m 181 340 l 181 340 q 165 413 181 382 q 97 446 149 443 l 76 447 l 76 461 l 97 463 l 97 463 q 165 499 150 465 q 181 575 181 532 l 181 868 l 285 868 l 285 949 l 214 949 l 214 949 q 113 906 143 949 q 83 789 83 863 l 83 567 l 83 567 q 67 501 83 518 q 3 483 51 483 l 3 425 l 3 425 q 67 408 51 425 q 83 342 83 390 l 83 56 l 83 56 q 112 -57 83 -11 q 214 -103 140 -103 l 285 -103 l 285 -22 l 181 -22 l 181 340 "},"}":{"ha":290,"x_min":6,"x_max":288,"o":"m 110 -22 l 6 -22 l 6 -103 l 76 -103 l 76 -103 q 178 -57 150 -103 q 207 56 207 -11 l 207 342 l 207 342 q 223 408 207 390 q 288 425 239 425 l 288 483 l 288 483 q 223 501 239 483 q 207 567 207 518 l 207 789 l 207 789 q 177 906 207 863 q 76 949 147 949 l 6 949 l 6 868 l 110 868 l 110 575 l 110 575 q 125 499 110 532 q 193 463 140 465 l 214 461 l 214 447 l 193 446 l 193 446 q 126 413 142 443 q 110 340 110 382 l 110 -22 "},"@":{"ha":524,"x_min":33,"x_max":493,"o":"m 374 113 l 374 113 q 325 95 351 101 q 275 89 299 89 l 275 89 q 175 124 219 89 q 131 225 131 160 l 131 608 l 131 608 q 166 715 131 690 q 269 739 201 739 l 269 739 q 337 731 307 739 q 383 695 367 722 q 400 611 400 668 l 400 236 l 400 236 q 383 207 400 207 l 383 207 q 369 216 374 207 q 364 236 364 225 l 364 703 l 292 703 l 292 658 l 285 658 l 285 658 q 268 694 283 682 q 229 707 253 707 l 229 707 q 178 672 190 707 q 165 601 165 638 l 165 233 l 165 233 q 183 158 165 186 q 240 129 201 129 l 240 129 q 288 142 265 129 q 311 176 310 154 l 319 176 l 319 176 q 343 142 326 154 q 390 129 360 129 l 390 129 q 466 157 439 129 q 493 229 493 185 l 493 624 l 493 624 q 433 778 493 729 q 263 826 372 826 l 263 826 q 149 809 201 826 q 65 748 97 792 q 33 625 33 704 l 33 206 l 33 206 q 68 93 33 139 q 157 24 103 47 q 269 0 211 0 l 269 0 q 408 36 347 0 l 374 113 m 282 236 l 282 236 q 280 211 282 222 q 267 200 278 200 l 267 200 q 251 211 256 200 q 247 235 247 222 l 247 600 l 247 600 q 251 626 247 613 q 265 639 254 639 l 265 639 q 279 626 276 639 q 282 599 282 614 l 282 236 "},"&":{"ha":314,"x_min":31,"x_max":286,"o":"m 135 331 l 135 331 q 147 381 135 368 q 190 394 158 394 l 190 478 l 190 478 q 147 491 158 478 q 135 542 135 504 l 135 747 l 182 747 l 182 532 l 286 532 l 286 693 l 286 693 q 266 778 286 749 q 197 814 246 807 l 197 883 l 131 883 l 131 815 l 131 815 q 56 774 82 810 q 31 693 31 739 l 31 550 l 31 550 q 48 476 31 508 q 117 443 65 443 l 117 429 l 117 429 q 49 399 67 429 q 31 329 31 369 l 31 153 l 31 153 q 57 70 31 103 q 131 31 83 38 l 131 -35 l 197 -35 l 197 31 l 197 31 q 267 69 247 38 q 286 153 286 101 l 286 314 l 182 314 l 182 164 l 182 164 q 178 116 182 140 q 158 92 174 92 l 158 92 q 140 116 144 92 q 135 164 135 140 l 135 331 "},"+":{"ha":371,"x_min":15,"x_max":357,"o":"m 232 139 l 232 410 l 357 410 l 357 488 l 232 488 l 232 769 l 142 769 l 142 488 l 15 488 l 15 410 l 142 410 l 142 139 l 232 139 "},"-":{"ha":336,"x_min":29,"x_max":308,"o":"m 308 411 l 308 482 l 29 482 l 29 411 l 308 411 "},"–":{"ha":454,"x_min":29,"x_max":426,"o":"m 426 444 l 426 513 l 29 513 l 29 444 l 426 444 "},"—":{"ha":649,"x_min":29,"x_max":621,"o":"m 621 444 l 621 513 l 29 513 l 29 444 l 621 444 "},"_":{"ha":440,"x_min":29,"x_max":413,"o":"m 413 0 l 413 68 l 29 68 l 29 0 l 413 0 "},"=":{"ha":425,"x_min":35,"x_max":390,"o":"m 390 518 l 390 586 l 35 586 l 35 518 l 390 518 m 390 376 l 390 444 l 35 444 l 35 376 l 390 376 "},"•":{"ha":172,"x_min":17,"x_max":157,"o":"m 17 346 q 36 295 17 317 q 85 274 56 274 l 85 274 q 135 293 113 274 q 157 343 157 313 l 157 343 q 138 393 157 371 q 88 415 119 415 l 88 415 q 39 397 61 415 q 17 346 17 378 l 17 346 "},"¡":{"ha":154,"x_min":24,"x_max":131,"o":"m 42 522 l 24 144 l 24 -164 l 131 -164 l 131 144 l 114 522 l 42 522 m 29 688 l 29 554 l 124 554 l 124 688 l 29 688 "},"†":{"ha":236,"x_min":11,"x_max":225,"o":"m 168 -149 l 168 542 l 225 542 l 225 604 l 168 604 l 168 851 l 67 851 l 67 604 l 11 604 l 11 542 l 67 542 l 67 -149 l 168 -149 "},"‡":{"ha":244,"x_min":15,"x_max":229,"o":"m 172 -136 l 172 138 l 229 138 l 229 199 l 172 199 l 172 542 l 229 542 l 229 604 l 172 604 l 172 851 l 71 851 l 71 604 l 15 604 l 15 542 l 71 542 l 71 199 l 15 199 l 15 138 l 71 138 l 71 -136 l 172 -136 "},"›":{"ha":192,"x_min":7,"x_max":185,"o":"m 185 339 l 107 618 l 10 618 l 88 338 l 7 61 l 106 61 l 185 339 "},"‹":{"ha":193,"x_min":7,"x_max":185,"o":"m 185 61 l 104 338 l 182 618 l 85 618 l 7 339 l 86 61 l 185 61 "},"°":{"ha":208,"x_min":29,"x_max":179,"o":"m 29 786 q 51 733 29 756 q 104 710 72 710 l 104 710 q 158 733 136 710 q 179 786 179 756 l 179 786 q 158 840 179 818 q 104 861 136 861 l 104 861 q 51 840 72 861 q 29 786 29 818 l 29 786 m 78 786 q 104 813 78 813 l 104 813 q 131 786 131 813 l 131 786 q 104 758 131 758 l 104 758 q 78 786 78 758 l 78 786 "},"'":{"ha":151,"x_min":26,"x_max":126,"o":"m 78 649 l 126 731 l 126 851 l 26 851 l 26 731 l 64 731 l 43 649 l 78 649 "},"\"":{"ha":290,"x_min":26,"x_max":265,"o":"m 78 649 l 126 731 l 126 851 l 26 851 l 26 731 l 64 731 l 43 649 l 78 649 m 217 649 l 265 731 l 265 851 l 165 851 l 165 731 l 203 731 l 182 649 l 217 649 "},"‚":{"ha":147,"x_min":26,"x_max":121,"o":"m 75 -82 l 121 0 l 121 133 l 26 133 l 26 0 l 63 0 l 42 -82 l 75 -82 "},"„":{"ha":290,"x_min":35,"x_max":274,"o":"m 86 -137 l 135 -56 l 135 65 l 35 65 l 35 -56 l 72 -56 l 51 -137 l 86 -137 m 225 -137 l 274 -56 l 274 65 l 174 65 l 174 -56 l 211 -56 l 190 -137 l 225 -137 "},"~":{"ha":371,"x_min":22,"x_max":349,"o":"m 289 418 l 289 418 q 273 392 282 404 q 240 381 264 381 l 240 381 q 201 392 217 381 q 167 415 185 404 q 121 426 150 426 l 121 426 q 59 403 82 426 q 22 349 36 381 l 75 307 l 75 307 q 96 338 85 326 q 124 350 107 350 l 124 350 q 162 338 143 350 q 202 315 181 326 q 251 303 224 303 l 251 303 q 310 326 288 303 q 349 379 333 349 l 289 418 "},"B":{"ha":321,"x_min":36,"x_max":292,"o":"m 175 0 l 175 0 q 292 124 292 0 l 292 349 l 292 349 q 215 435 292 429 l 215 449 l 215 449 q 292 536 292 449 l 292 719 l 292 719 q 175 851 292 851 l 36 851 l 36 0 l 175 0 m 139 472 l 139 785 l 185 785 l 185 542 l 185 542 q 147 472 185 472 l 139 472 m 139 413 l 147 413 l 147 413 q 185 343 185 413 l 185 67 l 139 67 l 139 413 "},"C":{"ha":313,"x_min":32,"x_max":288,"o":"m 139 772 l 181 772 l 181 515 l 288 515 l 288 728 l 288 728 q 257 820 288 781 q 169 860 226 860 l 169 860 q 68 828 104 860 q 32 728 32 797 l 32 122 l 32 122 q 65 25 32 58 q 156 -8 99 -8 l 156 -8 q 254 23 221 -8 q 288 122 288 54 l 288 329 l 181 329 l 181 129 l 181 129 q 178 90 181 107 q 163 72 175 72 l 163 72 q 143 86 147 72 q 139 129 139 100 l 139 772 "},"A":{"ha":308,"x_min":8,"x_max":300,"o":"m 108 0 l 125 231 l 190 231 l 210 0 l 300 0 l 215 851 l 93 851 l 8 0 l 108 0 m 151 611 l 157 611 l 183 308 l 131 308 l 151 611 "},"±":{"ha":336,"x_min":18,"x_max":318,"o":"m 318 88 l 318 156 l 213 156 l 213 413 l 318 413 l 318 483 l 213 483 l 213 763 l 124 763 l 124 483 l 18 483 l 18 413 l 124 413 l 124 156 l 18 156 l 18 88 l 318 88 "},"·":{"ha":167,"x_min":29,"x_max":138,"o":"m 138 283 l 138 431 l 29 431 l 29 283 l 138 283 "},"E":{"ha":257,"x_min":36,"x_max":247,"o":"m 247 0 l 247 92 l 138 92 l 138 407 l 213 407 l 213 494 l 138 494 l 138 760 l 242 760 l 242 851 l 36 851 l 36 0 l 247 0 "},"F":{"ha":247,"x_min":36,"x_max":242,"o":"m 138 0 l 138 407 l 213 407 l 213 494 l 138 494 l 138 760 l 242 760 l 242 851 l 36 851 l 36 0 l 138 0 "},"G":{"ha":333,"x_min":32,"x_max":307,"o":"m 139 785 l 185 785 l 185 565 l 292 565 l 292 726 l 292 726 q 273 802 292 774 q 226 844 254 831 q 171 858 199 858 l 149 858 l 149 858 q 69 827 107 858 q 32 726 32 796 l 32 108 l 32 108 q 62 19 32 44 q 131 -7 92 -7 l 131 -7 q 173 6 157 -7 q 199 54 189 19 l 210 54 l 210 0 l 307 0 l 307 475 l 168 475 l 168 389 l 208 389 l 208 122 l 208 122 q 199 85 208 96 q 175 75 190 75 l 175 75 q 150 85 161 75 q 139 118 139 96 l 139 785 "},"¿":{"ha":260,"x_min":6,"x_max":254,"o":"m 208 522 l 110 522 l 110 381 l 110 381 q 94 313 110 349 q 58 238 78 276 q 22 160 38 200 q 6 79 6 119 l 6 -50 l 6 -50 q 36 -135 6 -100 q 124 -171 67 -171 l 124 -171 q 220 -139 186 -171 q 254 -50 254 -107 l 254 133 l 154 133 l 154 -51 l 154 -51 q 150 -84 154 -74 q 132 -94 146 -94 l 132 -94 q 114 -85 118 -94 q 110 -51 110 -76 l 110 75 l 110 75 q 124 166 110 126 q 159 238 139 206 q 194 301 179 271 q 208 364 208 332 l 208 522 m 113 688 l 113 554 l 207 554 l 207 688 l 113 688 "},"¶":{"ha":443,"x_min":17,"x_max":400,"o":"m 175 0 l 263 0 l 263 792 l 313 792 l 313 0 l 400 0 l 400 851 l 178 851 l 178 851 q 83 822 118 851 q 32 743 47 792 q 17 639 17 694 l 17 639 q 28 553 17 599 q 73 475 39 507 q 175 443 107 443 l 175 0 "},"¬":{"ha":436,"x_min":24,"x_max":393,"o":"m 307 444 l 307 319 l 393 319 l 393 513 l 24 513 l 24 444 l 307 444 "},"Þ":{"ha":297,"x_min":36,"x_max":276,"o":"m 143 0 l 143 126 l 171 126 l 171 126 q 246 159 215 126 q 276 250 276 192 l 276 581 l 276 581 q 246 671 276 639 q 171 703 215 703 l 143 703 l 143 851 l 36 851 l 36 0 l 143 0 m 143 189 l 143 642 l 151 642 l 151 642 q 174 633 167 642 q 181 593 181 625 l 181 238 l 181 238 q 174 197 181 206 q 151 189 167 189 l 143 189 "},"þ":{"ha":290,"x_min":29,"x_max":269,"o":"m 136 -125 l 136 1 l 164 1 l 164 1 q 239 34 208 1 q 269 125 269 67 l 269 507 l 269 507 q 239 597 269 565 q 164 629 208 629 l 136 629 l 136 778 l 29 778 l 29 -125 l 136 -125 m 136 64 l 136 568 l 144 568 l 144 568 q 167 560 160 568 q 174 519 174 551 l 174 113 l 174 113 q 167 72 174 81 q 144 64 160 64 l 136 64 "},"©":{"ha":392,"x_min":39,"x_max":353,"o":"m 353 776 l 353 776 q 323 834 353 817 q 258 851 293 851 l 135 851 l 135 851 q 70 834 101 851 q 39 776 39 817 l 39 360 l 39 360 q 70 302 39 319 q 135 285 101 285 l 258 285 l 258 285 q 323 302 293 285 q 353 360 353 319 l 353 776 m 106 796 l 286 796 l 286 340 l 106 340 l 106 796 m 186 710 l 207 710 l 207 608 l 256 608 l 256 699 l 256 699 q 241 740 256 722 q 194 757 226 757 l 194 757 q 152 743 168 757 q 136 699 136 729 l 136 435 l 136 435 q 199 378 136 378 l 199 378 q 256 435 256 378 l 256 526 l 207 526 l 207 447 l 207 447 q 205 429 207 438 q 196 421 203 421 l 196 421 q 186 447 186 421 l 186 710 "},"®":{"ha":392,"x_min":39,"x_max":353,"o":"m 353 776 l 353 776 q 323 834 353 817 q 258 851 293 851 l 135 851 l 135 851 q 70 834 101 851 q 39 776 39 817 l 39 360 l 39 360 q 70 302 39 319 q 135 285 101 285 l 258 285 l 258 285 q 323 302 293 285 q 353 360 353 319 l 353 776 m 106 796 l 286 796 l 286 340 l 106 340 l 106 796 m 189 557 l 189 557 q 206 529 206 557 l 206 379 l 254 379 l 254 532 l 254 532 q 224 567 254 567 l 221 567 l 221 574 l 221 574 q 254 615 254 574 l 254 699 l 254 699 q 241 740 254 724 q 203 757 228 757 l 140 757 l 140 379 l 189 379 l 189 557 m 189 714 l 206 714 l 206 611 l 206 611 q 189 583 206 583 l 189 714 "},"Œ":{"ha":436,"x_min":31,"x_max":428,"o":"m 300 381 l 393 381 l 393 450 l 300 450 l 300 715 l 300 715 q 289 771 300 742 l 422 771 l 422 851 l 147 851 l 147 851 q 68 822 106 851 q 31 729 31 793 l 31 121 l 31 121 q 68 28 31 57 q 147 0 106 0 l 428 0 l 428 79 l 289 79 l 289 79 q 300 135 300 106 l 300 381 m 193 147 q 189 100 193 119 q 165 81 185 81 l 165 81 q 144 94 151 81 q 138 147 138 108 l 138 767 l 193 767 l 193 147 l 193 147 "},"œ":{"ha":406,"x_min":24,"x_max":393,"o":"m 24 119 l 24 119 q 61 25 24 58 q 144 -8 99 -8 l 144 -8 q 213 13 182 -8 l 213 13 q 274 -4 240 -4 l 274 -4 q 356 27 318 -4 q 393 121 393 58 l 393 285 l 292 285 l 292 115 l 292 115 q 286 95 292 100 q 275 90 281 90 l 275 90 q 264 96 268 90 l 264 96 q 265 109 265 103 q 265 121 265 115 l 265 349 l 393 349 l 393 568 l 393 568 q 356 662 393 631 q 274 693 318 693 l 274 693 q 210 675 238 693 l 210 675 q 144 693 182 693 l 144 693 q 61 662 99 693 q 24 569 24 631 l 24 119 m 125 596 l 160 596 l 160 596 q 158 583 158 590 q 157 569 157 576 l 157 119 l 157 119 q 157 109 157 114 q 158 97 157 104 l 158 97 q 146 93 154 93 l 146 93 q 132 98 139 93 q 125 117 125 103 l 125 596 m 265 421 l 265 568 l 265 568 q 265 583 265 575 q 263 596 264 590 l 292 596 l 292 421 l 265 421 "},"€":{"ha":350,"x_min":15,"x_max":317,"o":"m 61 469 l 61 428 l 15 428 l 15 397 l 61 397 l 61 122 l 61 122 q 94 25 61 58 q 185 -8 128 -8 l 185 -8 q 283 23 250 -8 q 317 122 317 54 l 317 329 l 210 329 l 210 129 l 210 129 q 207 90 210 107 q 192 72 204 72 l 192 72 q 172 86 176 72 q 168 129 168 100 l 168 397 l 213 397 l 213 428 l 168 428 l 168 469 l 213 469 l 213 501 l 168 501 l 168 772 l 210 772 l 210 515 l 317 515 l 317 728 l 317 728 q 286 820 317 781 q 199 860 256 860 l 199 860 q 97 828 133 860 q 61 728 61 797 l 61 501 l 15 501 l 15 469 l 61 469 "},"™":{"ha":369,"x_min":18,"x_max":326,"o":"m 103 425 l 103 799 l 132 799 l 132 851 l 18 851 l 18 799 l 47 799 l 47 425 l 103 425 m 206 425 l 206 639 l 224 425 l 253 425 l 272 636 l 272 425 l 326 425 l 326 851 l 272 851 l 240 592 l 210 851 l 150 851 l 150 425 l 206 425 "},"¢":{"ha":300,"x_min":36,"x_max":269,"o":"m 125 744 l 125 689 l 125 689 q 65 651 93 681 q 36 569 36 621 l 36 106 l 36 106 q 64 28 36 54 q 125 -6 92 1 l 125 -82 l 175 -82 l 175 -7 l 175 -7 q 239 26 208 0 q 269 107 269 53 l 269 285 l 172 285 l 172 108 l 172 108 q 156 76 172 76 l 156 76 q 138 108 138 76 l 138 575 l 138 575 q 142 605 138 597 q 156 613 146 613 l 156 613 q 169 605 165 613 q 172 575 172 597 l 172 418 l 269 418 l 269 568 l 269 568 q 239 653 269 622 q 175 690 208 683 l 175 744 l 125 744 "},"µ":{"ha":314,"x_min":43,"x_max":278,"o":"m 278 0 l 278 688 l 176 688 l 176 107 l 176 107 q 161 72 176 72 l 161 72 q 143 107 143 72 l 143 688 l 43 688 l 43 -161 l 119 -161 l 119 -1 l 119 -1 q 140 -4 128 -7 l 140 -4 q 161 8 150 -3 q 172 53 172 19 l 181 53 l 181 0 l 278 0 "},"Æ":{"ha":410,"x_min":8,"x_max":401,"o":"m 104 0 l 125 224 l 189 224 l 189 0 l 401 0 l 401 76 l 296 76 l 296 385 l 367 385 l 367 454 l 296 454 l 296 775 l 394 775 l 394 851 l 89 851 l 8 0 l 104 0 m 129 310 l 179 775 l 189 775 l 189 310 l 129 310 "},"æ":{"ha":432,"x_min":15,"x_max":413,"o":"m 15 118 l 15 118 q 24 61 15 90 q 53 13 32 32 q 108 -6 74 -6 l 108 -6 q 163 14 144 -6 q 182 51 181 33 l 193 51 l 193 51 q 237 10 210 24 q 293 -4 264 -4 l 293 -4 q 375 27 338 -4 q 413 121 413 58 l 413 285 l 311 285 l 311 115 l 311 115 q 306 95 311 100 q 294 90 300 90 l 294 90 q 283 95 289 90 q 278 115 278 100 l 278 349 l 413 349 l 413 568 l 413 568 q 375 662 413 631 q 293 693 338 693 l 293 693 q 215 664 249 693 l 215 664 q 142 692 185 692 l 142 692 q 65 660 94 692 q 36 568 36 628 l 36 501 l 133 501 l 133 594 l 176 594 l 176 406 l 168 406 l 168 406 q 151 443 167 424 q 99 463 135 463 l 99 463 q 46 444 64 463 q 22 397 28 425 q 15 339 15 368 l 15 118 m 122 338 l 122 338 q 128 369 122 356 q 149 382 133 382 l 149 382 q 172 368 167 382 q 176 335 176 354 l 176 122 l 176 122 q 172 89 176 103 q 147 75 167 75 l 147 75 q 128 88 133 75 q 122 119 122 101 l 122 338 m 279 421 l 279 596 l 311 596 l 311 421 l 279 421 "},"÷":{"ha":414,"x_min":13,"x_max":401,"o":"m 401 421 l 401 483 l 13 483 l 13 421 l 401 421 m 213 -7 q 296 30 271 -7 q 321 124 321 67 l 321 244 l 321 244 q 291 338 321 300 q 210 376 261 376 l 210 376 q 122 338 151 376 q 93 244 93 300 l 93 124 l 93 124 q 119 35 93 76 q 213 -7 146 -7 l 213 -7 m 210 74 q 191 84 196 74 q 186 124 186 94 l 186 289 l 232 289 l 232 124 l 232 124 q 227 88 232 101 q 210 74 222 74 l 210 74 m 213 532 q 296 569 271 532 q 321 663 321 606 l 321 783 l 321 783 q 291 877 321 839 q 210 915 261 915 l 210 915 q 122 877 151 915 q 93 783 93 839 l 93 663 l 93 663 q 119 574 93 615 q 213 532 146 532 l 213 532 m 210 613 q 191 623 196 613 q 186 663 186 633 l 186 828 l 232 828 l 232 663 l 232 663 q 227 626 232 640 q 210 613 222 613 l 210 613 "},"¤":{"ha":476,"x_min":22,"x_max":454,"o":"m 118 333 l 118 333 q 239 292 171 292 l 239 292 q 358 332 306 292 l 414 276 l 454 317 l 399 372 l 399 372 q 439 494 439 425 l 439 494 q 397 613 439 561 l 454 669 l 414 710 l 357 653 l 357 653 q 239 694 306 694 l 239 694 q 119 653 172 694 l 63 708 l 22 668 l 78 613 l 78 613 q 38 494 38 561 l 38 494 q 78 374 38 425 l 22 318 l 63 278 l 118 333 m 239 379 q 158 411 192 379 q 125 494 125 443 l 125 494 q 158 574 125 540 q 239 607 192 607 l 239 607 q 318 574 285 607 q 351 494 351 540 l 351 494 q 318 411 351 443 q 239 379 285 379 l 239 379 "},"£":{"ha":364,"x_min":17,"x_max":336,"o":"m 29 0 l 336 0 l 336 78 l 151 78 l 151 85 l 151 85 q 188 129 188 92 l 188 340 l 322 340 l 322 392 l 188 392 l 188 790 l 229 790 l 229 486 l 336 486 l 336 736 l 336 736 q 299 831 336 801 q 219 860 261 860 l 197 860 l 197 860 q 118 831 156 860 q 81 736 81 801 l 81 392 l 17 392 l 17 340 l 81 340 l 81 196 l 81 196 q 75 118 81 144 q 29 78 69 92 l 29 0 "},"¥":{"ha":340,"x_min":39,"x_max":343,"o":"m 136 311 l 136 271 l 44 271 l 44 224 l 136 224 l 136 0 l 235 0 l 235 224 l 317 224 l 317 271 l 235 271 l 235 311 l 317 311 l 317 358 l 243 358 l 343 851 l 240 851 l 189 522 l 185 522 l 142 851 l 39 851 l 129 358 l 44 358 l 44 311 l 136 311 "},"Ł":{"ha":253,"x_min":-18,"x_max":247,"o":"m 247 0 l 247 94 l 140 94 l 140 488 l 196 610 l 140 610 l 140 851 l 36 851 l 36 478 l -18 358 l 36 358 l 36 0 l 247 0 "},"ł":{"ha":158,"x_min":-28,"x_max":186,"o":"m 129 0 l 129 454 l 186 579 l 129 579 l 129 851 l 29 851 l 29 454 l -28 328 l 29 328 l 29 0 l 129 0 "},"Đ":{"ha":322,"x_min":-4,"x_max":292,"o":"m 292 722 l 292 722 q 254 821 292 792 q 175 850 217 850 l 36 850 l 36 508 l -4 508 l -4 438 l 36 438 l 36 0 l 175 0 l 175 0 q 254 28 217 0 q 292 126 292 57 l 292 722 m 142 67 l 142 438 l 164 438 l 164 508 l 142 508 l 142 783 l 185 783 l 185 111 l 185 111 q 175 76 185 85 q 154 67 165 67 l 142 67 "},"×":{"ha":367,"x_min":17,"x_max":350,"o":"m 183 443 l 307 319 l 350 363 l 226 486 l 350 610 l 307 653 l 183 529 l 60 653 l 17 610 l 140 486 l 17 363 l 60 319 l 183 443 "},"¦":{"ha":174,"x_min":40,"x_max":133,"o":"m 133 483 l 133 901 l 40 901 l 40 483 l 133 483 m 133 -42 l 133 379 l 40 379 l 40 -42 l 133 -42 "},"§":{"ha":251,"x_min":33,"x_max":225,"o":"m 139 46 l 110 46 l 110 239 l 33 239 l 33 82 l 33 82 q 56 20 33 47 q 129 -7 79 -7 l 129 -7 q 195 15 169 -7 q 221 82 221 36 l 221 192 l 221 192 q 193 258 221 228 q 140 313 165 289 l 140 313 q 192 321 175 308 q 215 356 208 333 q 221 400 221 378 l 221 400 q 223 454 221 425 q 214 511 225 483 l 214 511 q 178 567 203 542 q 135 619 154 592 q 115 682 115 647 l 115 811 l 139 811 l 139 629 l 215 629 l 215 775 l 215 775 q 193 836 215 808 q 122 864 171 864 l 122 864 q 57 840 81 864 q 33 775 33 817 l 33 679 l 33 679 q 56 614 33 640 q 106 563 79 588 l 106 563 q 56 541 76 560 q 35 475 35 522 l 35 396 l 35 396 q 51 332 35 358 q 87 284 67 306 q 123 240 107 263 q 139 189 139 218 l 139 46 m 114 479 l 114 479 q 131 510 114 510 l 131 510 q 146 479 146 510 l 146 386 l 146 386 q 131 356 146 356 l 131 356 q 114 386 114 356 l 114 479 "},"²":{"ha":153,"x_min":8,"x_max":146,"o":"m 8 475 l 136 475 l 136 532 l 71 532 l 71 532 q 80 580 71 561 q 100 629 89 599 l 100 629 q 129 703 113 665 q 146 783 146 742 l 146 851 l 146 851 q 130 893 146 876 q 81 910 114 910 l 81 910 q 8 851 8 910 l 8 763 l 68 763 l 68 863 l 83 863 l 83 789 l 83 789 q 69 711 83 750 q 42 636 54 672 l 42 636 q 19 570 31 603 q 8 504 8 538 l 8 475 "},"³":{"ha":169,"x_min":11,"x_max":151,"o":"m 74 621 l 11 621 l 11 532 l 11 532 q 30 490 11 506 q 82 474 49 474 l 82 474 q 151 532 151 474 l 151 647 l 151 647 q 141 681 151 667 q 100 694 131 694 l 100 701 l 100 701 q 141 717 131 701 q 151 751 151 732 l 151 851 l 151 851 q 135 892 151 875 q 86 910 118 910 l 86 910 q 31 897 51 910 q 11 851 11 883 l 11 764 l 74 764 l 74 864 l 89 864 l 89 747 l 89 747 q 85 730 89 735 q 67 725 81 725 l 67 671 l 67 671 q 85 667 81 671 q 89 649 89 663 l 89 536 l 89 536 q 82 517 89 517 l 82 517 q 74 536 74 517 l 74 621 "},"¹":{"ha":114,"x_min":0,"x_max":90,"o":"m 90 901 l 28 901 l 28 872 l 0 872 l 0 825 l 28 825 l 28 475 l 90 475 l 90 901 "},"º":{"ha":192,"x_min":26,"x_max":167,"o":"m 167 851 l 167 851 q 149 892 167 875 q 94 910 132 910 l 94 910 q 45 896 64 910 q 26 851 26 882 l 26 543 l 26 543 q 43 490 26 508 q 99 472 60 472 l 99 472 q 151 490 135 472 q 167 543 167 508 l 167 851 m 85 863 l 108 863 l 108 542 l 108 542 q 106 524 108 532 q 96 515 104 515 l 96 515 q 85 542 85 515 l 85 863 "},"¼":{"ha":331,"x_min":-4,"x_max":335,"o":"m 263 60 l 264 0 l 317 0 l 315 60 l 335 60 l 335 101 l 315 101 l 314 394 l 249 394 l 181 88 l 182 60 l 263 60 m 86 901 l 24 901 l 24 872 l -4 872 l -4 825 l 24 825 l 24 475 l 86 475 l 86 901 m 58 0 l 275 851 l 217 851 l 0 0 l 58 0 m 263 264 l 263 101 l 228 101 l 263 264 "},"½":{"ha":346,"x_min":-4,"x_max":350,"o":"m 86 901 l 24 901 l 24 872 l -4 872 l -4 825 l 24 825 l 24 475 l 86 475 l 86 901 m 64 0 l 281 851 l 222 851 l 6 0 l 64 0 m 213 -4 l 340 -4 l 340 53 l 275 53 l 275 53 q 284 101 275 82 q 304 150 293 119 l 304 150 q 333 224 317 186 q 350 304 350 263 l 350 372 l 350 372 q 334 414 350 397 q 285 431 318 431 l 285 431 q 213 372 213 431 l 213 283 l 272 283 l 272 383 l 288 383 l 288 310 l 288 310 q 273 232 288 271 q 246 157 258 193 l 246 157 q 224 91 235 124 q 213 25 213 58 l 213 -4 "},"¾":{"ha":340,"x_min":-6,"x_max":340,"o":"m 85 901 l 22 901 l 22 872 l -6 872 l -6 825 l 22 825 l 22 475 l 85 475 l 85 901 m 76 0 l 293 851 l 235 851 l 18 0 l 76 0 m 263 142 l 200 142 l 200 53 l 200 53 q 219 10 200 26 q 271 -6 238 -6 l 271 -6 q 340 53 340 -6 l 340 168 l 340 168 q 330 201 340 188 q 289 215 319 215 l 289 222 l 289 222 q 330 238 319 222 q 340 272 340 253 l 340 372 l 340 372 q 324 413 340 396 q 275 431 307 431 l 275 431 q 220 417 240 431 q 200 372 200 404 l 200 285 l 263 285 l 263 385 l 278 385 l 278 268 l 278 268 q 274 251 278 256 q 256 246 269 246 l 256 192 l 256 192 q 274 188 269 192 q 278 169 278 183 l 278 57 l 278 57 q 271 38 278 38 l 271 38 q 263 57 263 38 l 263 142 "},"ß":{"ha":314,"x_min":28,"x_max":290,"o":"m 129 786 l 190 786 l 190 597 l 190 597 q 186 531 190 549 q 150 514 182 514 l 150 428 l 150 428 q 186 410 182 428 q 190 344 190 393 l 190 65 l 154 65 l 154 -8 l 196 -8 l 196 -8 q 261 4 242 -8 q 285 39 281 17 q 290 92 290 61 l 290 357 l 290 357 q 274 433 290 401 q 203 464 257 464 l 203 478 l 203 478 q 274 513 258 478 q 290 592 290 549 l 290 728 l 290 728 q 282 794 290 764 q 248 842 274 824 q 171 860 222 860 l 171 860 q 62 828 96 860 q 28 728 28 797 l 28 0 l 129 0 l 129 786 "},"Ø":{"ha":326,"x_min":29,"x_max":296,"o":"m 294 728 l 294 728 q 289 774 294 754 q 272 810 283 794 l 296 907 l 244 907 l 231 847 l 231 847 q 178 860 206 860 l 149 860 l 149 860 q 69 828 107 860 q 32 728 32 797 l 32 122 l 32 122 q 43 60 32 86 l 29 0 l 81 0 l 83 11 l 83 11 q 149 -8 111 -8 l 178 -8 l 178 -8 q 257 22 219 -8 q 294 122 294 53 l 294 728 m 136 235 l 190 463 l 190 79 l 136 79 l 136 235 m 136 772 l 190 772 l 190 679 l 136 450 l 136 772 "},"ø":{"ha":289,"x_min":6,"x_max":272,"o":"m 24 119 l 24 119 q 29 78 24 96 l 6 0 l 57 0 l 64 22 l 64 22 q 144 -8 99 -8 l 144 -8 q 228 25 190 -8 q 265 121 265 58 l 265 568 l 265 568 q 253 629 265 604 l 272 693 l 221 693 l 214 672 l 214 672 q 144 693 185 693 l 144 693 q 61 662 99 693 q 24 569 24 631 l 24 119 m 125 219 l 164 344 l 164 117 l 164 117 q 158 98 164 103 q 146 93 153 93 l 146 93 q 132 98 139 93 q 125 117 125 103 l 125 219 m 125 596 l 164 596 l 164 510 l 125 385 l 125 596 "},"đ":{"ha":300,"x_min":25,"x_max":326,"o":"m 106 -4 q 157 15 142 -4 q 174 53 172 35 l 182 53 l 182 0 l 271 0 l 271 760 l 326 760 l 326 811 l 271 811 l 271 851 l 174 851 l 174 811 l 122 811 l 122 760 l 174 760 l 174 638 l 165 638 l 165 638 q 149 675 164 656 q 100 694 133 694 l 100 694 q 53 676 69 694 q 31 628 36 657 q 25 571 25 600 l 25 119 l 25 119 q 31 63 25 92 q 55 15 38 33 q 106 -4 72 -4 l 106 -4 m 153 86 q 138 97 142 86 q 133 122 133 107 l 133 568 l 133 568 q 136 594 133 583 q 151 604 139 604 l 151 604 q 171 568 171 604 l 171 122 l 171 122 q 167 97 171 107 q 153 86 164 86 l 153 86 "},"Ã":{"ha":308,"x_min":8,"x_max":300,"o":"m 108 0 l 125 231 l 190 231 l 210 0 l 300 0 l 215 851 l 93 851 l 8 0 l 108 0 m 104 985 l 121 985 l 121 974 l 121 974 q 140 929 121 944 q 189 914 160 914 l 189 914 q 231 929 213 914 q 250 974 250 944 l 250 1039 l 194 1039 l 194 968 l 194 968 q 186 957 194 957 l 186 957 q 178 961 181 957 q 176 968 176 965 l 176 983 l 176 983 q 156 1028 176 1014 q 107 1043 135 1043 l 107 1043 q 65 1028 85 1043 q 44 983 44 1014 l 44 918 l 104 918 l 104 985 m 151 611 l 157 611 l 183 308 l 131 308 l 151 611 "},"Â":{"ha":308,"x_min":8,"x_max":300,"o":"m 108 0 l 125 231 l 190 231 l 210 0 l 300 0 l 215 851 l 93 851 l 8 0 l 108 0 m 108 915 l 153 969 l 199 915 l 269 915 l 190 1035 l 118 1035 l 39 915 l 108 915 m 151 611 l 157 611 l 183 308 l 131 308 l 151 611 "},"Á":{"ha":308,"x_min":8,"x_max":300,"o":"m 108 0 l 125 231 l 190 231 l 210 0 l 300 0 l 215 851 l 93 851 l 8 0 l 108 0 m 267 1022 l 156 1022 l 125 903 l 188 903 l 267 1022 m 151 611 l 157 611 l 183 308 l 131 308 l 151 611 "},"À":{"ha":308,"x_min":8,"x_max":300,"o":"m 108 0 l 125 231 l 190 231 l 210 0 l 300 0 l 215 851 l 93 851 l 8 0 l 108 0 m 181 903 l 150 1022 l 39 1022 l 118 903 l 181 903 m 151 611 l 157 611 l 183 308 l 131 308 l 151 611 "},"Ä":{"ha":308,"x_min":8,"x_max":300,"o":"m 108 0 l 125 231 l 190 231 l 210 0 l 300 0 l 215 851 l 93 851 l 8 0 l 108 0 m 136 931 l 136 1038 l 69 1038 l 69 931 l 136 931 m 235 931 l 235 1038 l 168 1038 l 168 931 l 235 931 m 151 611 l 157 611 l 183 308 l 131 308 l 151 611 "},"Å":{"ha":308,"x_min":8,"x_max":300,"o":"m 108 0 l 125 231 l 190 231 l 210 0 l 300 0 l 215 851 l 93 851 l 8 0 l 108 0 m 69 975 q 94 917 69 942 q 151 893 119 893 l 151 893 q 212 918 188 893 q 236 975 236 943 l 236 975 q 210 1035 236 1011 q 150 1060 185 1060 l 150 1060 q 94 1035 118 1060 q 69 975 69 1010 l 69 975 m 121 976 q 153 1010 121 1010 l 153 1010 q 177 1001 168 1010 q 186 976 186 992 l 186 976 q 153 944 186 944 l 153 944 q 121 976 121 944 l 121 976 m 151 611 l 157 611 l 183 308 l 131 308 l 151 611 "},"Ç":{"ha":313,"x_min":32,"x_max":288,"o":"m 139 772 l 181 772 l 181 515 l 288 515 l 288 728 l 288 728 q 257 820 288 781 q 169 860 226 860 l 169 860 q 68 828 104 860 q 32 728 32 797 l 32 122 l 32 122 q 63 28 32 63 q 144 -8 93 -6 l 135 -53 l 160 -57 l 160 -57 q 181 -51 169 -51 l 181 -51 q 203 -65 201 -51 l 203 -65 q 187 -87 206 -83 q 149 -90 168 -90 l 124 -90 l 124 -143 l 163 -143 l 163 -143 q 228 -119 207 -143 q 242 -62 250 -94 l 242 -62 q 217 -29 236 -39 q 169 -26 197 -19 l 174 -8 l 174 -8 q 259 27 231 -4 q 288 122 288 58 l 288 329 l 181 329 l 181 129 l 181 129 q 178 90 181 107 q 163 72 175 72 l 163 72 q 143 86 147 72 q 139 129 139 100 l 139 772 "},"Ê":{"ha":257,"x_min":28,"x_max":258,"o":"m 247 0 l 247 92 l 138 92 l 138 407 l 213 407 l 213 494 l 138 494 l 138 760 l 242 760 l 242 851 l 36 851 l 36 0 l 247 0 m 97 914 l 142 968 l 188 914 l 258 914 l 179 1033 l 107 1033 l 28 914 l 97 914 "},"É":{"ha":257,"x_min":36,"x_max":256,"o":"m 247 0 l 247 92 l 138 92 l 138 407 l 213 407 l 213 494 l 138 494 l 138 760 l 242 760 l 242 851 l 36 851 l 36 0 l 247 0 m 256 1021 l 144 1021 l 114 901 l 176 901 l 256 1021 "},"È":{"ha":257,"x_min":28,"x_max":247,"o":"m 247 0 l 247 92 l 138 92 l 138 407 l 213 407 l 213 494 l 138 494 l 138 760 l 242 760 l 242 851 l 36 851 l 36 0 l 247 0 m 169 901 l 139 1021 l 28 1021 l 107 901 l 169 901 "},"Ë":{"ha":257,"x_min":36,"x_max":247,"o":"m 247 0 l 247 92 l 138 92 l 138 407 l 213 407 l 213 494 l 138 494 l 138 760 l 242 760 l 242 851 l 36 851 l 36 0 l 247 0 m 125 929 l 125 1036 l 58 1036 l 58 929 l 125 929 m 224 929 l 224 1036 l 157 1036 l 157 929 l 224 929 "},"Î":{"ha":175,"x_min":-28,"x_max":203,"o":"m 139 0 l 139 851 l 36 851 l 36 0 l 139 0 m 42 915 l 86 969 l 132 915 l 203 915 l 124 1035 l 51 1035 l -28 915 l 42 915 "},"Í":{"ha":175,"x_min":36,"x_max":200,"o":"m 139 0 l 139 851 l 36 851 l 36 0 l 139 0 m 200 1022 l 89 1022 l 58 903 l 121 903 l 200 1022 "},"Ì":{"ha":175,"x_min":-28,"x_max":139,"o":"m 139 0 l 139 851 l 36 851 l 36 0 l 139 0 m 114 903 l 83 1022 l -28 1022 l 51 903 l 114 903 "},"Ï":{"ha":175,"x_min":3,"x_max":168,"o":"m 139 0 l 139 851 l 36 851 l 36 0 l 139 0 m 69 931 l 69 1038 l 3 1038 l 3 931 l 69 931 m 168 931 l 168 1038 l 101 1038 l 101 931 l 168 931 "},"Ñ":{"ha":400,"x_min":36,"x_max":364,"o":"m 138 0 l 138 564 l 142 564 l 250 0 l 364 0 l 364 850 l 261 850 l 261 299 l 258 299 l 156 850 l 36 850 l 36 0 l 138 0 m 149 983 l 165 983 l 165 972 l 165 972 q 185 928 165 943 q 233 913 204 913 l 233 913 q 276 928 257 913 q 294 972 294 943 l 294 1038 l 239 1038 l 239 967 l 239 967 q 231 956 239 956 l 231 956 q 223 960 225 956 q 221 967 221 964 l 221 982 l 221 982 q 200 1027 221 1013 q 151 1042 179 1042 l 151 1042 q 109 1027 129 1042 q 89 982 89 1013 l 89 917 l 149 917 l 149 983 "},"Õ":{"ha":326,"x_min":32,"x_max":294,"o":"m 294 728 l 294 728 q 257 828 294 797 q 178 860 219 860 l 149 860 l 149 860 q 69 828 107 860 q 32 728 32 797 l 32 122 l 32 122 q 69 22 32 53 q 149 -8 107 -8 l 178 -8 l 178 -8 q 257 22 219 -8 q 294 122 294 53 l 294 728 m 136 772 l 190 772 l 190 79 l 136 79 l 136 772 m 118 992 l 135 992 l 135 981 l 135 981 q 154 936 135 951 q 203 921 174 921 l 203 921 q 245 936 226 921 q 264 981 264 951 l 264 1046 l 208 1046 l 208 975 l 208 975 q 200 964 208 964 l 200 964 q 192 968 194 964 q 190 975 190 972 l 190 990 l 190 990 q 169 1035 190 1021 q 121 1050 149 1050 l 121 1050 q 78 1035 99 1050 q 58 990 58 1021 l 58 925 l 118 925 l 118 992 "},"Ô":{"ha":326,"x_min":32,"x_max":294,"o":"m 294 728 l 294 728 q 257 828 294 797 q 178 860 219 860 l 149 860 l 149 860 q 69 828 107 860 q 32 728 32 797 l 32 122 l 32 122 q 69 22 32 53 q 149 -8 107 -8 l 178 -8 l 178 -8 q 257 22 219 -8 q 294 122 294 53 l 294 728 m 136 772 l 190 772 l 190 79 l 136 79 l 136 772 m 122 922 l 167 976 l 213 922 l 283 922 l 204 1042 l 132 1042 l 53 922 l 122 922 "},"Ó":{"ha":326,"x_min":32,"x_max":294,"o":"m 294 728 l 294 728 q 257 828 294 797 q 178 860 219 860 l 149 860 l 149 860 q 69 828 107 860 q 32 728 32 797 l 32 122 l 32 122 q 69 22 32 53 q 149 -8 107 -8 l 178 -8 l 178 -8 q 257 22 219 -8 q 294 122 294 53 l 294 728 m 136 772 l 190 772 l 190 79 l 136 79 l 136 772 m 281 1029 l 169 1029 l 139 910 l 201 910 l 281 1029 "},"Ò":{"ha":326,"x_min":32,"x_max":294,"o":"m 294 728 l 294 728 q 257 828 294 797 q 178 860 219 860 l 149 860 l 149 860 q 69 828 107 860 q 32 728 32 797 l 32 122 l 32 122 q 69 22 32 53 q 149 -8 107 -8 l 178 -8 l 178 -8 q 257 22 219 -8 q 294 122 294 53 l 294 728 m 136 772 l 190 772 l 190 79 l 136 79 l 136 772 m 194 910 l 164 1029 l 53 1029 l 132 910 l 194 910 "},"Ö":{"ha":326,"x_min":32,"x_max":294,"o":"m 294 728 l 294 728 q 257 828 294 797 q 178 860 219 860 l 149 860 l 149 860 q 69 828 107 860 q 32 728 32 797 l 32 122 l 32 122 q 69 22 32 53 q 149 -8 107 -8 l 178 -8 l 178 -8 q 257 22 219 -8 q 294 122 294 53 l 294 728 m 136 772 l 190 772 l 190 79 l 136 79 l 136 772 m 150 938 l 150 1044 l 83 1044 l 83 938 l 150 938 m 249 938 l 249 1044 l 182 1044 l 182 938 l 249 938 "},"Û":{"ha":322,"x_min":33,"x_max":289,"o":"m 140 851 l 33 851 l 33 135 l 33 135 q 63 29 33 67 q 161 -8 92 -8 l 161 -8 q 260 29 231 -8 q 289 135 289 67 l 289 851 l 183 851 l 183 128 l 183 128 q 180 89 183 101 q 163 76 176 76 l 163 76 q 144 89 149 76 q 140 128 140 101 l 140 851 m 115 915 l 160 969 l 206 915 l 276 915 l 197 1035 l 125 1035 l 46 915 l 115 915 "},"Ú":{"ha":322,"x_min":33,"x_max":289,"o":"m 140 851 l 33 851 l 33 135 l 33 135 q 63 29 33 67 q 161 -8 92 -8 l 161 -8 q 260 29 231 -8 q 289 135 289 67 l 289 851 l 183 851 l 183 128 l 183 128 q 180 89 183 101 q 163 76 176 76 l 163 76 q 144 89 149 76 q 140 128 140 101 l 140 851 m 274 1022 l 163 1022 l 132 903 l 194 903 l 274 1022 "},"Ù":{"ha":322,"x_min":33,"x_max":289,"o":"m 140 851 l 33 851 l 33 135 l 33 135 q 63 29 33 67 q 161 -8 92 -8 l 161 -8 q 260 29 231 -8 q 289 135 289 67 l 289 851 l 183 851 l 183 128 l 183 128 q 180 89 183 101 q 163 76 176 76 l 163 76 q 144 89 149 76 q 140 128 140 101 l 140 851 m 188 903 l 157 1022 l 46 1022 l 125 903 l 188 903 "},"Ü":{"ha":322,"x_min":33,"x_max":289,"o":"m 140 851 l 33 851 l 33 135 l 33 135 q 63 29 33 67 q 161 -8 92 -8 l 161 -8 q 260 29 231 -8 q 289 135 289 67 l 289 851 l 183 851 l 183 128 l 183 128 q 180 89 183 101 q 163 76 176 76 l 163 76 q 144 89 149 76 q 140 128 140 101 l 140 851 m 143 931 l 143 1038 l 76 1038 l 76 931 l 143 931 m 242 931 l 242 1038 l 175 1038 l 175 931 l 242 931 "},"Ý":{"ha":315,"x_min":6,"x_max":310,"o":"m 201 0 l 201 317 l 310 851 l 207 851 l 156 522 l 151 522 l 108 851 l 6 851 l 103 317 l 103 0 l 201 0 m 268 1021 l 157 1021 l 126 901 l 189 901 l 268 1021 "},"ã":{"ha":300,"x_min":25,"x_max":271,"o":"m 106 -4 q 157 15 142 -4 q 174 53 172 35 l 182 53 l 182 0 l 271 0 l 271 688 l 182 688 l 182 638 l 174 638 l 174 638 q 157 675 172 656 q 106 694 142 694 l 106 694 q 55 676 72 694 q 31 628 38 657 q 25 571 25 600 l 25 119 l 25 119 q 31 63 25 92 q 55 15 38 33 q 106 -4 72 -4 l 106 -4 m 153 86 q 133 121 133 86 l 133 569 l 133 569 q 136 594 133 585 q 151 604 139 604 l 151 604 q 171 567 171 604 l 171 124 l 171 124 q 167 97 171 107 q 153 86 164 86 l 153 86 m 99 819 l 115 819 l 115 808 l 115 808 q 135 764 115 779 q 183 749 154 749 l 183 749 q 226 764 207 749 q 244 808 244 779 l 244 874 l 189 874 l 189 803 l 189 803 q 181 792 189 792 l 181 792 q 173 796 175 792 q 171 803 171 800 l 171 818 l 171 818 q 150 863 171 849 q 101 878 129 878 l 101 878 q 59 863 79 878 q 39 818 39 849 l 39 753 l 99 753 l 99 819 "},"â":{"ha":300,"x_min":25,"x_max":271,"o":"m 106 -4 q 157 15 142 -4 q 174 53 172 35 l 182 53 l 182 0 l 271 0 l 271 688 l 182 688 l 182 638 l 174 638 l 174 638 q 157 675 172 656 q 106 694 142 694 l 106 694 q 55 676 72 694 q 31 628 38 657 q 25 571 25 600 l 25 119 l 25 119 q 31 63 25 92 q 55 15 38 33 q 106 -4 72 -4 l 106 -4 m 153 86 q 133 121 133 86 l 133 569 l 133 569 q 136 594 133 585 q 151 604 139 604 l 151 604 q 171 567 171 604 l 171 124 l 171 124 q 167 97 171 107 q 153 86 164 86 l 153 86 m 103 750 l 147 804 l 193 750 l 264 750 l 185 869 l 113 869 l 33 750 l 103 750 "},"á":{"ha":300,"x_min":25,"x_max":271,"o":"m 106 -4 q 157 15 142 -4 q 174 53 172 35 l 182 53 l 182 0 l 271 0 l 271 688 l 182 688 l 182 638 l 174 638 l 174 638 q 157 675 172 656 q 106 694 142 694 l 106 694 q 55 676 72 694 q 31 628 38 657 q 25 571 25 600 l 25 119 l 25 119 q 31 63 25 92 q 55 15 38 33 q 106 -4 72 -4 l 106 -4 m 153 86 q 133 121 133 86 l 133 569 l 133 569 q 136 594 133 585 q 151 604 139 604 l 151 604 q 171 567 171 604 l 171 124 l 171 124 q 167 97 171 107 q 153 86 164 86 l 153 86 m 261 857 l 150 857 l 119 738 l 182 738 l 261 857 "},"à":{"ha":300,"x_min":25,"x_max":271,"o":"m 106 -4 q 157 15 142 -4 q 174 53 172 35 l 182 53 l 182 0 l 271 0 l 271 688 l 182 688 l 182 638 l 174 638 l 174 638 q 157 675 172 656 q 106 694 142 694 l 106 694 q 55 676 72 694 q 31 628 38 657 q 25 571 25 600 l 25 119 l 25 119 q 31 63 25 92 q 55 15 38 33 q 106 -4 72 -4 l 106 -4 m 153 86 q 133 121 133 86 l 133 569 l 133 569 q 136 594 133 585 q 151 604 139 604 l 151 604 q 171 567 171 604 l 171 124 l 171 124 q 167 97 171 107 q 153 86 164 86 l 153 86 m 175 738 l 144 857 l 33 857 l 113 738 l 175 738 "},"ä":{"ha":300,"x_min":25,"x_max":271,"o":"m 106 -4 q 157 15 142 -4 q 174 53 172 35 l 182 53 l 182 0 l 271 0 l 271 688 l 182 688 l 182 638 l 174 638 l 174 638 q 157 675 172 656 q 106 694 142 694 l 106 694 q 55 676 72 694 q 31 628 38 657 q 25 571 25 600 l 25 119 l 25 119 q 31 63 25 92 q 55 15 38 33 q 106 -4 72 -4 l 106 -4 m 153 86 q 133 121 133 86 l 133 569 l 133 569 q 136 594 133 585 q 151 604 139 604 l 151 604 q 171 567 171 604 l 171 124 l 171 124 q 167 97 171 107 q 153 86 164 86 l 153 86 m 131 765 l 131 872 l 64 872 l 64 765 l 131 765 m 229 765 l 229 872 l 163 872 l 163 765 l 229 765 "},"å":{"ha":300,"x_min":25,"x_max":271,"o":"m 106 -4 q 157 15 142 -4 q 174 53 172 35 l 182 53 l 182 0 l 271 0 l 271 688 l 182 688 l 182 638 l 174 638 l 174 638 q 157 675 172 656 q 106 694 142 694 l 106 694 q 55 676 72 694 q 31 628 38 657 q 25 571 25 600 l 25 119 l 25 119 q 31 63 25 92 q 55 15 38 33 q 106 -4 72 -4 l 106 -4 m 153 86 q 133 121 133 86 l 133 569 l 133 569 q 136 594 133 585 q 151 604 139 604 l 151 604 q 171 567 171 604 l 171 124 l 171 124 q 167 97 171 107 q 153 86 164 86 l 153 86 m 64 810 q 89 752 64 776 q 146 728 114 728 l 146 728 q 206 753 182 728 q 231 810 231 778 l 231 810 q 205 870 231 846 q 144 894 179 894 l 144 894 q 88 869 113 894 q 64 810 64 844 l 64 810 m 115 811 q 147 844 115 844 l 147 844 q 172 835 163 844 q 181 811 181 826 l 181 811 q 147 779 181 779 l 147 779 q 115 811 115 779 l 115 811 "},"ç":{"ha":275,"x_min":24,"x_max":257,"o":"m 125 575 l 125 575 q 129 605 125 597 q 143 613 133 613 l 143 613 q 156 605 153 613 q 160 575 160 597 l 160 418 l 257 418 l 257 568 l 257 568 q 238 638 257 610 q 193 679 219 665 q 140 693 167 693 l 140 693 q 88 679 115 693 q 42 638 61 665 q 24 569 24 611 l 24 106 l 24 106 q 56 24 24 50 q 124 -7 89 -3 l 114 -53 l 139 -57 l 139 -57 q 160 -51 149 -51 l 160 -51 q 182 -65 181 -51 l 182 -65 q 166 -87 185 -83 q 128 -90 147 -90 l 103 -90 l 103 -143 l 142 -143 l 142 -143 q 208 -119 186 -143 q 221 -62 229 -94 l 221 -62 q 196 -29 215 -39 q 149 -26 176 -19 l 153 -8 l 153 -8 q 223 23 189 -4 q 257 107 257 50 l 257 285 l 160 285 l 160 108 l 160 108 q 143 76 160 76 l 143 76 q 125 108 125 76 l 125 575 "},"ê":{"ha":281,"x_min":24,"x_max":260,"o":"m 158 115 l 158 115 q 153 95 158 100 q 142 90 147 90 l 142 90 q 131 95 136 90 q 125 115 125 100 l 125 349 l 260 349 l 260 568 l 260 568 q 222 662 260 631 q 140 693 185 693 l 140 693 q 60 662 97 693 q 24 569 24 631 l 24 119 l 24 119 q 60 27 24 58 q 140 -4 97 -4 l 140 -4 q 222 27 185 -4 q 260 121 260 58 l 260 285 l 158 285 l 158 115 m 126 421 l 126 596 l 158 596 l 158 421 l 126 421 m 93 750 l 138 804 l 183 750 l 254 750 l 175 869 l 103 869 l 24 750 l 93 750 "},"é":{"ha":281,"x_min":24,"x_max":260,"o":"m 158 115 l 158 115 q 153 95 158 100 q 142 90 147 90 l 142 90 q 131 95 136 90 q 125 115 125 100 l 125 349 l 260 349 l 260 568 l 260 568 q 222 662 260 631 q 140 693 185 693 l 140 693 q 60 662 97 693 q 24 569 24 631 l 24 119 l 24 119 q 60 27 24 58 q 140 -4 97 -4 l 140 -4 q 222 27 185 -4 q 260 121 260 58 l 260 285 l 158 285 l 158 115 m 126 421 l 126 596 l 158 596 l 158 421 l 126 421 m 251 857 l 140 857 l 110 738 l 172 738 l 251 857 "},"è":{"ha":281,"x_min":24,"x_max":260,"o":"m 158 115 l 158 115 q 153 95 158 100 q 142 90 147 90 l 142 90 q 131 95 136 90 q 125 115 125 100 l 125 349 l 260 349 l 260 568 l 260 568 q 222 662 260 631 q 140 693 185 693 l 140 693 q 60 662 97 693 q 24 569 24 631 l 24 119 l 24 119 q 60 27 24 58 q 140 -4 97 -4 l 140 -4 q 222 27 185 -4 q 260 121 260 58 l 260 285 l 158 285 l 158 115 m 126 421 l 126 596 l 158 596 l 158 421 l 126 421 m 165 738 l 135 857 l 24 857 l 103 738 l 165 738 "},"ë":{"ha":281,"x_min":24,"x_max":260,"o":"m 158 115 l 158 115 q 153 95 158 100 q 142 90 147 90 l 142 90 q 131 95 136 90 q 125 115 125 100 l 125 349 l 260 349 l 260 568 l 260 568 q 222 662 260 631 q 140 693 185 693 l 140 693 q 60 662 97 693 q 24 569 24 631 l 24 119 l 24 119 q 60 27 24 58 q 140 -4 97 -4 l 140 -4 q 222 27 185 -4 q 260 121 260 58 l 260 285 l 158 285 l 158 115 m 126 421 l 126 596 l 158 596 l 158 421 l 126 421 m 121 765 l 121 872 l 54 872 l 54 765 l 121 765 m 219 765 l 219 872 l 153 872 l 153 765 l 219 765 "},"ñ":{"ha":299,"x_min":29,"x_max":272,"o":"m 129 0 l 129 567 l 129 567 q 133 590 129 578 q 150 601 136 601 l 150 601 q 168 590 164 601 q 172 569 172 579 l 172 0 l 272 0 l 272 568 l 272 568 q 267 626 272 597 q 244 673 261 654 q 193 692 228 692 l 193 692 q 147 672 158 692 q 135 635 136 653 l 126 635 l 126 688 l 29 688 l 29 0 l 129 0 m 94 819 l 111 819 l 111 808 l 111 808 q 131 764 111 779 q 179 749 150 749 l 179 749 q 222 764 203 749 q 240 808 240 779 l 240 874 l 185 874 l 185 803 l 185 803 q 176 792 185 792 l 176 792 q 169 796 171 792 q 167 803 167 800 l 167 818 l 167 818 q 146 863 167 849 q 97 878 125 878 l 97 878 q 55 863 75 878 q 35 818 35 849 l 35 753 l 94 753 l 94 819 "},"õ":{"ha":289,"x_min":24,"x_max":265,"o":"m 24 119 l 24 119 q 61 25 24 58 q 144 -8 99 -8 l 144 -8 q 228 25 190 -8 q 265 121 265 58 l 265 568 l 265 568 q 228 662 265 631 q 144 693 190 693 l 144 693 q 61 662 99 693 q 24 569 24 631 l 24 119 m 125 596 l 164 596 l 164 117 l 164 117 q 158 98 164 103 q 146 93 153 93 l 146 93 q 132 98 139 93 q 125 117 125 103 l 125 596 m 94 819 l 111 819 l 111 808 l 111 808 q 131 764 111 779 q 179 749 150 749 l 179 749 q 222 764 203 749 q 240 808 240 779 l 240 874 l 185 874 l 185 803 l 185 803 q 176 792 185 792 l 176 792 q 169 796 171 792 q 167 803 167 800 l 167 818 l 167 818 q 146 863 167 849 q 97 878 125 878 l 97 878 q 55 863 75 878 q 35 818 35 849 l 35 753 l 94 753 l 94 819 "},"ô":{"ha":289,"x_min":24,"x_max":265,"o":"m 24 119 l 24 119 q 61 25 24 58 q 144 -8 99 -8 l 144 -8 q 228 25 190 -8 q 265 121 265 58 l 265 568 l 265 568 q 228 662 265 631 q 144 693 190 693 l 144 693 q 61 662 99 693 q 24 569 24 631 l 24 119 m 125 596 l 164 596 l 164 117 l 164 117 q 158 98 164 103 q 146 93 153 93 l 146 93 q 132 98 139 93 q 125 117 125 103 l 125 596 m 99 750 l 143 804 l 189 750 l 260 750 l 181 869 l 108 869 l 29 750 l 99 750 "},"ó":{"ha":289,"x_min":24,"x_max":265,"o":"m 24 119 l 24 119 q 61 25 24 58 q 144 -8 99 -8 l 144 -8 q 228 25 190 -8 q 265 121 265 58 l 265 568 l 265 568 q 228 662 265 631 q 144 693 190 693 l 144 693 q 61 662 99 693 q 24 569 24 631 l 24 119 m 125 596 l 164 596 l 164 117 l 164 117 q 158 98 164 103 q 146 93 153 93 l 146 93 q 132 98 139 93 q 125 117 125 103 l 125 596 m 257 857 l 146 857 l 115 738 l 178 738 l 257 857 "},"ò":{"ha":289,"x_min":24,"x_max":265,"o":"m 24 119 l 24 119 q 61 25 24 58 q 144 -8 99 -8 l 144 -8 q 228 25 190 -8 q 265 121 265 58 l 265 568 l 265 568 q 228 662 265 631 q 144 693 190 693 l 144 693 q 61 662 99 693 q 24 569 24 631 l 24 119 m 125 596 l 164 596 l 164 117 l 164 117 q 158 98 164 103 q 146 93 153 93 l 146 93 q 132 98 139 93 q 125 117 125 103 l 125 596 m 171 738 l 140 857 l 29 857 l 108 738 l 171 738 "},"ö":{"ha":289,"x_min":24,"x_max":265,"o":"m 24 119 l 24 119 q 61 25 24 58 q 144 -8 99 -8 l 144 -8 q 228 25 190 -8 q 265 121 265 58 l 265 568 l 265 568 q 228 662 265 631 q 144 693 190 693 l 144 693 q 61 662 99 693 q 24 569 24 631 l 24 119 m 125 596 l 164 596 l 164 117 l 164 117 q 158 98 164 103 q 146 93 153 93 l 146 93 q 132 98 139 93 q 125 117 125 103 l 125 596 m 126 765 l 126 872 l 60 872 l 60 765 l 126 765 m 225 765 l 225 872 l 158 872 l 158 765 l 225 765 "},"û":{"ha":299,"x_min":26,"x_max":269,"o":"m 169 688 l 169 121 l 169 121 q 166 98 169 110 q 149 86 163 86 l 149 86 q 131 97 135 86 q 126 118 126 108 l 126 688 l 26 688 l 26 119 l 26 119 q 32 63 26 92 q 55 15 38 33 q 106 -4 72 -4 l 106 -4 q 152 15 142 -4 q 164 53 163 35 l 172 53 l 172 0 l 269 0 l 269 688 l 169 688 m 97 750 l 142 804 l 188 750 l 258 750 l 179 869 l 107 869 l 28 750 l 97 750 "},"ú":{"ha":299,"x_min":26,"x_max":269,"o":"m 169 688 l 169 121 l 169 121 q 166 98 169 110 q 149 86 163 86 l 149 86 q 131 97 135 86 q 126 118 126 108 l 126 688 l 26 688 l 26 119 l 26 119 q 32 63 26 92 q 55 15 38 33 q 106 -4 72 -4 l 106 -4 q 152 15 142 -4 q 164 53 163 35 l 172 53 l 172 0 l 269 0 l 269 688 l 169 688 m 256 857 l 144 857 l 114 738 l 176 738 l 256 857 "},"ù":{"ha":299,"x_min":26,"x_max":269,"o":"m 169 688 l 169 121 l 169 121 q 166 98 169 110 q 149 86 163 86 l 149 86 q 131 97 135 86 q 126 118 126 108 l 126 688 l 26 688 l 26 119 l 26 119 q 32 63 26 92 q 55 15 38 33 q 106 -4 72 -4 l 106 -4 q 152 15 142 -4 q 164 53 163 35 l 172 53 l 172 0 l 269 0 l 269 688 l 169 688 m 169 738 l 139 857 l 28 857 l 107 738 l 169 738 "},"ü":{"ha":299,"x_min":26,"x_max":269,"o":"m 169 688 l 169 121 l 169 121 q 166 98 169 110 q 149 86 163 86 l 149 86 q 131 97 135 86 q 126 118 126 108 l 126 688 l 26 688 l 26 119 l 26 119 q 32 63 26 92 q 55 15 38 33 q 106 -4 72 -4 l 106 -4 q 152 15 142 -4 q 164 53 163 35 l 172 53 l 172 0 l 269 0 l 269 688 l 169 688 m 125 765 l 125 872 l 58 872 l 58 765 l 125 765 m 224 765 l 224 872 l 157 872 l 157 765 l 224 765 "},"î":{"ha":151,"x_min":-36,"x_max":194,"o":"m 26 0 l 128 0 l 128 688 l 26 688 l 26 0 m 33 750 l 78 804 l 124 750 l 194 750 l 115 869 l 43 869 l -36 750 l 33 750 "},"ì":{"ha":151,"x_min":-36,"x_max":128,"o":"m 26 0 l 128 0 l 128 688 l 26 688 l 26 0 m 106 738 l 75 857 l -36 857 l 43 738 l 106 738 "},"ï":{"ha":151,"x_min":-6,"x_max":160,"o":"m 26 0 l 128 0 l 128 688 l 26 688 l 26 0 m 61 765 l 61 872 l -6 872 l -6 765 l 61 765 m 160 765 l 160 872 l 93 872 l 93 765 l 160 765 "},"ý":{"ha":282,"x_min":8,"x_max":279,"o":"m 96 -225 l 96 -225 q 155 -208 135 -225 q 184 -167 175 -190 q 194 -125 193 -143 l 279 688 l 188 688 l 136 114 l 132 114 l 99 688 l 8 688 l 44 107 l 44 107 q 69 24 49 47 q 108 0 90 0 l 125 0 l 111 -133 l 69 -133 l 69 -225 l 96 -225 m 250 857 l 139 857 l 108 738 l 171 738 l 250 857 "},"ÿ":{"ha":282,"x_min":8,"x_max":279,"o":"m 96 -225 l 96 -225 q 155 -208 135 -225 q 184 -167 175 -190 q 194 -125 193 -143 l 279 688 l 188 688 l 136 114 l 132 114 l 99 688 l 8 688 l 44 107 l 44 107 q 69 24 49 47 q 108 0 90 0 l 125 0 l 111 -133 l 69 -133 l 69 -225 l 96 -225 m 119 765 l 119 872 l 53 872 l 53 765 l 119 765 m 218 765 l 218 872 l 151 872 l 151 765 l 218 765 "},"Ă":{"ha":308,"x_min":8,"x_max":300,"o":"m 108 0 l 125 231 l 190 231 l 210 0 l 300 0 l 215 851 l 93 851 l 8 0 l 108 0 m 64 996 l 64 996 q 88 934 64 961 q 151 907 111 907 l 151 907 q 217 933 193 907 q 242 996 242 958 l 242 1038 l 185 1038 l 185 1001 l 185 1001 q 151 964 185 964 l 151 964 q 128 974 138 964 q 119 1001 119 985 l 119 1038 l 64 1038 l 64 996 m 151 611 l 157 611 l 183 308 l 131 308 l 151 611 "},"Ā":{"ha":308,"x_min":8,"x_max":300,"o":"m 108 0 l 125 231 l 190 231 l 210 0 l 300 0 l 215 851 l 93 851 l 8 0 l 108 0 m 240 939 l 240 1007 l 65 1007 l 65 939 l 240 939 m 151 611 l 157 611 l 183 308 l 131 308 l 151 611 "},"Ą":{"ha":308,"x_min":8,"x_max":343,"o":"m 108 0 l 125 231 l 190 231 l 210 0 l 246 0 l 246 0 q 213 -58 225 -26 q 201 -117 201 -89 l 201 -117 q 242 -197 201 -171 q 343 -204 282 -224 l 343 -124 l 343 -124 q 332 -129 343 -124 q 306 -135 321 -135 l 306 -135 q 281 -124 288 -135 q 275 -96 275 -114 l 275 -96 q 300 0 275 -46 l 215 851 l 93 851 l 8 0 l 108 0 m 151 611 l 157 611 l 183 308 l 131 308 l 151 611 "},"ă":{"ha":300,"x_min":25,"x_max":271,"o":"m 106 -4 q 157 15 142 -4 q 174 53 172 35 l 182 53 l 182 0 l 271 0 l 271 688 l 182 688 l 182 638 l 174 638 l 174 638 q 157 675 172 656 q 106 694 142 694 l 106 694 q 55 676 72 694 q 31 628 38 657 q 25 571 25 600 l 25 119 l 25 119 q 31 63 25 92 q 55 15 38 33 q 106 -4 72 -4 l 106 -4 m 153 86 q 133 121 133 86 l 133 569 l 133 569 q 136 594 133 585 q 151 604 139 604 l 151 604 q 171 567 171 604 l 171 124 l 171 124 q 167 97 171 107 q 153 86 164 86 l 153 86 m 58 831 l 58 831 q 82 769 58 796 q 146 742 106 742 l 146 742 q 212 767 188 742 q 236 831 236 793 l 236 872 l 179 872 l 179 836 l 179 836 q 146 799 179 799 l 146 799 q 123 809 132 799 q 114 836 114 819 l 114 872 l 58 872 l 58 831 "},"ā":{"ha":300,"x_min":25,"x_max":271,"o":"m 106 -4 q 157 15 142 -4 q 174 53 172 35 l 182 53 l 182 0 l 271 0 l 271 688 l 182 688 l 182 638 l 174 638 l 174 638 q 157 675 172 656 q 106 694 142 694 l 106 694 q 55 676 72 694 q 31 628 38 657 q 25 571 25 600 l 25 119 l 25 119 q 31 63 25 92 q 55 15 38 33 q 106 -4 72 -4 l 106 -4 m 153 86 q 133 121 133 86 l 133 569 l 133 569 q 136 594 133 585 q 151 604 139 604 l 151 604 q 171 567 171 604 l 171 124 l 171 124 q 167 97 171 107 q 153 86 164 86 l 153 86 m 235 774 l 235 842 l 60 842 l 60 774 l 235 774 "},"ą":{"ha":300,"x_min":25,"x_max":314,"o":"m 106 -4 q 157 15 142 -4 q 174 53 172 35 l 182 53 l 182 0 l 217 0 l 217 0 q 184 -58 196 -26 q 172 -117 172 -89 l 172 -117 q 213 -197 172 -171 q 314 -204 253 -224 l 314 -124 l 314 -124 q 303 -129 314 -124 q 276 -135 292 -135 l 276 -135 q 252 -124 258 -135 q 246 -96 246 -114 l 246 -96 q 271 0 246 -46 l 271 688 l 182 688 l 182 638 l 174 638 l 174 638 q 157 675 172 656 q 106 694 142 694 l 106 694 q 55 676 72 694 q 31 628 38 657 q 25 571 25 600 l 25 119 l 25 119 q 31 63 25 92 q 55 15 38 33 q 106 -4 72 -4 l 106 -4 m 153 86 q 133 121 133 86 l 133 569 l 133 569 q 136 594 133 585 q 151 604 139 604 l 151 604 q 171 567 171 604 l 171 124 l 171 124 q 167 97 171 107 q 153 86 164 86 l 153 86 "},"Ĉ":{"ha":313,"x_min":32,"x_max":288,"o":"m 139 772 l 181 772 l 181 515 l 288 515 l 288 728 l 288 728 q 257 820 288 781 q 169 860 226 860 l 169 860 q 68 828 104 860 q 32 728 32 797 l 32 122 l 32 122 q 65 25 32 58 q 156 -8 99 -8 l 156 -8 q 254 23 221 -8 q 288 122 288 54 l 288 329 l 181 329 l 181 129 l 181 129 q 178 90 181 107 q 163 72 175 72 l 163 72 q 143 86 147 72 q 139 129 139 100 l 139 772 m 125 922 l 169 976 l 215 922 l 286 922 l 207 1042 l 135 1042 l 56 922 l 125 922 "},"Ć":{"ha":313,"x_min":32,"x_max":288,"o":"m 139 772 l 181 772 l 181 515 l 288 515 l 288 728 l 288 728 q 257 820 288 781 q 169 860 226 860 l 169 860 q 68 828 104 860 q 32 728 32 797 l 32 122 l 32 122 q 65 25 32 58 q 156 -8 99 -8 l 156 -8 q 254 23 221 -8 q 288 122 288 54 l 288 329 l 181 329 l 181 129 l 181 129 q 178 90 181 107 q 163 72 175 72 l 163 72 q 143 86 147 72 q 139 129 139 100 l 139 772 m 283 1029 l 172 1029 l 142 910 l 204 910 l 283 1029 "},"Č":{"ha":313,"x_min":32,"x_max":288,"o":"m 139 772 l 181 772 l 181 515 l 288 515 l 288 728 l 288 728 q 257 820 288 781 q 169 860 226 860 l 169 860 q 68 828 104 860 q 32 728 32 797 l 32 122 l 32 122 q 65 25 32 58 q 156 -8 99 -8 l 156 -8 q 254 23 221 -8 q 288 122 288 54 l 288 329 l 181 329 l 181 129 l 181 129 q 178 90 181 107 q 163 72 175 72 l 163 72 q 143 86 147 72 q 139 129 139 100 l 139 772 m 133 922 l 206 922 l 285 1042 l 214 1042 l 168 988 l 124 1042 l 54 1042 l 133 922 "},"Ċ":{"ha":313,"x_min":32,"x_max":288,"o":"m 139 772 l 181 772 l 181 515 l 288 515 l 288 728 l 288 728 q 257 820 288 781 q 169 860 226 860 l 169 860 q 68 828 104 860 q 32 728 32 797 l 32 122 l 32 122 q 65 25 32 58 q 156 -8 99 -8 l 156 -8 q 254 23 221 -8 q 288 122 288 54 l 288 329 l 181 329 l 181 129 l 181 129 q 178 90 181 107 q 163 72 175 72 l 163 72 q 143 86 147 72 q 139 129 139 100 l 139 772 m 207 911 l 207 1017 l 132 1017 l 132 911 l 207 911 "},"ĉ":{"ha":275,"x_min":24,"x_max":257,"o":"m 125 575 l 125 575 q 129 605 125 597 q 143 613 133 613 l 143 613 q 156 605 153 613 q 160 575 160 597 l 160 418 l 257 418 l 257 568 l 257 568 q 238 638 257 610 q 193 679 219 665 q 140 693 167 693 l 140 693 q 88 679 115 693 q 42 638 61 665 q 24 569 24 611 l 24 106 l 24 106 q 42 40 24 65 q 88 3 61 14 q 140 -8 115 -8 l 140 -8 q 193 3 167 -8 q 238 40 219 15 q 257 107 257 65 l 257 285 l 160 285 l 160 108 l 160 108 q 143 76 160 76 l 143 76 q 125 108 125 76 l 125 575 m 94 750 l 139 804 l 185 750 l 256 750 l 176 869 l 104 869 l 25 750 l 94 750 "},"ć":{"ha":275,"x_min":24,"x_max":257,"o":"m 125 575 l 125 575 q 129 605 125 597 q 143 613 133 613 l 143 613 q 156 605 153 613 q 160 575 160 597 l 160 418 l 257 418 l 257 568 l 257 568 q 238 638 257 610 q 193 679 219 665 q 140 693 167 693 l 140 693 q 88 679 115 693 q 42 638 61 665 q 24 569 24 611 l 24 106 l 24 106 q 42 40 24 65 q 88 3 61 14 q 140 -8 115 -8 l 140 -8 q 193 3 167 -8 q 238 40 219 15 q 257 107 257 65 l 257 285 l 160 285 l 160 108 l 160 108 q 143 76 160 76 l 143 76 q 125 108 125 76 l 125 575 m 253 857 l 142 857 l 111 738 l 174 738 l 253 857 "},"č":{"ha":275,"x_min":24,"x_max":257,"o":"m 125 575 l 125 575 q 129 605 125 597 q 143 613 133 613 l 143 613 q 156 605 153 613 q 160 575 160 597 l 160 418 l 257 418 l 257 568 l 257 568 q 238 638 257 610 q 193 679 219 665 q 140 693 167 693 l 140 693 q 88 679 115 693 q 42 638 61 665 q 24 569 24 611 l 24 106 l 24 106 q 42 40 24 65 q 88 3 61 14 q 140 -8 115 -8 l 140 -8 q 193 3 167 -8 q 238 40 219 15 q 257 107 257 65 l 257 285 l 160 285 l 160 108 l 160 108 q 143 76 160 76 l 143 76 q 125 108 125 76 l 125 575 m 103 750 l 175 750 l 254 869 l 183 869 l 138 815 l 93 869 l 24 869 l 103 750 "},"ċ":{"ha":275,"x_min":24,"x_max":257,"o":"m 125 575 l 125 575 q 129 605 125 597 q 143 613 133 613 l 143 613 q 156 605 153 613 q 160 575 160 597 l 160 418 l 257 418 l 257 568 l 257 568 q 238 638 257 610 q 193 679 219 665 q 140 693 167 693 l 140 693 q 88 679 115 693 q 42 638 61 665 q 24 569 24 611 l 24 106 l 24 106 q 42 40 24 65 q 88 3 61 14 q 140 -8 115 -8 l 140 -8 q 193 3 167 -8 q 238 40 219 15 q 257 107 257 65 l 257 285 l 160 285 l 160 108 l 160 108 q 143 76 160 76 l 143 76 q 125 108 125 76 l 125 575 m 176 739 l 176 844 l 101 844 l 101 739 l 176 739 "},"Ď":{"ha":322,"x_min":36,"x_max":292,"o":"m 292 722 l 292 722 q 254 821 292 792 q 175 850 217 850 l 36 850 l 36 0 l 175 0 l 175 0 q 254 28 217 0 q 292 126 292 57 l 292 722 m 142 67 l 142 783 l 185 783 l 185 111 l 185 111 q 175 76 185 85 q 154 67 165 67 l 142 67 m 128 914 l 200 914 l 279 1033 l 208 1033 l 163 979 l 118 1033 l 49 1033 l 128 914 "},"ď":{"ha":425,"x_min":25,"x_max":425,"o":"m 106 -4 q 157 15 142 -4 q 174 53 172 35 l 182 53 l 182 0 l 271 0 l 271 851 l 174 851 l 174 638 l 165 638 l 165 638 q 149 675 164 656 q 100 694 133 694 l 100 694 q 53 676 69 694 q 31 628 36 657 q 25 571 25 600 l 25 119 l 25 119 q 31 63 25 92 q 55 15 38 33 q 106 -4 72 -4 l 106 -4 m 153 86 q 138 97 142 86 q 133 122 133 107 l 133 568 l 133 568 q 136 594 133 583 q 151 604 139 604 l 151 604 q 171 568 171 604 l 171 122 l 171 122 q 167 97 171 107 q 153 86 164 86 l 153 86 m 376 649 l 425 731 l 425 851 l 325 851 l 325 731 l 363 731 l 342 649 l 376 649 "},"Ĕ":{"ha":257,"x_min":36,"x_max":247,"o":"m 247 0 l 247 92 l 138 92 l 138 407 l 213 407 l 213 494 l 138 494 l 138 760 l 242 760 l 242 851 l 36 851 l 36 0 l 247 0 m 53 994 l 53 994 q 76 933 53 960 q 140 906 100 906 l 140 906 q 206 931 182 906 q 231 994 231 957 l 231 1036 l 174 1036 l 174 1000 l 174 1000 q 140 963 174 963 l 140 963 q 117 973 126 963 q 108 1000 108 983 l 108 1036 l 53 1036 l 53 994 "},"Ė":{"ha":257,"x_min":36,"x_max":247,"o":"m 247 0 l 247 92 l 138 92 l 138 407 l 213 407 l 213 494 l 138 494 l 138 760 l 242 760 l 242 851 l 36 851 l 36 0 l 247 0 m 179 903 l 179 1008 l 104 1008 l 104 903 l 179 903 "},"Ē":{"ha":257,"x_min":36,"x_max":247,"o":"m 247 0 l 247 92 l 138 92 l 138 407 l 213 407 l 213 494 l 138 494 l 138 760 l 242 760 l 242 851 l 36 851 l 36 0 l 247 0 m 229 938 l 229 1006 l 54 1006 l 54 938 l 229 938 "},"Ę":{"ha":257,"x_min":36,"x_max":290,"o":"m 193 0 l 193 0 q 160 -58 172 -26 q 149 -117 149 -89 l 149 -117 q 189 -197 149 -171 q 290 -204 229 -224 l 290 -124 l 290 -124 q 279 -129 290 -124 q 253 -135 268 -135 l 253 -135 q 228 -124 235 -135 q 222 -96 222 -114 l 222 -96 q 247 0 222 -46 l 247 92 l 138 92 l 138 407 l 213 407 l 213 494 l 138 494 l 138 760 l 242 760 l 242 851 l 36 851 l 36 0 l 193 0 "},"ę":{"ha":281,"x_min":24,"x_max":260,"o":"m 158 115 l 158 115 q 153 95 158 100 q 142 90 147 90 l 142 90 q 131 95 136 90 q 125 115 125 100 l 125 349 l 260 349 l 260 568 l 260 568 q 222 662 260 631 q 140 693 185 693 l 140 693 q 60 662 97 693 q 24 569 24 631 l 24 119 l 24 119 q 53 36 24 67 q 118 -1 82 6 l 118 -1 q 85 -103 85 -53 l 85 -103 q 125 -183 85 -157 q 226 -190 165 -210 l 226 -110 l 226 -110 q 215 -115 226 -110 q 189 -121 204 -121 l 189 -121 q 165 -110 171 -121 q 158 -82 158 -100 l 158 -82 q 178 1 158 -40 l 178 1 q 235 42 210 13 q 260 121 260 72 l 260 285 l 158 285 l 158 115 m 126 421 l 126 596 l 158 596 l 158 421 l 126 421 "},"ě":{"ha":281,"x_min":22,"x_max":260,"o":"m 158 115 l 158 115 q 153 95 158 100 q 142 90 147 90 l 142 90 q 131 95 136 90 q 125 115 125 100 l 125 349 l 260 349 l 260 568 l 260 568 q 222 662 260 631 q 140 693 185 693 l 140 693 q 60 662 97 693 q 24 569 24 631 l 24 119 l 24 119 q 60 27 24 58 q 140 -4 97 -4 l 140 -4 q 222 27 185 -4 q 260 121 260 58 l 260 285 l 158 285 l 158 115 m 126 421 l 126 596 l 158 596 l 158 421 l 126 421 m 101 750 l 174 750 l 253 869 l 182 869 l 136 815 l 92 869 l 22 869 l 101 750 "},"ĕ":{"ha":281,"x_min":24,"x_max":260,"o":"m 158 115 l 158 115 q 153 95 158 100 q 142 90 147 90 l 142 90 q 131 95 136 90 q 125 115 125 100 l 125 349 l 260 349 l 260 568 l 260 568 q 222 662 260 631 q 140 693 185 693 l 140 693 q 60 662 97 693 q 24 569 24 631 l 24 119 l 24 119 q 60 27 24 58 q 140 -4 97 -4 l 140 -4 q 222 27 185 -4 q 260 121 260 58 l 260 285 l 158 285 l 158 115 m 126 421 l 126 596 l 158 596 l 158 421 l 126 421 m 49 831 l 49 831 q 72 769 49 796 q 136 742 96 742 l 136 742 q 202 767 178 742 q 226 831 226 793 l 226 872 l 169 872 l 169 836 l 169 836 q 136 799 169 799 l 136 799 q 113 809 122 799 q 104 836 104 819 l 104 872 l 49 872 l 49 831 "},"ė":{"ha":281,"x_min":24,"x_max":260,"o":"m 158 115 l 158 115 q 153 95 158 100 q 142 90 147 90 l 142 90 q 131 95 136 90 q 125 115 125 100 l 125 349 l 260 349 l 260 568 l 260 568 q 222 662 260 631 q 140 693 185 693 l 140 693 q 60 662 97 693 q 24 569 24 631 l 24 119 l 24 119 q 60 27 24 58 q 140 -4 97 -4 l 140 -4 q 222 27 185 -4 q 260 121 260 58 l 260 285 l 158 285 l 158 115 m 126 421 l 126 596 l 158 596 l 158 421 l 126 421 m 175 739 l 175 844 l 100 844 l 100 739 l 175 739 "},"ē":{"ha":281,"x_min":24,"x_max":260,"o":"m 158 115 l 158 115 q 153 95 158 100 q 142 90 147 90 l 142 90 q 131 95 136 90 q 125 115 125 100 l 125 349 l 260 349 l 260 568 l 260 568 q 222 662 260 631 q 140 693 185 693 l 140 693 q 60 662 97 693 q 24 569 24 631 l 24 119 l 24 119 q 60 27 24 58 q 140 -4 97 -4 l 140 -4 q 222 27 185 -4 q 260 121 260 58 l 260 285 l 158 285 l 158 115 m 126 421 l 126 596 l 158 596 l 158 421 l 126 421 m 225 774 l 225 842 l 50 842 l 50 774 l 225 774 "},"Ě":{"ha":257,"x_min":26,"x_max":257,"o":"m 247 0 l 247 92 l 138 92 l 138 407 l 213 407 l 213 494 l 138 494 l 138 760 l 242 760 l 242 851 l 36 851 l 36 0 l 247 0 m 106 914 l 178 914 l 257 1033 l 186 1033 l 140 979 l 96 1033 l 26 1033 l 106 914 "},"Ĝ":{"ha":333,"x_min":32,"x_max":307,"o":"m 139 785 l 185 785 l 185 565 l 292 565 l 292 726 l 292 726 q 273 802 292 774 q 226 844 254 831 q 171 858 199 858 l 149 858 l 149 858 q 69 827 107 858 q 32 726 32 796 l 32 108 l 32 108 q 62 19 32 44 q 131 -7 92 -7 l 131 -7 q 173 6 157 -7 q 199 54 189 19 l 210 54 l 210 0 l 307 0 l 307 475 l 168 475 l 168 389 l 208 389 l 208 122 l 208 122 q 199 85 208 96 q 175 75 190 75 l 175 75 q 150 85 161 75 q 139 118 139 96 l 139 785 m 124 921 l 168 975 l 214 921 l 285 921 l 206 1040 l 133 1040 l 54 921 l 124 921 "},"Ğ":{"ha":333,"x_min":32,"x_max":307,"o":"m 139 785 l 185 785 l 185 565 l 292 565 l 292 726 l 292 726 q 273 802 292 774 q 226 844 254 831 q 171 858 199 858 l 149 858 l 149 858 q 69 827 107 858 q 32 726 32 796 l 32 108 l 32 108 q 62 19 32 44 q 131 -7 92 -7 l 131 -7 q 173 6 157 -7 q 199 54 189 19 l 210 54 l 210 0 l 307 0 l 307 475 l 168 475 l 168 389 l 208 389 l 208 122 l 208 122 q 199 85 208 96 q 175 75 190 75 l 175 75 q 150 85 161 75 q 139 118 139 96 l 139 785 m 79 1001 l 79 1001 q 103 940 79 967 q 167 913 126 913 l 167 913 q 233 938 208 913 q 257 1001 257 964 l 257 1043 l 200 1043 l 200 1007 l 200 1007 q 167 969 200 969 l 167 969 q 144 980 153 969 q 135 1007 135 990 l 135 1043 l 79 1043 l 79 1001 "},"Ġ":{"ha":333,"x_min":32,"x_max":307,"o":"m 139 785 l 185 785 l 185 565 l 292 565 l 292 726 l 292 726 q 273 802 292 774 q 226 844 254 831 q 171 858 199 858 l 149 858 l 149 858 q 69 827 107 858 q 32 726 32 796 l 32 108 l 32 108 q 62 19 32 44 q 131 -7 92 -7 l 131 -7 q 173 6 157 -7 q 199 54 189 19 l 210 54 l 210 0 l 307 0 l 307 475 l 168 475 l 168 389 l 208 389 l 208 122 l 208 122 q 199 85 208 96 q 175 75 190 75 l 175 75 q 150 85 161 75 q 139 118 139 96 l 139 785 m 206 910 l 206 1015 l 131 1015 l 131 910 l 206 910 "},"ĝ":{"ha":281,"x_min":22,"x_max":258,"o":"m 22 197 l 22 197 q 44 108 22 138 q 111 71 67 78 l 111 39 l 111 39 q 29 -46 29 28 l 29 -46 q 56 -111 29 -86 q 133 -136 82 -136 l 151 -136 l 151 -136 q 229 -111 204 -136 q 254 -47 254 -86 l 254 -47 q 233 12 254 -11 q 171 39 213 35 l 171 72 l 171 72 q 236 108 215 79 q 257 197 257 136 l 257 688 l 169 688 l 169 635 l 161 635 l 161 635 q 142 672 160 653 q 90 692 124 692 l 90 692 q 44 673 58 692 q 26 626 29 654 q 22 568 22 597 l 22 197 m 140 164 q 126 174 129 164 q 122 203 122 183 l 122 575 l 122 575 q 126 593 122 585 q 142 601 131 601 l 142 601 q 155 592 153 601 q 157 572 157 583 l 157 206 l 157 206 q 154 174 157 183 q 140 164 151 164 l 140 164 m 143 -68 q 124 -65 133 -68 q 114 -49 114 -61 l 114 -49 q 124 -32 114 -36 q 142 -28 133 -28 l 144 -28 l 144 -28 q 162 -32 153 -28 q 171 -49 171 -36 l 171 -49 q 162 -65 171 -61 q 143 -68 153 -68 l 143 -68 m 97 750 l 142 804 l 188 750 l 258 750 l 179 869 l 107 869 l 28 750 l 97 750 "},"ğ":{"ha":281,"x_min":22,"x_max":257,"o":"m 22 197 l 22 197 q 44 108 22 138 q 111 71 67 78 l 111 39 l 111 39 q 29 -46 29 28 l 29 -46 q 56 -111 29 -86 q 133 -136 82 -136 l 151 -136 l 151 -136 q 229 -111 204 -136 q 254 -47 254 -86 l 254 -47 q 233 12 254 -11 q 171 39 213 35 l 171 72 l 171 72 q 236 108 215 79 q 257 197 257 136 l 257 688 l 169 688 l 169 635 l 161 635 l 161 635 q 142 672 160 653 q 90 692 124 692 l 90 692 q 44 673 58 692 q 26 626 29 654 q 22 568 22 597 l 22 197 m 140 164 q 126 174 129 164 q 122 203 122 183 l 122 575 l 122 575 q 126 593 122 585 q 142 601 131 601 l 142 601 q 155 592 153 601 q 157 572 157 583 l 157 206 l 157 206 q 154 174 157 183 q 140 164 151 164 l 140 164 m 143 -68 q 124 -65 133 -68 q 114 -49 114 -61 l 114 -49 q 124 -32 114 -36 q 142 -28 133 -28 l 144 -28 l 144 -28 q 162 -32 153 -28 q 171 -49 171 -36 l 171 -49 q 162 -65 171 -61 q 143 -68 153 -68 l 143 -68 m 53 831 l 53 831 q 76 769 53 796 q 140 742 100 742 l 140 742 q 206 767 182 742 q 231 831 231 793 l 231 872 l 174 872 l 174 836 l 174 836 q 140 799 174 799 l 140 799 q 117 809 126 799 q 108 836 108 819 l 108 872 l 53 872 l 53 831 "},"ġ":{"ha":281,"x_min":22,"x_max":257,"o":"m 22 197 l 22 197 q 44 108 22 138 q 111 71 67 78 l 111 39 l 111 39 q 29 -46 29 28 l 29 -46 q 56 -111 29 -86 q 133 -136 82 -136 l 151 -136 l 151 -136 q 229 -111 204 -136 q 254 -47 254 -86 l 254 -47 q 233 12 254 -11 q 171 39 213 35 l 171 72 l 171 72 q 236 108 215 79 q 257 197 257 136 l 257 688 l 169 688 l 169 635 l 161 635 l 161 635 q 142 672 160 653 q 90 692 124 692 l 90 692 q 44 673 58 692 q 26 626 29 654 q 22 568 22 597 l 22 197 m 140 164 q 126 174 129 164 q 122 203 122 183 l 122 575 l 122 575 q 126 593 122 585 q 142 601 131 601 l 142 601 q 155 592 153 601 q 157 572 157 583 l 157 206 l 157 206 q 154 174 157 183 q 140 164 151 164 l 140 164 m 143 -68 q 124 -65 133 -68 q 114 -49 114 -61 l 114 -49 q 124 -32 114 -36 q 142 -28 133 -28 l 144 -28 l 144 -28 q 162 -32 153 -28 q 171 -49 171 -36 l 171 -49 q 162 -65 171 -61 q 143 -68 153 -68 l 143 -68 m 179 739 l 179 844 l 104 844 l 104 739 l 179 739 "},"ģ":{"ha":281,"x_min":22,"x_max":257,"o":"m 22 197 l 22 197 q 44 108 22 138 q 111 71 67 78 l 111 39 l 111 39 q 29 -46 29 28 l 29 -46 q 56 -111 29 -86 q 133 -136 82 -136 l 151 -136 l 151 -136 q 229 -111 204 -136 q 254 -47 254 -86 l 254 -47 q 233 12 254 -11 q 171 39 213 35 l 171 72 l 171 72 q 236 108 215 79 q 257 197 257 136 l 257 688 l 169 688 l 169 635 l 161 635 l 161 635 q 142 672 160 653 q 90 692 124 692 l 90 692 q 44 673 58 692 q 26 626 29 654 q 22 568 22 597 l 22 197 m 140 164 q 126 174 129 164 q 122 203 122 183 l 122 575 l 122 575 q 126 593 122 585 q 142 601 131 601 l 142 601 q 155 592 153 601 q 157 572 157 583 l 157 206 l 157 206 q 154 174 157 183 q 140 164 151 164 l 140 164 m 143 -68 q 124 -65 133 -68 q 114 -49 114 -61 l 114 -49 q 124 -32 114 -36 q 142 -28 133 -28 l 144 -28 l 144 -28 q 162 -32 153 -28 q 171 -49 171 -36 l 171 -49 q 162 -65 171 -61 q 143 -68 153 -68 l 143 -68 m 142 949 l 96 867 l 96 733 l 190 733 l 190 867 l 154 867 l 175 949 l 142 949 "},"Ĥ":{"ha":336,"x_min":36,"x_max":300,"o":"m 142 0 l 142 428 l 193 428 l 193 0 l 300 0 l 300 851 l 193 851 l 193 514 l 142 514 l 142 851 l 36 851 l 36 0 l 142 0 m 124 914 l 168 968 l 214 914 l 285 914 l 206 1033 l 133 1033 l 54 914 l 124 914 "},"ĥ":{"ha":290,"x_min":29,"x_max":372,"o":"m 129 0 l 129 567 l 129 567 q 133 590 129 578 q 147 601 136 601 l 147 601 q 161 590 158 601 q 164 569 164 579 l 164 0 l 264 0 l 264 568 l 264 568 q 259 626 264 597 q 238 673 254 654 q 190 692 222 692 l 190 692 q 147 672 157 692 q 135 635 136 653 l 126 635 l 126 851 l 29 851 l 29 0 l 129 0 m 211 789 l 256 843 l 301 789 l 372 789 l 293 908 l 221 908 l 142 789 l 211 789 "},"Ħ":{"ha":336,"x_min":25,"x_max":371,"o":"m 142 0 l 142 428 l 193 428 l 193 0 l 300 0 l 300 608 l 371 608 l 371 657 l 300 657 l 300 851 l 193 851 l 193 657 l 142 657 l 142 851 l 36 851 l 36 657 l 25 657 l 25 608 l 36 608 l 36 0 l 142 0 m 142 608 l 193 608 l 193 514 l 142 514 l 142 608 "},"ħ":{"ha":290,"x_min":-1,"x_max":264,"o":"m 129 0 l 129 567 l 129 567 q 133 590 129 578 q 147 601 136 601 l 147 601 q 161 590 158 601 q 164 569 164 579 l 164 0 l 264 0 l 264 568 l 264 568 q 259 626 264 597 q 238 673 254 654 q 190 692 222 692 l 190 692 q 147 672 157 692 q 135 635 136 653 l 126 635 l 126 764 l 194 764 l 194 814 l 126 814 l 126 851 l 29 851 l 29 814 l -1 814 l -1 764 l 29 764 l 29 0 l 129 0 "},"Ĩ":{"ha":175,"x_min":-22,"x_max":183,"o":"m 139 0 l 139 851 l 36 851 l 36 0 l 139 0 m 38 985 l 54 985 l 54 974 l 54 974 q 74 929 54 944 q 122 914 93 914 l 122 914 q 165 929 146 914 q 183 974 183 944 l 183 1039 l 128 1039 l 128 968 l 128 968 q 119 957 128 957 l 119 957 q 112 961 114 957 q 110 968 110 965 l 110 983 l 110 983 q 89 1028 110 1014 q 40 1043 68 1043 l 40 1043 q -2 1028 18 1043 q -22 983 -22 1014 l -22 918 l 38 918 l 38 985 "},"Ĭ":{"ha":175,"x_min":-3,"x_max":175,"o":"m 139 0 l 139 851 l 36 851 l 36 0 l 139 0 m -3 996 l -3 996 q 21 934 -3 961 q 85 907 44 907 l 85 907 q 151 933 126 907 q 175 996 175 958 l 175 1038 l 118 1038 l 118 1001 l 118 1001 q 85 964 118 964 l 85 964 q 62 974 71 964 q 53 1001 53 985 l 53 1038 l -3 1038 l -3 996 "},"İ":{"ha":175,"x_min":36,"x_max":139,"o":"m 139 0 l 139 851 l 36 851 l 36 0 l 139 0 m 124 904 l 124 1010 l 49 1010 l 49 904 l 124 904 "},"Ī":{"ha":175,"x_min":-1,"x_max":174,"o":"m 139 0 l 139 851 l 36 851 l 36 0 l 139 0 m 174 939 l 174 1007 l -1 1007 l -1 939 l 174 939 "},"Į":{"ha":175,"x_min":36,"x_max":182,"o":"m 85 0 l 85 0 q 52 -58 64 -26 q 40 -117 40 -89 l 40 -117 q 81 -197 40 -171 q 182 -204 121 -224 l 182 -124 l 182 -124 q 171 -129 182 -124 q 144 -135 160 -135 l 144 -135 q 120 -124 126 -135 q 114 -96 114 -114 l 114 -96 q 139 0 114 -46 l 139 851 l 36 851 l 36 0 l 85 0 "},"į":{"ha":151,"x_min":15,"x_max":157,"o":"m 26 0 l 60 0 l 60 0 q 27 -58 39 -26 q 15 -117 15 -89 l 15 -117 q 56 -197 15 -171 q 157 -204 96 -224 l 157 -124 l 157 -124 q 146 -129 157 -124 q 119 -135 135 -135 l 119 -135 q 95 -124 101 -135 q 89 -96 89 -114 l 89 -96 q 114 0 89 -46 l 128 0 l 128 688 l 26 688 l 26 0 m 115 739 l 115 844 l 40 844 l 40 739 l 115 739 "},"ĩ":{"ha":151,"x_min":-31,"x_max":175,"o":"m 26 0 l 128 0 l 128 688 l 26 688 l 26 0 m 29 819 l 46 819 l 46 808 l 46 808 q 65 764 46 779 q 114 749 85 749 l 114 749 q 156 764 138 749 q 175 808 175 779 l 175 874 l 119 874 l 119 803 l 119 803 q 111 792 119 792 l 111 792 q 103 796 106 792 q 101 803 101 800 l 101 818 l 101 818 q 81 863 101 849 q 32 878 60 878 l 32 878 q -10 863 10 878 q -31 818 -31 849 l -31 753 l 29 753 l 29 819 "},"ĭ":{"ha":151,"x_min":-11,"x_max":167,"o":"m 26 0 l 128 0 l 128 688 l 26 688 l 26 0 m -11 831 l -11 831 q 13 769 -11 796 q 76 742 36 742 l 76 742 q 142 767 118 742 q 167 831 167 793 l 167 872 l 110 872 l 110 836 l 110 836 q 76 799 110 799 l 76 799 q 53 809 63 799 q 44 836 44 819 l 44 872 l -11 872 l -11 831 "},"ī":{"ha":151,"x_min":-10,"x_max":165,"o":"m 26 0 l 128 0 l 128 688 l 26 688 l 26 0 m 165 774 l 165 842 l -10 842 l -10 774 l 165 774 "},"Ĵ":{"ha":301,"x_min":17,"x_max":332,"o":"m 124 408 l 17 408 l 17 122 l 17 122 q 49 31 17 69 q 143 -8 81 -8 l 143 -8 q 236 27 204 -8 q 268 122 268 63 l 268 851 l 161 851 l 161 121 l 161 121 q 159 88 161 103 q 144 72 157 72 l 144 72 q 124 121 124 72 l 124 408 m 171 915 l 215 969 l 261 915 l 332 915 l 253 1035 l 181 1035 l 101 915 l 171 915 "},"ĵ":{"ha":157,"x_min":-35,"x_max":196,"o":"m -18 -219 l 10 -219 l 10 -219 q 97 -197 67 -219 q 128 -97 128 -174 l 128 688 l 29 688 l 29 -118 l -18 -118 l -18 -219 m 35 750 l 79 804 l 125 750 l 196 750 l 117 869 l 44 869 l -35 750 l 35 750 "},"ķ":{"ha":328,"x_min":29,"x_max":328,"o":"m 129 0 l 129 406 l 150 406 l 221 0 l 328 0 l 260 389 l 260 389 q 236 431 256 411 q 181 449 217 450 l 181 463 l 181 463 q 234 485 217 460 q 267 556 251 511 l 313 689 l 203 689 l 149 513 l 129 513 l 129 907 l 29 907 l 29 0 l 129 0 m 169 -276 l 215 -194 l 215 -61 l 121 -61 l 121 -194 l 157 -194 l 136 -276 l 169 -276 "},"Ĺ":{"ha":253,"x_min":36,"x_max":247,"o":"m 247 0 l 247 94 l 140 94 l 140 851 l 36 851 l 36 0 l 247 0 m 203 1017 l 92 1017 l 61 897 l 124 897 l 203 1017 "},"Ŀ":{"ha":253,"x_min":36,"x_max":272,"o":"m 247 0 l 247 94 l 140 94 l 140 851 l 36 851 l 36 0 l 247 0 m 272 381 l 272 528 l 164 528 l 164 381 l 272 381 "},"ŀ":{"ha":257,"x_min":29,"x_max":254,"o":"m 129 0 l 129 851 l 29 851 l 29 0 l 129 0 m 254 408 l 254 556 l 146 556 l 146 408 l 254 408 "},"ľ":{"ha":290,"x_min":29,"x_max":290,"o":"m 129 0 l 129 851 l 29 851 l 29 0 l 129 0 m 242 649 l 290 731 l 290 851 l 190 851 l 190 731 l 228 731 l 207 649 l 242 649 "},"Ő":{"ha":326,"x_min":32,"x_max":339,"o":"m 294 728 l 294 728 q 257 828 294 797 q 178 860 219 860 l 149 860 l 149 860 q 69 828 107 860 q 32 728 32 797 l 32 122 l 32 122 q 69 22 32 53 q 149 -8 107 -8 l 178 -8 l 178 -8 q 257 22 219 -8 q 294 122 294 53 l 294 728 m 136 772 l 190 772 l 190 79 l 136 79 l 136 772 m 214 1042 l 117 1042 l 86 922 l 135 922 l 214 1042 m 339 1042 l 242 1042 l 183 922 l 232 922 l 339 1042 "},"ő":{"ha":289,"x_min":24,"x_max":315,"o":"m 24 119 l 24 119 q 61 25 24 58 q 144 -8 99 -8 l 144 -8 q 228 25 190 -8 q 265 121 265 58 l 265 568 l 265 568 q 228 662 265 631 q 144 693 190 693 l 144 693 q 61 662 99 693 q 24 569 24 631 l 24 119 m 125 596 l 164 596 l 164 117 l 164 117 q 158 98 164 103 q 146 93 153 93 l 146 93 q 132 98 139 93 q 125 117 125 103 l 125 596 m 190 869 l 93 869 l 63 750 l 111 750 l 190 869 m 315 869 l 218 869 l 160 750 l 208 750 l 315 869 "},"Ŕ":{"ha":322,"x_min":36,"x_max":292,"o":"m 36 851 l 36 0 l 139 0 l 139 418 l 147 418 l 147 418 q 185 357 185 418 l 185 0 l 292 0 l 292 376 l 292 376 q 218 456 292 456 l 215 456 l 215 469 l 215 469 q 292 564 292 469 l 292 733 l 292 733 q 260 821 292 790 q 175 851 229 851 l 36 851 m 139 493 l 139 771 l 185 771 l 185 556 l 185 556 q 147 493 185 493 l 139 493 m 274 1076 l 163 1076 l 132 957 l 194 957 l 274 1076 "},"ŕ":{"ha":239,"x_min":29,"x_max":235,"o":"m 131 0 l 131 611 l 213 611 l 213 688 l 213 688 q 163 680 185 688 q 139 646 140 672 l 131 646 l 131 688 l 29 688 l 29 0 l 131 0 m 235 857 l 124 857 l 93 738 l 156 738 l 235 857 "},"Ř":{"ha":322,"x_min":36,"x_max":292,"o":"m 36 851 l 36 0 l 139 0 l 139 418 l 147 418 l 147 418 q 185 357 185 418 l 185 0 l 292 0 l 292 376 l 292 376 q 218 456 292 456 l 215 456 l 215 469 l 215 469 q 292 564 292 469 l 292 733 l 292 733 q 260 821 292 790 q 175 851 229 851 l 36 851 m 139 493 l 139 771 l 185 771 l 185 556 l 185 556 q 147 493 185 493 l 139 493 m 124 969 l 196 969 l 275 1089 l 204 1089 l 158 1035 l 114 1089 l 44 1089 l 124 969 "},"ŗ":{"ha":239,"x_min":29,"x_max":213,"o":"m 131 0 l 131 611 l 213 611 l 213 688 l 213 688 q 163 680 185 688 q 139 646 140 672 l 131 646 l 131 688 l 29 688 l 29 0 l 131 0 "},"ř":{"ha":239,"x_min":-131,"x_max":213,"o":"m 131 0 l 131 611 l 213 611 l 213 688 l 213 688 q 163 680 185 688 q 139 646 140 672 l 131 646 l 131 688 l 29 688 l 29 0 l 131 0 m -51 750 l 21 750 l 100 869 l 29 869 l -17 815 l -61 869 l -131 869 l -51 750 "},"Ŝ":{"ha":303,"x_min":25,"x_max":281,"o":"m 131 324 l 25 324 l 25 114 l 25 114 q 54 27 25 63 q 156 -8 83 -8 l 156 -8 q 249 21 217 -8 q 281 114 281 50 l 281 260 l 281 260 q 265 341 281 307 q 228 403 250 375 q 185 458 207 431 q 147 520 163 486 q 132 601 132 554 l 132 776 l 171 776 l 171 525 l 274 525 l 274 735 l 274 735 q 243 821 274 783 q 147 858 213 858 l 147 858 q 58 826 92 858 q 25 735 25 794 l 25 590 l 25 590 q 40 507 25 542 q 78 444 56 472 q 122 390 100 417 q 158 328 143 363 q 174 247 174 294 l 174 107 l 174 107 q 170 81 174 93 q 153 68 167 68 l 153 68 q 135 81 139 68 q 131 107 131 93 l 131 324 m 113 969 l 157 1024 l 203 969 l 274 969 l 194 1089 l 122 1089 l 43 969 l 113 969 "},"Ś":{"ha":303,"x_min":25,"x_max":281,"o":"m 131 324 l 25 324 l 25 114 l 25 114 q 54 27 25 63 q 156 -8 83 -8 l 156 -8 q 249 21 217 -8 q 281 114 281 50 l 281 260 l 281 260 q 265 341 281 307 q 228 403 250 375 q 185 458 207 431 q 147 520 163 486 q 132 601 132 554 l 132 776 l 171 776 l 171 525 l 274 525 l 274 735 l 274 735 q 243 821 274 783 q 147 858 213 858 l 147 858 q 58 826 92 858 q 25 735 25 794 l 25 590 l 25 590 q 40 507 25 542 q 78 444 56 472 q 122 390 100 417 q 158 328 143 363 q 174 247 174 294 l 174 107 l 174 107 q 170 81 174 93 q 153 68 167 68 l 153 68 q 135 81 139 68 q 131 107 131 93 l 131 324 m 271 1076 l 160 1076 l 129 957 l 192 957 l 271 1076 "},"Ş":{"ha":303,"x_min":25,"x_max":281,"o":"m 131 324 l 25 324 l 25 114 l 25 114 q 50 32 25 67 q 138 -8 75 -3 l 128 -53 l 153 -57 l 153 -57 q 174 -51 163 -51 l 174 -51 q 196 -65 194 -51 l 196 -65 q 180 -87 199 -83 q 142 -90 161 -90 l 117 -90 l 117 -143 l 156 -143 l 156 -143 q 222 -119 200 -143 q 235 -62 243 -94 l 235 -62 q 210 -29 229 -39 q 163 -26 190 -19 l 167 -8 l 167 -8 q 252 24 224 -6 q 281 114 281 54 l 281 260 l 281 260 q 265 341 281 307 q 228 403 250 375 q 185 458 207 431 q 147 520 163 486 q 132 601 132 554 l 132 776 l 171 776 l 171 525 l 274 525 l 274 735 l 274 735 q 243 821 274 783 q 147 858 213 858 l 147 858 q 58 826 92 858 q 25 735 25 794 l 25 590 l 25 590 q 40 507 25 542 q 78 444 56 472 q 122 390 100 417 q 158 328 143 363 q 174 247 174 294 l 174 107 l 174 107 q 170 81 174 93 q 153 68 167 68 l 153 68 q 135 81 139 68 q 131 107 131 93 l 131 324 "},"Ű":{"ha":322,"x_min":33,"x_max":332,"o":"m 140 851 l 33 851 l 33 135 l 33 135 q 63 29 33 67 q 161 -8 92 -8 l 161 -8 q 260 29 231 -8 q 289 135 289 67 l 289 851 l 183 851 l 183 128 l 183 128 q 180 89 183 101 q 163 76 176 76 l 163 76 q 144 89 149 76 q 140 128 140 101 l 140 851 m 207 1035 l 110 1035 l 79 915 l 128 915 l 207 1035 m 332 1035 l 235 1035 l 176 915 l 225 915 l 332 1035 "},"ų":{"ha":299,"x_min":26,"x_max":297,"o":"m 169 688 l 169 121 l 169 121 q 166 98 169 110 q 149 86 163 86 l 149 86 q 131 97 135 86 q 126 118 126 108 l 126 688 l 26 688 l 26 119 l 26 119 q 32 63 26 92 q 55 15 38 33 q 106 -4 72 -4 l 106 -4 q 152 15 142 -4 q 164 53 163 35 l 172 53 l 172 0 l 200 0 l 200 0 q 167 -58 179 -26 q 156 -117 156 -89 l 156 -117 q 196 -197 156 -171 q 297 -204 236 -224 l 297 -124 l 297 -124 q 286 -129 297 -124 q 260 -135 275 -135 l 260 -135 q 235 -124 242 -135 q 229 -96 229 -114 l 229 -96 q 254 0 229 -46 l 269 0 l 269 688 l 169 688 "},"ű":{"ha":299,"x_min":26,"x_max":314,"o":"m 169 688 l 169 121 l 169 121 q 166 98 169 110 q 149 86 163 86 l 149 86 q 131 97 135 86 q 126 118 126 108 l 126 688 l 26 688 l 26 119 l 26 119 q 32 63 26 92 q 55 15 38 33 q 106 -4 72 -4 l 106 -4 q 152 15 142 -4 q 164 53 163 35 l 172 53 l 172 0 l 269 0 l 269 688 l 169 688 m 189 869 l 92 869 l 61 750 l 110 750 l 189 869 m 314 869 l 217 869 l 158 750 l 207 750 l 314 869 "},"Ŵ":{"ha":474,"x_min":10,"x_max":464,"o":"m 236 543 l 240 543 l 306 0 l 396 0 l 464 850 l 367 850 l 329 368 l 325 368 l 268 850 l 203 850 l 154 368 l 150 368 l 113 850 l 10 850 l 78 0 l 175 0 l 236 543 m 192 914 l 236 968 l 282 914 l 353 914 l 274 1033 l 201 1033 l 122 914 l 192 914 "},"ŵ":{"ha":444,"x_min":4,"x_max":442,"o":"m 164 0 l 221 403 l 225 403 l 282 0 l 376 0 l 442 688 l 346 688 l 314 228 l 308 228 l 261 688 l 185 688 l 138 228 l 132 228 l 100 688 l 4 688 l 69 0 l 164 0 m 172 750 l 217 804 l 263 750 l 333 750 l 254 869 l 182 869 l 103 750 l 172 750 "},"Ŷ":{"ha":315,"x_min":6,"x_max":310,"o":"m 201 0 l 201 317 l 310 851 l 207 851 l 156 522 l 151 522 l 108 851 l 6 851 l 103 317 l 103 0 l 201 0 m 110 914 l 154 968 l 200 914 l 271 914 l 192 1033 l 119 1033 l 40 914 l 110 914 "},"ŷ":{"ha":282,"x_min":8,"x_max":279,"o":"m 96 -225 l 96 -225 q 155 -208 135 -225 q 184 -167 175 -190 q 194 -125 193 -143 l 279 688 l 188 688 l 136 114 l 132 114 l 99 688 l 8 688 l 44 107 l 44 107 q 69 24 49 47 q 108 0 90 0 l 125 0 l 111 -133 l 69 -133 l 69 -225 l 96 -225 m 92 750 l 136 804 l 182 750 l 253 750 l 174 869 l 101 869 l 22 750 l 92 750 "},"Ÿ":{"ha":315,"x_min":6,"x_max":310,"o":"m 201 0 l 201 317 l 310 851 l 207 851 l 156 522 l 151 522 l 108 851 l 6 851 l 103 317 l 103 0 l 201 0 m 138 929 l 138 1036 l 71 1036 l 71 929 l 138 929 m 236 929 l 236 1036 l 169 1036 l 169 929 l 236 929 "},"Ź":{"ha":282,"x_min":10,"x_max":274,"o":"m 274 0 l 274 88 l 117 88 l 261 767 l 261 851 l 35 851 l 35 764 l 153 764 l 10 85 l 10 0 l 274 0 m 256 1021 l 144 1021 l 114 901 l 176 901 l 256 1021 "},"Ž":{"ha":282,"x_min":10,"x_max":274,"o":"m 274 0 l 274 88 l 117 88 l 261 767 l 261 851 l 35 851 l 35 764 l 153 764 l 10 85 l 10 0 l 274 0 m 106 914 l 178 914 l 257 1033 l 186 1033 l 140 979 l 96 1033 l 26 1033 l 106 914 "},"Ż":{"ha":282,"x_min":10,"x_max":274,"o":"m 274 0 l 274 88 l 117 88 l 261 767 l 261 851 l 35 851 l 35 764 l 153 764 l 10 85 l 10 0 l 274 0 m 179 903 l 179 1008 l 104 1008 l 104 903 l 179 903 "},"ź":{"ha":240,"x_min":4,"x_max":233,"o":"m 233 0 l 233 83 l 103 83 l 231 600 l 231 688 l 19 688 l 19 604 l 133 604 l 4 88 l 4 0 l 233 0 m 233 857 l 122 857 l 92 738 l 154 738 l 233 857 "},"ž":{"ha":240,"x_min":4,"x_max":235,"o":"m 233 0 l 233 83 l 103 83 l 231 600 l 231 688 l 19 688 l 19 604 l 133 604 l 4 88 l 4 0 l 233 0 m 83 750 l 156 750 l 235 869 l 164 869 l 118 815 l 74 869 l 4 869 l 83 750 "},"ż":{"ha":240,"x_min":4,"x_max":233,"o":"m 233 0 l 233 83 l 103 83 l 231 600 l 231 688 l 19 688 l 19 604 l 133 604 l 4 88 l 4 0 l 233 0 m 157 739 l 157 844 l 82 844 l 82 739 l 157 739 "},"Š":{"ha":303,"x_min":25,"x_max":281,"o":"m 131 324 l 25 324 l 25 114 l 25 114 q 54 27 25 63 q 156 -8 83 -8 l 156 -8 q 249 21 217 -8 q 281 114 281 50 l 281 260 l 281 260 q 265 341 281 307 q 228 403 250 375 q 185 458 207 431 q 147 520 163 486 q 132 601 132 554 l 132 776 l 171 776 l 171 525 l 274 525 l 274 735 l 274 735 q 243 821 274 783 q 147 858 213 858 l 147 858 q 58 826 92 858 q 25 735 25 794 l 25 590 l 25 590 q 40 507 25 542 q 78 444 56 472 q 122 390 100 417 q 158 328 143 363 q 174 247 174 294 l 174 107 l 174 107 q 170 81 174 93 q 153 68 167 68 l 153 68 q 135 81 139 68 q 131 107 131 93 l 131 324 m 121 969 l 193 969 l 272 1089 l 201 1089 l 156 1035 l 111 1089 l 42 1089 l 121 969 "},"š":{"ha":269,"x_min":17,"x_max":253,"o":"m 151 83 l 114 83 l 114 285 l 17 285 l 17 121 l 17 121 q 54 25 17 58 q 135 -8 92 -8 l 135 -8 q 215 24 179 -8 q 253 118 251 57 l 253 201 l 253 201 q 233 293 253 256 q 187 362 213 331 q 141 427 161 393 q 121 508 121 461 l 121 613 l 156 613 l 156 418 l 253 418 l 253 568 l 253 568 q 217 662 253 631 q 136 693 181 693 l 136 693 q 56 662 93 693 q 19 568 19 631 l 19 485 l 19 485 q 40 396 19 435 q 85 324 60 357 q 131 258 111 292 q 151 183 151 225 l 151 83 m 99 750 l 171 750 l 250 869 l 179 869 l 133 815 l 89 869 l 19 869 l 99 750 "},"Ţ":{"ha":272,"x_min":6,"x_max":267,"o":"m 122 0 l 111 -53 l 136 -57 l 136 -57 q 157 -51 146 -51 l 157 -51 q 179 -65 178 -51 l 179 -65 q 163 -87 182 -83 q 125 -90 144 -90 l 100 -90 l 100 -143 l 139 -143 l 139 -143 q 205 -119 183 -143 q 218 -62 226 -94 l 218 -62 q 193 -29 213 -39 q 146 -26 174 -19 l 153 0 l 190 0 l 190 761 l 267 761 l 267 851 l 6 851 l 6 761 l 83 761 l 83 0 l 122 0 "},"Ť":{"ha":272,"x_min":6,"x_max":267,"o":"m 190 0 l 190 761 l 267 761 l 267 851 l 6 851 l 6 761 l 83 761 l 83 0 l 190 0 m 100 915 l 172 915 l 251 1035 l 181 1035 l 135 981 l 90 1035 l 21 1035 l 100 915 "},"ť":{"ha":186,"x_min":-1,"x_max":299,"o":"m 38 119 l 38 119 q 68 20 38 43 q 156 -3 99 -3 l 183 -3 l 183 72 l 139 72 l 139 611 l 183 611 l 183 688 l 138 688 l 138 851 l 38 851 l 38 688 l -1 688 l -1 611 l 38 611 l 38 119 m 250 703 l 299 785 l 299 906 l 199 906 l 199 785 l 236 785 l 215 703 l 250 703 "},"ŧ":{"ha":194,"x_min":1,"x_max":188,"o":"m 40 458 l 40 119 l 40 119 q 71 20 40 43 q 158 -3 101 -3 l 186 -3 l 186 72 l 142 72 l 142 458 l 188 458 l 188 507 l 142 507 l 142 611 l 186 611 l 186 688 l 140 688 l 140 851 l 40 851 l 40 688 l 1 688 l 1 611 l 40 611 l 40 507 l 13 507 l 13 458 l 40 458 "},"Ŧ":{"ha":272,"x_min":6,"x_max":267,"o":"m 190 0 l 190 542 l 243 542 l 243 594 l 190 594 l 190 761 l 267 761 l 267 851 l 6 851 l 6 761 l 83 761 l 83 594 l 31 594 l 31 542 l 83 542 l 83 0 l 190 0 "},"ţ":{"ha":186,"x_min":-1,"x_max":221,"o":"m 38 119 l 38 119 q 58 31 38 57 q 117 0 79 6 l 106 -53 l 131 -57 l 131 -57 q 151 -51 140 -51 l 151 -51 q 174 -65 172 -51 l 174 -65 q 158 -87 176 -83 q 119 -90 139 -90 l 94 -90 l 94 -143 l 133 -143 l 133 -143 q 199 -119 178 -143 q 213 -62 221 -94 l 213 -62 q 188 -29 207 -39 q 140 -26 168 -19 l 146 -3 l 156 -3 l 183 -3 l 183 72 l 139 72 l 139 611 l 183 611 l 183 688 l 138 688 l 138 851 l 38 851 l 38 688 l -1 688 l -1 611 l 38 611 l 38 119 "},"Ũ":{"ha":322,"x_min":33,"x_max":289,"o":"m 140 851 l 33 851 l 33 135 l 33 135 q 63 29 33 67 q 161 -8 92 -8 l 161 -8 q 260 29 231 -8 q 289 135 289 67 l 289 851 l 183 851 l 183 128 l 183 128 q 180 89 183 101 q 163 76 176 76 l 163 76 q 144 89 149 76 q 140 128 140 101 l 140 851 m 111 985 l 128 985 l 128 974 l 128 974 q 147 929 128 944 q 196 914 167 914 l 196 914 q 238 929 219 914 q 257 974 257 944 l 257 1039 l 201 1039 l 201 968 l 201 968 q 193 957 201 957 l 193 957 q 185 961 188 957 q 183 968 183 965 l 183 983 l 183 983 q 163 1028 183 1014 q 114 1043 142 1043 l 114 1043 q 72 1028 92 1043 q 51 983 51 1014 l 51 918 l 111 918 l 111 985 "},"Ů":{"ha":322,"x_min":33,"x_max":289,"o":"m 140 851 l 33 851 l 33 135 l 33 135 q 63 29 33 67 q 161 -8 92 -8 l 161 -8 q 260 29 231 -8 q 289 135 289 67 l 289 851 l 183 851 l 183 128 l 183 128 q 180 89 183 101 q 163 76 176 76 l 163 76 q 144 89 149 76 q 140 128 140 101 l 140 851 m 76 975 q 101 917 76 942 q 158 893 126 893 l 158 893 q 219 918 194 893 q 243 975 243 943 l 243 975 q 217 1035 243 1011 q 157 1060 192 1060 l 157 1060 q 101 1035 125 1060 q 76 975 76 1010 l 76 975 m 128 976 q 160 1010 128 1010 l 160 1010 q 184 1001 175 1010 q 193 976 193 992 l 193 976 q 160 944 193 944 l 160 944 q 128 976 128 944 l 128 976 "},"Ŭ":{"ha":322,"x_min":33,"x_max":289,"o":"m 140 851 l 33 851 l 33 135 l 33 135 q 63 29 33 67 q 161 -8 92 -8 l 161 -8 q 260 29 231 -8 q 289 135 289 67 l 289 851 l 183 851 l 183 128 l 183 128 q 180 89 183 101 q 163 76 176 76 l 163 76 q 144 89 149 76 q 140 128 140 101 l 140 851 m 71 996 l 71 996 q 94 934 71 961 q 158 907 118 907 l 158 907 q 224 933 200 907 q 249 996 249 958 l 249 1038 l 192 1038 l 192 1001 l 192 1001 q 158 964 192 964 l 158 964 q 135 974 144 964 q 126 1001 126 985 l 126 1038 l 71 1038 l 71 996 "},"Ū":{"ha":322,"x_min":33,"x_max":289,"o":"m 140 851 l 33 851 l 33 135 l 33 135 q 63 29 33 67 q 161 -8 92 -8 l 161 -8 q 260 29 231 -8 q 289 135 289 67 l 289 851 l 183 851 l 183 128 l 183 128 q 180 89 183 101 q 163 76 176 76 l 163 76 q 144 89 149 76 q 140 128 140 101 l 140 851 m 247 939 l 247 1007 l 72 1007 l 72 939 l 247 939 "},"ũ":{"ha":299,"x_min":26,"x_max":269,"o":"m 169 688 l 169 121 l 169 121 q 166 98 169 110 q 149 86 163 86 l 149 86 q 131 97 135 86 q 126 118 126 108 l 126 688 l 26 688 l 26 119 l 26 119 q 32 63 26 92 q 55 15 38 33 q 106 -4 72 -4 l 106 -4 q 152 15 142 -4 q 164 53 163 35 l 172 53 l 172 0 l 269 0 l 269 688 l 169 688 m 93 819 l 110 819 l 110 808 l 110 808 q 129 764 110 779 q 178 749 149 749 l 178 749 q 220 764 201 749 q 239 808 239 779 l 239 874 l 183 874 l 183 803 l 183 803 q 175 792 183 792 l 175 792 q 167 796 169 792 q 165 803 165 800 l 165 818 l 165 818 q 144 863 165 849 q 96 878 124 878 l 96 878 q 53 863 74 878 q 33 818 33 849 l 33 753 l 93 753 l 93 819 "},"ů":{"ha":299,"x_min":26,"x_max":269,"o":"m 169 688 l 169 121 l 169 121 q 166 98 169 110 q 149 86 163 86 l 149 86 q 131 97 135 86 q 126 118 126 108 l 126 688 l 26 688 l 26 119 l 26 119 q 32 63 26 92 q 55 15 38 33 q 106 -4 72 -4 l 106 -4 q 152 15 142 -4 q 164 53 163 35 l 172 53 l 172 0 l 269 0 l 269 688 l 169 688 m 58 810 q 83 752 58 776 q 140 728 108 728 l 140 728 q 201 753 176 728 q 225 810 225 778 l 225 810 q 199 870 225 846 q 139 894 174 894 l 139 894 q 83 869 107 894 q 58 810 58 844 l 58 810 m 110 811 q 142 844 110 844 l 142 844 q 166 835 157 844 q 175 811 175 826 l 175 811 q 142 779 175 779 l 142 779 q 110 811 110 779 l 110 811 "},"ŭ":{"ha":299,"x_min":26,"x_max":269,"o":"m 169 688 l 169 121 l 169 121 q 166 98 169 110 q 149 86 163 86 l 149 86 q 131 97 135 86 q 126 118 126 108 l 126 688 l 26 688 l 26 119 l 26 119 q 32 63 26 92 q 55 15 38 33 q 106 -4 72 -4 l 106 -4 q 152 15 142 -4 q 164 53 163 35 l 172 53 l 172 0 l 269 0 l 269 688 l 169 688 m 53 831 l 53 831 q 76 769 53 796 q 140 742 100 742 l 140 742 q 206 767 182 742 q 231 831 231 793 l 231 872 l 174 872 l 174 836 l 174 836 q 140 799 174 799 l 140 799 q 117 809 126 799 q 108 836 108 819 l 108 872 l 53 872 l 53 831 "},"ū":{"ha":299,"x_min":26,"x_max":269,"o":"m 169 688 l 169 121 l 169 121 q 166 98 169 110 q 149 86 163 86 l 149 86 q 131 97 135 86 q 126 118 126 108 l 126 688 l 26 688 l 26 119 l 26 119 q 32 63 26 92 q 55 15 38 33 q 106 -4 72 -4 l 106 -4 q 152 15 142 -4 q 164 53 163 35 l 172 53 l 172 0 l 269 0 l 269 688 l 169 688 m 229 774 l 229 842 l 54 842 l 54 774 l 229 774 "},"Ń":{"ha":400,"x_min":36,"x_max":364,"o":"m 138 0 l 138 564 l 142 564 l 250 0 l 364 0 l 364 850 l 261 850 l 261 299 l 258 299 l 156 850 l 36 850 l 36 0 l 138 0 m 311 1021 l 200 1021 l 169 901 l 232 901 l 311 1021 "},"Ň":{"ha":400,"x_min":36,"x_max":364,"o":"m 138 0 l 138 564 l 142 564 l 250 0 l 364 0 l 364 850 l 261 850 l 261 299 l 258 299 l 156 850 l 36 850 l 36 0 l 138 0 m 161 914 l 233 914 l 313 1033 l 242 1033 l 196 979 l 151 1033 l 82 1033 l 161 914 "},"ņ":{"ha":299,"x_min":29,"x_max":272,"o":"m 129 0 l 129 567 l 129 567 q 133 590 129 578 q 150 601 136 601 l 150 601 q 168 590 164 601 q 172 569 172 579 l 172 0 l 272 0 l 272 568 l 272 568 q 267 626 272 597 q 244 673 261 654 q 193 692 228 692 l 193 692 q 147 672 158 692 q 135 635 136 653 l 126 635 l 126 688 l 29 688 l 29 0 l 129 0 "},"ń":{"ha":299,"x_min":29,"x_max":272,"o":"m 129 0 l 129 567 l 129 567 q 133 590 129 578 q 150 601 136 601 l 150 601 q 168 590 164 601 q 172 569 172 579 l 172 0 l 272 0 l 272 568 l 272 568 q 267 626 272 597 q 244 673 261 654 q 193 692 228 692 l 193 692 q 147 672 158 692 q 135 635 136 653 l 126 635 l 126 688 l 29 688 l 29 0 l 129 0 m 257 857 l 146 857 l 115 738 l 178 738 l 257 857 "},"ň":{"ha":299,"x_min":28,"x_max":272,"o":"m 129 0 l 129 567 l 129 567 q 133 590 129 578 q 150 601 136 601 l 150 601 q 168 590 164 601 q 172 569 172 579 l 172 0 l 272 0 l 272 568 l 272 568 q 267 626 272 597 q 244 673 261 654 q 193 692 228 692 l 193 692 q 147 672 158 692 q 135 635 136 653 l 126 635 l 126 688 l 29 688 l 29 0 l 129 0 m 107 750 l 179 750 l 258 869 l 188 869 l 142 815 l 97 869 l 28 869 l 107 750 "},"Ŋ":{"ha":403,"x_min":36,"x_max":368,"o":"m 138 0 l 138 564 l 142 564 l 250 0 l 268 0 l 268 -62 l 236 -62 l 236 -146 l 264 -146 l 264 -146 q 344 -110 321 -146 q 368 0 368 -75 l 364 3 l 364 850 l 261 850 l 261 299 l 258 299 l 156 850 l 36 850 l 36 0 l 138 0 "},"ŋ":{"ha":292,"x_min":29,"x_max":264,"o":"m 160 -146 l 160 -146 q 240 -110 217 -146 q 264 0 264 -75 l 264 568 l 264 568 q 259 626 264 597 q 240 673 254 654 q 194 692 225 692 l 194 692 q 147 672 158 692 q 135 635 136 653 l 126 635 l 126 688 l 29 688 l 29 0 l 129 0 l 129 567 l 129 567 q 133 590 129 578 q 147 601 136 601 l 147 601 q 161 590 158 601 q 164 569 164 579 l 164 -62 l 132 -62 l 132 -146 l 160 -146 "},"Ŏ":{"ha":326,"x_min":32,"x_max":294,"o":"m 294 728 l 294 728 q 257 828 294 797 q 178 860 219 860 l 149 860 l 149 860 q 69 828 107 860 q 32 728 32 797 l 32 122 l 32 122 q 69 22 32 53 q 149 -8 107 -8 l 178 -8 l 178 -8 q 257 22 219 -8 q 294 122 294 53 l 294 728 m 136 772 l 190 772 l 190 79 l 136 79 l 136 772 m 78 1003 l 78 1003 q 101 941 78 968 q 165 914 125 914 l 165 914 q 231 940 207 914 q 256 1003 256 965 l 256 1044 l 199 1044 l 199 1008 l 199 1008 q 165 971 199 971 l 165 971 q 142 981 151 971 q 133 1008 133 992 l 133 1044 l 78 1044 l 78 1003 "},"Ō":{"ha":326,"x_min":32,"x_max":294,"o":"m 294 728 l 294 728 q 257 828 294 797 q 178 860 219 860 l 149 860 l 149 860 q 69 828 107 860 q 32 728 32 797 l 32 122 l 32 122 q 69 22 32 53 q 149 -8 107 -8 l 178 -8 l 178 -8 q 257 22 219 -8 q 294 122 294 53 l 294 728 m 136 772 l 190 772 l 190 79 l 136 79 l 136 772 m 254 946 l 254 1014 l 79 1014 l 79 946 l 254 946 "},"ŏ":{"ha":289,"x_min":24,"x_max":265,"o":"m 24 119 l 24 119 q 61 25 24 58 q 144 -8 99 -8 l 144 -8 q 228 25 190 -8 q 265 121 265 58 l 265 568 l 265 568 q 228 662 265 631 q 144 693 190 693 l 144 693 q 61 662 99 693 q 24 569 24 631 l 24 119 m 125 596 l 164 596 l 164 117 l 164 117 q 158 98 164 103 q 146 93 153 93 l 146 93 q 132 98 139 93 q 125 117 125 103 l 125 596 m 54 831 l 54 831 q 78 769 54 796 q 142 742 101 742 l 142 742 q 208 767 183 742 q 232 831 232 793 l 232 872 l 175 872 l 175 836 l 175 836 q 142 799 175 799 l 142 799 q 119 809 128 799 q 110 836 110 819 l 110 872 l 54 872 l 54 831 "},"ō":{"ha":289,"x_min":24,"x_max":265,"o":"m 24 119 l 24 119 q 61 25 24 58 q 144 -8 99 -8 l 144 -8 q 228 25 190 -8 q 265 121 265 58 l 265 568 l 265 568 q 228 662 265 631 q 144 693 190 693 l 144 693 q 61 662 99 693 q 24 569 24 631 l 24 119 m 125 596 l 164 596 l 164 117 l 164 117 q 158 98 164 103 q 146 93 153 93 l 146 93 q 132 98 139 93 q 125 117 125 103 l 125 596 m 231 774 l 231 842 l 56 842 l 56 774 l 231 774 "},"ŉ":{"ha":351,"x_min":0,"x_max":325,"o":"m 49 636 l 94 718 l 94 851 l 0 851 l 0 718 l 36 718 l 15 636 l 49 636 m 182 0 l 182 567 l 182 567 q 185 590 182 578 q 203 601 189 601 l 203 601 q 221 590 217 601 q 225 569 225 579 l 225 0 l 325 0 l 325 568 l 325 568 q 319 626 325 597 q 297 673 314 654 q 246 692 281 692 l 246 692 q 200 672 211 692 q 188 635 189 653 l 179 635 l 179 688 l 82 688 l 82 0 l 182 0 "},"Ĳ":{"ha":476,"x_min":36,"x_max":443,"o":"m 139 0 l 139 851 l 36 851 l 36 0 l 139 0 m 299 408 l 192 408 l 192 122 l 192 122 q 224 31 192 69 q 318 -8 256 -8 l 318 -8 q 411 27 379 -8 q 443 122 443 63 l 443 851 l 336 851 l 336 121 l 336 121 q 334 88 336 103 q 319 72 332 72 l 319 72 q 299 121 299 72 l 299 408 "},"ĸ":{"ha":363,"x_min":29,"x_max":365,"o":"m 131 0 l 131 282 l 140 282 l 253 0 l 360 0 l 242 299 l 242 299 q 219 330 236 317 q 150 343 201 343 l 150 351 l 150 351 q 219 376 199 351 q 250 422 240 400 l 365 688 l 257 688 l 138 410 l 131 410 l 131 688 l 29 688 l 29 0 l 131 0 "},"Ð":{"ha":322,"x_min":-4,"x_max":292,"o":"m 292 722 l 292 722 q 254 821 292 792 q 175 850 217 850 l 36 850 l 36 508 l -4 508 l -4 438 l 36 438 l 36 0 l 175 0 l 175 0 q 254 28 217 0 q 292 126 292 57 l 292 722 m 142 67 l 142 438 l 164 438 l 164 508 l 142 508 l 142 783 l 185 783 l 185 111 l 185 111 q 175 76 185 85 q 154 67 165 67 l 142 67 "},"Ľ":{"ha":253,"x_min":36,"x_max":258,"o":"m 247 0 l 247 94 l 140 94 l 140 851 l 36 851 l 36 0 l 247 0 m 214 649 l 258 731 l 258 851 l 164 851 l 164 731 l 200 731 l 179 649 l 214 649 "},"Ų":{"ha":322,"x_min":33,"x_max":289,"o":"m 140 851 l 33 851 l 33 135 l 33 135 q 57 36 33 72 q 136 -7 81 0 l 136 -7 q 106 -103 106 -56 l 106 -103 q 146 -183 106 -157 q 247 -190 186 -210 l 247 -110 l 247 -110 q 236 -115 247 -110 q 210 -121 225 -121 l 210 -121 q 185 -110 192 -121 q 179 -82 179 -100 l 179 -82 q 194 -6 179 -44 l 194 -6 q 267 39 244 3 q 289 135 289 75 l 289 851 l 183 851 l 183 128 l 183 128 q 180 89 183 101 q 163 76 176 76 l 163 76 q 144 89 149 76 q 140 128 140 101 l 140 851 "},"ð":{"ha":300,"x_min":25,"x_max":326,"o":"m 106 -4 q 157 15 142 -4 q 174 53 172 35 l 182 53 l 182 0 l 271 0 l 271 760 l 326 760 l 326 811 l 271 811 l 271 851 l 174 851 l 174 811 l 122 811 l 122 760 l 174 760 l 174 638 l 165 638 l 165 638 q 149 675 164 656 q 100 694 133 694 l 100 694 q 53 676 69 694 q 31 628 36 657 q 25 571 25 600 l 25 119 l 25 119 q 31 63 25 92 q 55 15 38 33 q 106 -4 72 -4 l 106 -4 m 153 86 q 138 97 142 86 q 133 122 133 107 l 133 568 l 133 568 q 136 594 133 583 q 151 604 139 604 l 151 604 q 171 568 171 604 l 171 122 l 171 122 q 167 97 171 107 q 153 86 164 86 l 153 86 "},"í":{"ha":151,"x_min":26,"x_max":192,"o":"m 26 0 l 128 0 l 128 688 l 26 688 l 26 0 m 192 857 l 81 857 l 50 738 l 113 738 l 192 857 "},"ś":{"ha":269,"x_min":17,"x_max":253,"o":"m 151 83 l 114 83 l 114 285 l 17 285 l 17 121 l 17 121 q 54 25 17 58 q 135 -8 92 -8 l 135 -8 q 215 24 179 -8 q 253 118 251 57 l 253 201 l 253 201 q 233 293 253 256 q 187 362 213 331 q 141 427 161 393 q 121 508 121 461 l 121 613 l 156 613 l 156 418 l 253 418 l 253 568 l 253 568 q 217 662 253 631 q 136 693 181 693 l 136 693 q 56 662 93 693 q 19 568 19 631 l 19 485 l 19 485 q 40 396 19 435 q 85 324 60 357 q 131 258 111 292 q 151 183 151 225 l 151 83 m 249 857 l 138 857 l 107 738 l 169 738 l 249 857 "},"ŝ":{"ha":269,"x_min":17,"x_max":253,"o":"m 151 83 l 114 83 l 114 285 l 17 285 l 17 121 l 17 121 q 54 25 17 58 q 135 -8 92 -8 l 135 -8 q 215 24 179 -8 q 253 118 251 57 l 253 201 l 253 201 q 233 293 253 256 q 187 362 213 331 q 141 427 161 393 q 121 508 121 461 l 121 613 l 156 613 l 156 418 l 253 418 l 253 568 l 253 568 q 217 662 253 631 q 136 693 181 693 l 136 693 q 56 662 93 693 q 19 568 19 631 l 19 485 l 19 485 q 40 396 19 435 q 85 324 60 357 q 131 258 111 292 q 151 183 151 225 l 151 83 m 90 750 l 135 804 l 181 750 l 251 750 l 172 869 l 100 869 l 21 750 l 90 750 "},"ş":{"ha":269,"x_min":17,"x_max":253,"o":"m 151 83 l 114 83 l 114 285 l 17 285 l 17 121 l 17 121 q 49 31 17 64 q 119 -7 81 -1 l 110 -53 l 135 -57 l 135 -57 q 156 -51 144 -51 l 156 -51 q 178 -65 176 -51 l 178 -65 q 162 -87 181 -83 q 124 -90 143 -90 l 99 -90 l 99 -143 l 138 -143 l 138 -143 q 203 -119 182 -143 q 217 -62 225 -94 l 217 -62 q 192 -29 211 -39 q 144 -26 172 -19 l 150 -7 l 150 -7 q 221 30 190 -1 q 253 118 251 61 l 253 201 l 253 201 q 233 293 253 256 q 187 362 213 331 q 141 427 161 393 q 121 508 121 461 l 121 613 l 156 613 l 156 418 l 253 418 l 253 568 l 253 568 q 217 662 253 631 q 136 693 181 693 l 136 693 q 56 662 93 693 q 19 568 19 631 l 19 485 l 19 485 q 40 396 19 435 q 85 324 60 357 q 131 258 111 292 q 151 183 151 225 l 151 83 "},"−":{"ha":365,"x_min":43,"x_max":322,"o":"m 322 414 l 322 488 l 43 488 l 43 414 l 322 414 "},"ﬂ":{"ha":335,"x_min":-1,"x_max":306,"o":"m 139 611 l 178 611 l 178 688 l 139 688 l 139 739 l 178 739 l 178 851 l 156 851 l 156 851 q 68 829 99 851 q 38 729 38 807 l 38 688 l -1 688 l -1 611 l 38 611 l 38 -3 l 139 -3 l 139 611 m 306 0 l 306 851 l 206 851 l 206 0 l 306 0 "},"J":{"ha":301,"x_min":17,"x_max":268,"o":"m 124 408 l 17 408 l 17 122 l 17 122 q 49 31 17 69 q 143 -8 81 -8 l 143 -8 q 236 27 204 -8 q 268 122 268 63 l 268 851 l 161 851 l 161 121 l 161 121 q 159 88 161 103 q 144 72 157 72 l 144 72 q 124 121 124 72 l 124 408 "},"H":{"ha":336,"x_min":36,"x_max":300,"o":"m 142 0 l 142 428 l 193 428 l 193 0 l 300 0 l 300 851 l 193 851 l 193 514 l 142 514 l 142 851 l 36 851 l 36 0 l 142 0 "},"I":{"ha":175,"x_min":36,"x_max":139,"o":"m 139 0 l 139 851 l 36 851 l 36 0 l 139 0 "},"ẞ":{"ha":325,"x_min":36,"x_max":304,"o":"m 204 507 l 304 767 l 304 853 l 36 853 l 36 0 l 138 0 l 138 476 l 151 476 l 151 476 q 188 462 178 476 q 199 401 199 447 l 199 88 l 163 88 l 163 0 l 204 0 l 204 0 q 269 13 250 0 q 294 47 289 25 q 299 100 299 69 l 299 400 l 299 400 q 281 476 299 444 q 210 507 264 507 l 204 507 m 138 792 l 219 792 l 138 542 l 138 792 "},"⅔":{"ha":351,"x_min":0,"x_max":351,"o":"m 0 481 l 128 481 l 128 538 l 63 538 l 63 538 q 72 585 63 567 q 92 635 81 604 l 92 635 q 121 709 104 671 q 138 789 138 747 l 138 857 l 138 857 q 122 899 138 882 q 72 915 106 915 l 72 915 q 0 857 0 915 l 0 768 l 60 768 l 60 868 l 75 868 l 75 794 l 75 794 q 60 717 75 756 q 33 642 46 678 l 33 642 q 11 576 22 608 q 0 510 0 543 l 0 481 m 111 0 l 328 851 l 269 851 l 53 0 l 111 0 m 274 142 l 211 142 l 211 53 l 211 53 q 230 10 211 26 q 282 -6 249 -6 l 282 -6 q 351 53 351 -6 l 351 168 l 351 168 q 341 201 351 188 q 300 215 331 215 l 300 222 l 300 222 q 341 238 331 222 q 351 272 351 253 l 351 372 l 351 372 q 335 413 351 396 q 286 431 318 431 l 286 431 q 231 417 251 431 q 211 372 211 404 l 211 285 l 274 285 l 274 385 l 289 385 l 289 268 l 289 268 q 285 251 289 256 q 267 246 281 246 l 267 192 l 267 192 q 285 188 281 192 q 289 169 289 183 l 289 57 l 289 57 q 282 38 289 38 l 282 38 q 274 57 274 38 l 274 142 "},"ª":{"ha":238,"x_min":18,"x_max":211,"o":"m 211 772 l 211 772 q 186 837 211 814 q 121 860 161 860 l 121 860 q 56 837 81 860 q 32 772 32 814 l 32 725 l 108 725 l 108 785 l 108 785 q 119 814 108 814 l 119 814 q 131 785 131 814 l 131 657 l 126 657 l 126 657 q 115 683 125 669 q 78 697 106 697 l 78 697 q 29 669 40 697 q 18 610 18 640 l 18 454 l 18 454 q 30 395 18 424 q 82 367 42 367 l 82 367 q 115 381 106 367 q 126 407 125 394 l 132 407 l 132 369 l 211 369 l 211 772 m 131 456 l 131 456 q 128 438 131 450 q 114 425 125 425 l 114 425 q 101 440 104 425 q 97 469 97 456 l 97 594 l 97 594 q 101 624 97 610 q 114 639 104 639 l 114 639 q 126 631 122 639 q 131 611 129 622 l 131 456 "},"₿":{"ha":332,"x_min":42,"x_max":297,"o":"m 92 0 l 92 -65 l 139 -65 l 139 0 l 172 0 l 172 -65 l 219 -65 l 219 4 l 219 4 q 297 124 297 24 l 297 349 l 297 349 q 221 435 297 429 l 221 449 l 221 449 q 297 536 297 449 l 297 719 l 297 719 q 219 847 297 826 l 219 928 l 172 928 l 172 851 l 139 851 l 139 928 l 92 928 l 92 851 l 42 851 l 42 0 l 92 0 m 144 472 l 144 785 l 190 785 l 190 542 l 190 542 q 153 472 190 472 l 144 472 m 144 413 l 153 413 l 153 413 q 190 343 190 413 l 190 67 l 144 67 l 144 413 "},"☺":{"ha":621,"x_min":38,"x_max":583,"o":"m 453 0 l 453 0 q 544 34 506 0 q 583 158 583 68 l 583 689 l 583 689 q 544 815 583 781 q 453 849 506 849 l 168 849 l 168 849 q 76 815 115 849 q 38 689 38 781 l 38 158 l 38 158 q 76 34 38 68 q 168 0 115 0 l 453 0 m 135 768 l 486 768 l 486 81 l 135 81 l 135 768 m 243 543 l 243 676 l 163 676 l 163 543 l 243 543 m 458 543 l 458 676 l 378 676 l 378 543 l 458 543 m 411 378 l 411 378 q 449 388 433 378 q 464 422 464 397 l 464 488 l 414 488 l 414 429 l 210 429 l 210 488 l 160 488 l 160 422 l 160 422 q 176 388 160 397 q 214 378 192 378 l 411 378 "},"В":{"ha":321,"x_min":36,"x_max":292,"o":"m 175 0 l 175 0 q 292 124 292 0 l 292 349 l 292 349 q 215 435 292 429 l 215 449 l 215 449 q 292 536 292 449 l 292 719 l 292 719 q 175 851 292 851 l 36 851 l 36 0 l 175 0 m 139 472 l 139 785 l 185 785 l 185 542 l 185 542 q 147 472 185 472 l 139 472 m 139 413 l 147 413 l 147 413 q 185 343 185 413 l 185 67 l 139 67 l 139 413 "},"А":{"ha":308,"x_min":8,"x_max":300,"o":"m 108 0 l 125 231 l 190 231 l 210 0 l 300 0 l 215 851 l 93 851 l 8 0 l 108 0 m 151 611 l 157 611 l 183 308 l 131 308 l 151 611 "},"М":{"ha":465,"x_min":36,"x_max":429,"o":"m 126 0 l 126 500 l 131 500 l 200 0 l 267 0 l 335 500 l 339 500 l 339 0 l 429 0 l 429 851 l 311 851 l 235 256 l 231 256 l 154 851 l 36 851 l 36 0 l 126 0 "},"Н":{"ha":336,"x_min":36,"x_max":300,"o":"m 142 0 l 142 428 l 193 428 l 193 0 l 300 0 l 300 851 l 193 851 l 193 514 l 142 514 l 142 851 l 36 851 l 36 0 l 142 0 "},"О":{"ha":326,"x_min":32,"x_max":294,"o":"m 294 728 l 294 728 q 257 828 294 797 q 178 860 219 860 l 149 860 l 149 860 q 69 828 107 860 q 32 728 32 797 l 32 122 l 32 122 q 69 22 32 53 q 149 -8 107 -8 l 178 -8 l 178 -8 q 257 22 219 -8 q 294 122 294 53 l 294 728 m 136 772 l 190 772 l 190 79 l 136 79 l 136 772 "},"Е":{"ha":257,"x_min":36,"x_max":247,"o":"m 247 0 l 247 92 l 138 92 l 138 407 l 213 407 l 213 494 l 138 494 l 138 760 l 242 760 l 242 851 l 36 851 l 36 0 l 247 0 "},"И":{"ha":400,"x_min":36,"x_max":364,"o":"m 364 850 l 244 850 l 142 299 l 139 299 l 139 850 l 36 850 l 36 0 l 150 0 l 258 564 l 263 564 l 263 0 l 364 0 l 364 850 "},"С":{"ha":313,"x_min":32,"x_max":288,"o":"m 139 772 l 181 772 l 181 515 l 288 515 l 288 728 l 288 728 q 257 820 288 781 q 169 860 226 860 l 169 860 q 68 828 104 860 q 32 728 32 797 l 32 122 l 32 122 q 65 25 32 58 q 156 -8 99 -8 l 156 -8 q 254 23 221 -8 q 288 122 288 54 l 288 329 l 181 329 l 181 129 l 181 129 q 178 90 181 107 q 163 72 175 72 l 163 72 q 143 86 147 72 q 139 129 139 100 l 139 772 "},"Р":{"ha":308,"x_min":36,"x_max":292,"o":"m 139 0 l 139 382 l 182 382 l 182 382 q 260 408 229 382 q 292 493 292 433 l 292 721 l 292 721 q 257 818 292 785 q 175 851 222 851 l 36 851 l 36 0 l 139 0 m 139 461 l 139 771 l 185 771 l 185 503 l 185 503 q 178 470 185 479 q 161 461 172 461 l 139 461 "},"Т":{"ha":272,"x_min":6,"x_max":267,"o":"m 190 0 l 190 761 l 267 761 l 267 851 l 6 851 l 6 761 l 83 761 l 83 0 l 190 0 "},"Х":{"ha":361,"x_min":4,"x_max":354,"o":"m 24 0 l 125 0 l 186 299 l 247 0 l 349 0 l 276 347 l 276 347 q 258 406 269 385 q 210 426 246 426 l 210 436 l 210 436 q 247 451 233 436 q 269 488 261 467 q 281 528 276 510 l 354 851 l 251 851 l 185 554 l 107 851 l 4 851 l 92 528 l 92 528 q 104 488 97 510 q 125 451 111 467 q 163 436 139 436 l 163 426 l 163 426 q 116 406 128 426 q 96 346 104 385 l 24 0 "},"К":{"ha":353,"x_min":36,"x_max":347,"o":"m 136 0 l 136 358 l 142 358 l 240 0 l 347 0 l 235 394 l 235 394 q 207 442 225 428 q 144 456 189 457 l 144 471 l 144 471 q 210 499 190 468 q 242 568 229 529 l 333 851 l 224 851 l 142 557 l 136 557 l 136 851 l 36 851 l 36 0 l 136 0 "},"Ѕ":{"ha":303,"x_min":25,"x_max":281,"o":"m 131 324 l 25 324 l 25 114 l 25 114 q 54 27 25 63 q 156 -8 83 -8 l 156 -8 q 249 21 217 -8 q 281 114 281 50 l 281 260 l 281 260 q 265 341 281 307 q 228 403 250 375 q 185 458 207 431 q 147 520 163 486 q 132 601 132 554 l 132 776 l 171 776 l 171 525 l 274 525 l 274 735 l 274 735 q 243 821 274 783 q 147 858 213 858 l 147 858 q 58 826 92 858 q 25 735 25 794 l 25 590 l 25 590 q 40 507 25 542 q 78 444 56 472 q 122 390 100 417 q 158 328 143 363 q 174 247 174 294 l 174 107 l 174 107 q 170 81 174 93 q 153 68 167 68 l 153 68 q 135 81 139 68 q 131 107 131 93 l 131 324 "},"І":{"ha":175,"x_min":36,"x_max":139,"o":"m 139 0 l 139 851 l 36 851 l 36 0 l 139 0 "},"Ё":{"ha":257,"x_min":36,"x_max":247,"o":"m 247 0 l 247 92 l 138 92 l 138 407 l 213 407 l 213 494 l 138 494 l 138 760 l 242 760 l 242 851 l 36 851 l 36 0 l 247 0 m 125 929 l 125 1036 l 58 1036 l 58 929 l 125 929 m 224 929 l 224 1036 l 157 1036 l 157 929 l 224 929 "},"Я":{"ha":322,"x_min":31,"x_max":286,"o":"m 147 851 q 62 821 93 851 q 31 733 31 790 l 31 564 l 31 564 q 107 469 31 469 l 107 456 l 104 456 l 104 456 q 31 376 31 456 l 31 0 l 138 0 l 138 357 l 138 357 q 175 418 138 418 l 183 418 l 183 0 l 286 0 l 286 851 l 147 851 l 147 851 m 175 493 q 138 556 138 493 l 138 771 l 183 771 l 183 493 l 175 493 l 175 493 "},"Ж":{"ha":439,"x_min":4,"x_max":432,"o":"m 24 0 l 121 0 l 182 307 l 182 0 l 267 0 l 267 308 l 329 0 l 426 0 l 346 367 l 346 367 q 330 408 340 389 q 283 426 319 428 l 283 435 l 283 435 q 321 449 307 433 q 342 487 335 464 q 354 528 350 510 l 432 851 l 333 851 l 267 536 l 267 851 l 182 851 l 182 529 l 103 851 l 4 851 l 96 528 l 96 528 q 108 487 101 510 q 129 449 115 464 q 167 435 143 433 l 167 426 l 167 426 q 121 408 132 428 q 104 367 110 389 l 24 0 "},"Ќ":{"ha":353,"x_min":36,"x_max":347,"o":"m 136 0 l 136 358 l 142 358 l 240 0 l 347 0 l 235 394 l 235 394 q 207 442 225 428 q 144 456 189 457 l 144 471 l 144 471 q 210 499 190 468 q 242 568 229 529 l 333 851 l 224 851 l 142 557 l 136 557 l 136 851 l 36 851 l 36 0 l 136 0 m 290 1021 l 179 1021 l 149 901 l 211 901 l 290 1021 "},"П":{"ha":339,"x_min":36,"x_max":303,"o":"m 36 0 l 140 0 l 140 757 l 199 757 l 199 0 l 303 0 l 303 851 l 36 851 l 36 0 "},"Ј":{"ha":301,"x_min":17,"x_max":268,"o":"m 124 408 l 17 408 l 17 122 l 17 122 q 49 31 17 69 q 143 -8 81 -8 l 143 -8 q 236 27 204 -8 q 268 122 268 63 l 268 851 l 161 851 l 161 121 l 161 121 q 159 88 161 103 q 144 72 157 72 l 144 72 q 124 121 124 72 l 124 408 "},"Ї":{"ha":175,"x_min":3,"x_max":168,"o":"m 139 0 l 139 851 l 36 851 l 36 0 l 139 0 m 69 931 l 69 1038 l 3 1038 l 3 931 l 69 931 m 168 931 l 168 1038 l 101 1038 l 101 931 l 168 931 "},"Й":{"ha":400,"x_min":36,"x_max":364,"o":"m 364 850 l 244 850 l 142 299 l 139 299 l 139 850 l 36 850 l 36 0 l 150 0 l 258 564 l 263 564 l 263 0 l 364 0 l 364 850 m 114 994 l 114 994 q 138 933 114 960 q 201 906 161 906 l 201 906 q 267 931 243 906 q 292 994 292 957 l 292 1036 l 235 1036 l 235 1000 l 235 1000 q 201 963 235 963 l 201 963 q 178 973 188 963 q 169 1000 169 983 l 169 1036 l 114 1036 l 114 994 "},"Г":{"ha":239,"x_min":36,"x_max":233,"o":"m 36 0 l 140 0 l 140 757 l 233 757 l 233 851 l 36 851 l 36 0 "},"Ѓ":{"ha":239,"x_min":36,"x_max":233,"o":"m 36 0 l 140 0 l 140 771 l 233 771 l 233 851 l 36 851 l 36 0 m 219 1031 l 108 1031 l 78 911 l 140 911 l 219 1031 "},"Ґ":{"ha":276,"x_min":36,"x_max":271,"o":"m 36 0 l 140 0 l 140 757 l 271 757 l 271 942 l 189 942 l 189 851 l 36 851 l 36 0 "},"ѕ":{"ha":269,"x_min":17,"x_max":253,"o":"m 151 83 l 114 83 l 114 285 l 17 285 l 17 121 l 17 121 q 54 25 17 58 q 135 -8 92 -8 l 135 -8 q 215 24 179 -8 q 253 118 251 57 l 253 201 l 253 201 q 233 293 253 256 q 187 362 213 331 q 141 427 161 393 q 121 508 121 461 l 121 613 l 156 613 l 156 418 l 253 418 l 253 568 l 253 568 q 217 662 253 631 q 136 693 181 693 l 136 693 q 56 662 93 693 q 19 568 19 631 l 19 485 l 19 485 q 40 396 19 435 q 85 324 60 357 q 131 258 111 292 q 151 183 151 225 l 151 83 "},"і":{"ha":157,"x_min":26,"x_max":128,"o":"m 125 739 l 125 851 l 26 851 l 26 739 l 125 739 m 128 0 l 128 688 l 29 688 l 29 0 l 128 0 "},"ї":{"ha":151,"x_min":-6,"x_max":160,"o":"m 26 0 l 128 0 l 128 688 l 26 688 l 26 0 m 61 765 l 61 872 l -6 872 l -6 765 l 61 765 m 160 765 l 160 872 l 93 872 l 93 765 l 160 765 "},"ј":{"ha":157,"x_min":-18,"x_max":128,"o":"m 125 735 l 125 851 l 24 851 l 24 735 l 125 735 m -18 -221 l 10 -221 l 10 -221 q 97 -198 67 -221 q 128 -99 128 -175 l 128 688 l 29 688 l 29 -119 l -18 -119 l -18 -221 "},"о":{"ha":289,"x_min":24,"x_max":265,"o":"m 24 119 l 24 119 q 61 25 24 58 q 144 -8 99 -8 l 144 -8 q 228 25 190 -8 q 265 121 265 58 l 265 568 l 265 568 q 228 662 265 631 q 144 693 190 693 l 144 693 q 61 662 99 693 q 24 569 24 631 l 24 119 m 125 596 l 164 596 l 164 117 l 164 117 q 158 98 164 103 q 146 93 153 93 l 146 93 q 132 98 139 93 q 125 117 125 103 l 125 596 "},"р":{"ha":300,"x_min":29,"x_max":275,"o":"m 29 -219 l 128 -219 l 128 46 l 138 46 l 138 46 q 153 10 140 28 q 197 -7 165 -7 l 197 -7 q 247 12 231 -7 q 269 59 264 31 q 275 117 275 88 l 275 568 l 275 568 q 269 626 275 597 q 247 673 264 654 q 197 692 231 692 l 197 692 q 148 672 163 692 q 132 635 133 653 l 125 635 l 125 688 l 29 688 l 29 -219 m 129 592 l 129 592 q 133 619 129 608 q 147 629 136 629 l 147 629 q 167 594 167 629 l 167 90 l 167 90 q 164 66 167 76 q 150 56 161 56 l 150 56 q 133 66 138 56 q 129 93 129 76 l 129 592 "},"с":{"ha":275,"x_min":24,"x_max":257,"o":"m 125 575 l 125 575 q 129 605 125 597 q 143 613 133 613 l 143 613 q 156 605 153 613 q 160 575 160 597 l 160 418 l 257 418 l 257 568 l 257 568 q 238 638 257 610 q 193 679 219 665 q 140 693 167 693 l 140 693 q 88 679 115 693 q 42 638 61 665 q 24 569 24 611 l 24 106 l 24 106 q 42 40 24 65 q 88 3 61 14 q 140 -8 115 -8 l 140 -8 q 193 3 167 -8 q 238 40 219 15 q 257 107 257 65 l 257 285 l 160 285 l 160 108 l 160 108 q 143 76 160 76 l 143 76 q 125 108 125 76 l 125 575 "},"у":{"ha":282,"x_min":8,"x_max":279,"o":"m 96 -225 l 96 -225 q 155 -208 135 -225 q 184 -167 175 -190 q 194 -125 193 -143 l 279 688 l 188 688 l 136 114 l 132 114 l 99 688 l 8 688 l 44 107 l 44 107 q 69 24 49 47 q 108 0 90 0 l 125 0 l 111 -133 l 69 -133 l 69 -225 l 96 -225 "},"х":{"ha":290,"x_min":0,"x_max":289,"o":"m 96 351 l 0 0 l 94 0 l 142 183 l 193 0 l 289 0 l 192 349 l 286 688 l 192 688 l 146 514 l 97 688 l 1 688 l 96 351 "},"е":{"ha":281,"x_min":24,"x_max":260,"o":"m 158 115 l 158 115 q 153 95 158 100 q 142 90 147 90 l 142 90 q 131 95 136 90 q 125 115 125 100 l 125 349 l 260 349 l 260 568 l 260 568 q 222 662 260 631 q 140 693 185 693 l 140 693 q 60 662 97 693 q 24 569 24 631 l 24 119 l 24 119 q 60 27 24 58 q 140 -4 97 -4 l 140 -4 q 222 27 185 -4 q 260 121 260 58 l 260 285 l 158 285 l 158 115 m 126 421 l 126 596 l 158 596 l 158 421 l 126 421 "},"ё":{"ha":281,"x_min":24,"x_max":260,"o":"m 158 115 l 158 115 q 153 95 158 100 q 142 90 147 90 l 142 90 q 131 95 136 90 q 125 115 125 100 l 125 349 l 260 349 l 260 568 l 260 568 q 222 662 260 631 q 140 693 185 693 l 140 693 q 60 662 97 693 q 24 569 24 631 l 24 119 l 24 119 q 60 27 24 58 q 140 -4 97 -4 l 140 -4 q 222 27 185 -4 q 260 121 260 58 l 260 285 l 158 285 l 158 115 m 126 421 l 126 596 l 158 596 l 158 421 l 126 421 m 121 765 l 121 872 l 54 872 l 54 765 l 121 765 m 219 765 l 219 872 l 153 872 l 153 765 l 219 765 "},"ў":{"ha":282,"x_min":8,"x_max":279,"o":"m 96 -225 l 96 -225 q 155 -208 135 -225 q 184 -167 175 -190 q 194 -125 193 -143 l 279 688 l 188 688 l 136 114 l 132 114 l 99 688 l 8 688 l 44 107 l 44 107 q 69 24 49 47 q 108 0 90 0 l 125 0 l 111 -133 l 69 -133 l 69 -225 l 96 -225 m 14 831 l 14 831 q 38 769 14 796 q 101 742 61 742 l 101 742 q 167 767 143 742 q 192 831 192 793 l 192 872 l 135 872 l 135 836 l 135 836 q 101 799 135 799 l 101 799 q 78 809 88 799 q 69 836 69 819 l 69 872 l 14 872 l 14 831 "},"т":{"ha":261,"x_min":0,"x_max":261,"o":"m 182 -4 l 182 604 l 261 604 l 261 689 l 0 689 l 0 604 l 81 604 l 81 -4 l 182 -4 "},"и":{"ha":388,"x_min":29,"x_max":358,"o":"m 29 0 l 144 0 l 258 489 l 258 0 l 358 0 l 358 690 l 239 690 l 129 238 l 129 690 l 29 690 l 29 0 "},"й":{"ha":388,"x_min":29,"x_max":358,"o":"m 29 0 l 144 0 l 258 489 l 258 0 l 358 0 l 358 690 l 239 690 l 129 238 l 129 690 l 29 690 l 29 0 m 61 831 l 61 831 q 85 769 61 796 q 149 742 108 742 l 149 742 q 215 767 190 742 q 239 831 239 793 l 239 872 l 182 872 l 182 836 l 182 836 q 149 799 182 799 l 149 799 q 126 809 135 799 q 117 836 117 819 l 117 872 l 61 872 l 61 831 "},"н":{"ha":329,"x_min":29,"x_max":300,"o":"m 131 0 l 131 313 l 199 313 l 199 0 l 300 0 l 300 689 l 199 689 l 199 389 l 131 389 l 131 689 l 29 689 l 29 0 l 131 0 "},"ж":{"ha":438,"x_min":-3,"x_max":438,"o":"m 17 0 l 118 0 l 181 251 l 181 0 l 268 0 l 268 243 l 332 0 l 432 0 l 353 300 l 353 300 q 338 331 349 317 q 282 346 326 346 l 282 350 l 282 350 q 340 376 325 350 q 361 422 356 401 l 438 689 l 336 689 l 268 449 l 268 689 l 181 689 l 181 438 l 100 689 l -3 689 l 85 422 l 85 422 q 107 376 92 401 q 165 350 122 350 l 165 346 l 165 346 q 110 331 122 346 q 93 300 97 317 l 17 0 "},"а":{"ha":292,"x_min":17,"x_max":265,"o":"m 163 51 l 163 -1 l 265 -1 l 265 568 l 265 568 q 235 659 265 626 q 149 692 204 692 l 149 692 q 64 660 94 692 q 33 568 33 628 l 33 501 l 135 501 l 135 599 l 135 599 q 139 623 135 618 q 149 628 143 628 l 149 628 q 158 623 154 628 q 163 599 163 618 l 163 406 l 154 406 l 154 406 q 138 443 153 424 q 90 463 122 463 l 90 463 q 44 444 60 463 q 22 397 28 425 q 17 339 17 368 l 17 118 l 17 118 q 24 61 17 90 q 47 13 31 32 q 93 -6 64 -6 l 93 -6 q 139 14 125 -6 q 154 51 153 33 l 163 51 m 118 340 l 118 340 q 142 382 118 382 l 142 382 q 164 338 164 382 l 164 128 l 164 128 q 160 98 164 110 q 142 86 157 86 l 142 86 q 123 98 128 86 q 118 128 118 110 l 118 340 "},"я":{"ha":310,"x_min":24,"x_max":281,"o":"m 24 0 l 131 0 l 131 279 l 131 279 q 137 310 131 294 q 168 326 143 326 l 179 326 l 179 0 l 281 0 l 281 686 l 126 686 l 126 686 q 47 656 69 686 q 24 586 24 626 l 24 449 l 24 449 q 40 398 24 419 q 100 376 57 376 l 100 367 l 100 367 q 42 344 61 367 q 24 292 24 321 l 24 0 m 168 397 l 168 397 q 135 414 143 397 q 126 444 126 431 l 126 610 l 179 610 l 179 397 l 168 397 "},"Є":{"ha":313,"x_min":33,"x_max":289,"o":"m 140 414 l 226 414 l 226 490 l 140 490 l 140 772 l 182 772 l 182 515 l 289 515 l 289 728 l 289 728 q 258 820 289 781 q 171 860 228 860 l 171 860 q 69 828 106 860 q 33 728 33 797 l 33 122 l 33 122 q 67 25 33 58 q 157 -8 100 -8 l 157 -8 q 256 23 222 -8 q 289 122 289 54 l 289 329 l 182 329 l 182 129 l 182 129 q 179 90 182 107 q 164 72 176 72 l 164 72 q 144 86 149 72 q 140 129 140 100 l 140 414 "},"Б":{"ha":308,"x_min":36,"x_max":292,"o":"m 36 0 l 175 0 l 175 0 q 257 33 222 0 q 292 131 292 67 l 292 385 l 292 385 q 260 470 292 444 q 182 496 229 496 l 139 496 l 139 767 l 257 767 l 257 851 l 36 851 l 36 0 m 193 81 l 139 81 l 139 417 l 151 417 l 151 417 q 193 347 193 417 l 193 81 "},"Ъ":{"ha":375,"x_min":6,"x_max":358,"o":"m 89 0 l 242 0 l 242 0 q 324 33 289 0 q 358 131 358 67 l 358 385 l 358 385 q 327 470 358 444 q 249 496 296 496 l 192 496 l 192 851 l 6 851 l 6 767 l 89 767 l 89 0 m 257 81 l 192 81 l 192 417 l 215 417 l 215 417 q 257 347 257 417 l 257 81 "},"Ь":{"ha":308,"x_min":36,"x_max":292,"o":"m 36 0 l 175 0 l 175 0 q 257 33 222 0 q 292 131 292 67 l 292 385 l 292 385 q 260 470 292 444 q 182 496 229 496 l 136 496 l 136 851 l 36 851 l 36 0 m 194 81 l 136 81 l 136 417 l 157 417 l 157 417 q 194 347 194 417 l 194 81 "},"в":{"ha":307,"x_min":29,"x_max":285,"o":"m 168 0 l 168 0 q 285 94 285 0 l 285 288 l 285 288 q 208 353 285 349 l 208 363 l 208 363 q 285 429 285 363 l 285 590 l 285 590 q 168 688 285 688 l 29 688 l 29 0 l 168 0 m 136 397 l 136 611 l 181 611 l 181 435 l 181 435 q 170 403 181 408 q 140 397 160 397 l 136 397 m 136 319 l 140 319 l 140 319 q 170 314 160 319 q 181 283 181 308 l 181 78 l 136 78 l 136 319 "},"Ф":{"ha":411,"x_min":25,"x_max":386,"o":"m 386 639 l 386 639 q 272 757 386 757 l 257 757 l 257 851 l 158 851 l 158 757 l 139 757 l 139 757 q 25 654 25 757 l 25 194 l 25 194 q 139 92 25 92 l 158 92 l 158 -1 l 257 -1 l 257 92 l 286 92 l 286 92 q 386 179 386 92 l 386 639 m 126 683 l 158 683 l 158 165 l 126 165 l 126 683 m 257 164 l 257 682 l 285 682 l 285 164 l 257 164 "},"ф":{"ha":367,"x_min":17,"x_max":350,"o":"m 350 490 l 350 490 q 324 583 350 551 q 233 621 299 615 l 233 703 l 135 703 l 135 622 l 135 622 q 43 589 69 618 q 17 506 17 560 l 17 186 l 17 186 q 43 103 17 132 q 135 69 69 74 l 135 -15 l 233 -15 l 233 69 l 233 69 q 324 99 299 74 q 350 171 350 124 l 350 490 m 104 543 l 135 543 l 135 154 l 104 154 l 104 543 m 233 153 l 233 543 l 263 543 l 263 153 l 233 153 "},"м":{"ha":451,"x_min":29,"x_max":422,"o":"m 129 0 l 129 440 l 192 0 l 265 0 l 322 429 l 322 0 l 422 0 l 422 692 l 296 692 l 228 261 l 161 692 l 29 692 l 29 0 l 129 0 "},"Ю":{"ha":492,"x_min":36,"x_max":460,"o":"m 140 -8 l 140 419 l 204 419 l 204 122 l 204 122 q 242 22 204 53 q 321 -8 279 -8 l 343 -8 l 343 -8 q 422 22 385 -8 q 460 122 460 53 l 460 732 l 460 732 q 422 831 460 801 q 343 860 385 860 l 321 860 l 321 860 q 242 831 279 860 q 204 732 204 801 l 204 507 l 140 507 l 140 851 l 36 851 l 36 -8 l 140 -8 m 308 776 l 356 776 l 356 79 l 308 79 l 308 776 "},"ъ":{"ha":365,"x_min":0,"x_max":353,"o":"m 83 0 l 236 0 l 236 0 q 318 33 283 0 q 353 131 353 67 l 353 371 l 353 371 q 322 456 353 431 q 243 482 290 482 l 186 482 l 186 689 l 0 689 l 0 604 l 83 604 l 83 0 m 246 81 l 186 81 l 186 403 l 208 403 l 208 403 q 246 333 246 403 l 246 81 "},"ь":{"ha":311,"x_min":29,"x_max":299,"o":"m 182 0 l 182 0 q 264 33 229 0 q 299 131 299 67 l 299 371 l 299 371 q 267 456 299 431 q 189 482 236 482 l 132 482 l 132 688 l 29 688 l 29 0 l 182 0 m 132 403 l 154 403 l 154 403 q 192 333 192 403 l 192 81 l 132 81 l 132 403 "},"ю":{"ha":476,"x_min":29,"x_max":453,"o":"m 133 -8 l 133 315 l 197 315 l 197 122 l 197 122 q 235 22 197 53 q 314 -8 272 -8 l 336 -8 l 336 -8 q 415 22 378 -8 q 453 122 453 53 l 453 565 l 453 565 q 415 666 453 635 q 336 697 378 697 l 314 697 l 314 697 q 235 666 272 697 q 197 565 197 635 l 197 403 l 133 403 l 133 689 l 29 689 l 29 -8 l 133 -8 m 301 624 l 349 624 l 349 65 l 301 65 l 301 624 "},"Ы":{"ha":475,"x_min":36,"x_max":439,"o":"m 332 0 l 439 0 l 439 851 l 332 851 l 332 0 m 36 -14 l 175 -14 l 175 -14 q 257 19 222 -14 q 292 117 292 53 l 292 371 l 292 371 q 260 456 292 431 q 182 482 229 482 l 139 482 l 139 851 l 36 851 l 36 -14 m 190 67 l 139 67 l 139 403 l 151 403 l 151 403 q 190 333 190 403 l 190 67 "},"ы":{"ha":489,"x_min":29,"x_max":460,"o":"m 182 0 l 182 0 q 264 33 229 0 q 299 131 299 67 l 299 371 l 299 371 q 267 456 299 431 q 189 482 236 482 l 132 482 l 132 688 l 29 688 l 29 0 l 182 0 m 132 403 l 154 403 l 154 403 q 192 333 192 403 l 192 81 l 132 81 l 132 403 m 460 0 l 460 689 l 354 689 l 354 0 l 460 0 "},"к":{"ha":353,"x_min":29,"x_max":354,"o":"m 129 0 l 129 303 l 135 303 l 247 0 l 354 0 l 236 321 l 236 321 q 197 359 226 350 q 121 367 168 368 l 121 381 l 121 381 q 199 400 167 379 q 244 453 232 421 l 340 688 l 231 688 l 131 439 l 129 439 l 129 690 l 29 690 l 29 0 l 129 0 "},"г":{"ha":238,"x_min":29,"x_max":238,"o":"m 29 0 l 131 0 l 131 594 l 238 594 l 238 688 l 29 688 l 29 0 "},"п":{"ha":325,"x_min":29,"x_max":296,"o":"m 29 0 l 133 0 l 133 607 l 192 607 l 192 0 l 296 0 l 296 688 l 29 688 l 29 0 "},"ќ":{"ha":363,"x_min":29,"x_max":365,"o":"m 131 0 l 131 282 l 140 282 l 253 0 l 360 0 l 242 299 l 242 299 q 219 330 236 317 q 150 343 201 343 l 150 351 l 150 351 q 219 376 199 351 q 250 422 240 400 l 365 688 l 257 688 l 138 410 l 131 410 l 131 688 l 29 688 l 29 0 l 131 0 m 211 857 l 100 857 l 69 738 l 132 738 l 211 857 "},"Ч":{"ha":313,"x_min":21,"x_max":276,"o":"m 169 382 l 169 1 l 276 1 l 276 851 l 169 851 l 169 431 l 128 431 l 128 851 l 21 851 l 21 428 l 21 428 q 36 362 21 390 q 93 333 51 333 l 93 333 q 138 349 121 333 q 154 382 154 364 l 169 382 "},"ч":{"ha":297,"x_min":15,"x_max":268,"o":"m 117 688 l 15 688 l 15 349 l 15 349 q 31 281 15 310 q 88 253 46 253 l 88 253 q 126 264 106 253 q 151 301 146 275 l 165 301 l 165 1 l 268 1 l 268 688 l 165 688 l 165 351 l 117 351 l 117 688 "},"ґ":{"ha":264,"x_min":29,"x_max":264,"o":"m 29 0 l 133 0 l 133 600 l 264 600 l 264 778 l 182 778 l 182 688 l 29 688 l 29 0 "},"Њ":{"ha":486,"x_min":36,"x_max":468,"o":"m 36 0 l 140 0 l 140 433 l 213 433 l 213 0 l 351 0 l 351 0 q 433 33 399 0 q 468 131 468 67 l 468 404 l 468 404 q 437 490 468 464 q 358 515 406 515 l 315 515 l 315 851 l 213 851 l 213 515 l 140 515 l 140 851 l 36 851 l 36 0 m 372 81 l 315 81 l 315 436 l 319 436 l 319 436 q 372 367 372 436 l 372 81 "},"њ":{"ha":472,"x_min":29,"x_max":461,"o":"m 29 0 l 133 0 l 133 356 l 206 356 l 206 0 l 344 0 l 344 0 q 426 33 392 0 q 461 131 461 67 l 461 326 l 461 326 q 430 412 461 386 q 351 438 399 438 l 308 438 l 308 689 l 206 689 l 206 438 l 133 438 l 133 689 l 29 689 l 29 0 m 356 81 l 308 81 l 308 358 l 331 358 l 331 358 q 349 348 343 358 q 356 303 356 338 l 356 81 "},"ш":{"ha":476,"x_min":29,"x_max":447,"o":"m 29 0 l 447 0 l 447 688 l 346 688 l 346 81 l 293 81 l 293 688 l 192 688 l 192 81 l 133 81 l 133 688 l 29 688 l 29 0 "},"Ш":{"ha":488,"x_min":36,"x_max":451,"o":"m 36 0 l 451 0 l 451 851 l 347 851 l 347 88 l 297 88 l 297 851 l 193 851 l 193 88 l 143 88 l 143 851 l 36 851 l 36 0 "},"Щ":{"ha":564,"x_min":36,"x_max":558,"o":"m 451 88 l 451 851 l 347 851 l 347 88 l 297 88 l 297 851 l 193 851 l 193 88 l 143 88 l 143 851 l 36 851 l 36 0 l 475 0 l 475 -54 l 558 -54 l 558 88 l 451 88 "},"щ":{"ha":539,"x_min":29,"x_max":540,"o":"m 540 -47 l 540 81 l 447 81 l 447 688 l 346 688 l 346 81 l 293 81 l 293 688 l 192 688 l 192 81 l 133 81 l 133 688 l 29 688 l 29 0 l 460 0 l 460 -47 l 540 -47 "},"Л":{"ha":482,"x_min":7,"x_max":446,"o":"m 114 174 l 7 174 l 7 124 l 7 124 q 44 32 7 71 q 138 -7 81 -7 l 138 -7 q 243 28 211 -7 q 276 124 275 64 l 301 765 l 343 765 l 343 0 l 446 0 l 446 851 l 197 851 l 169 136 l 169 136 q 165 94 168 110 q 143 78 161 78 l 143 78 q 118 96 122 78 q 114 136 114 114 l 114 174 "},"Љ":{"ha":629,"x_min":7,"x_max":613,"o":"m 114 174 l 7 174 l 7 124 l 7 124 q 44 32 7 71 q 138 -7 81 -7 l 138 -7 q 243 28 211 -7 q 276 124 275 64 l 301 765 l 357 765 l 357 0 l 496 0 l 496 0 q 578 33 543 0 q 613 131 613 67 l 613 385 l 613 385 q 581 470 613 444 q 503 496 550 496 l 460 496 l 460 851 l 197 851 l 169 136 l 169 136 q 165 94 168 110 q 143 78 161 78 l 143 78 q 118 96 122 78 q 114 136 114 114 l 114 174 m 460 417 l 468 417 l 468 417 q 506 347 506 417 l 506 81 l 460 81 l 460 417 "},"љ":{"ha":621,"x_min":0,"x_max":607,"o":"m 94 174 l 0 174 l 0 124 l 0 124 q 33 32 0 71 q 122 -7 65 -7 l 122 -7 q 232 28 196 -7 q 271 124 268 64 l 294 618 l 351 618 l 351 0 l 490 0 l 490 0 q 572 33 538 0 q 607 131 607 67 l 607 385 l 607 385 q 576 470 607 444 q 497 496 544 496 l 453 496 l 453 689 l 192 689 l 164 136 l 164 136 q 158 100 163 121 q 125 79 153 79 l 125 79 q 100 99 106 79 q 94 136 94 118 l 94 174 m 454 417 l 463 417 l 463 417 q 500 347 500 417 l 500 81 l 454 81 l 454 417 "},"ѓ":{"ha":226,"x_min":19,"x_max":226,"o":"m 29 -1 l 133 -1 l 133 593 l 226 593 l 226 688 l 29 688 l 29 -1 m 161 857 l 50 857 l 19 738 l 82 738 l 161 857 "},"џ":{"ha":286,"x_min":19,"x_max":267,"o":"m 96 1 l 190 1 l 190 132 l 190 132 q 244 172 222 142 q 267 253 267 201 l 267 688 l 165 688 l 165 197 l 121 197 l 121 688 l 19 688 l 19 253 l 19 253 q 42 172 19 201 q 96 132 65 142 l 96 1 "},"Џ":{"ha":294,"x_min":24,"x_max":271,"o":"m 100 1 l 194 1 l 194 229 l 194 229 q 246 269 221 239 q 271 350 271 299 l 271 851 l 169 851 l 169 319 l 125 319 l 125 851 l 24 851 l 24 350 l 24 350 q 49 269 24 299 q 100 229 74 239 l 100 1 "},"У":{"ha":294,"x_min":13,"x_max":288,"o":"m 106 0 l 106 0 q 175 21 156 0 q 197 72 194 42 l 288 851 l 193 851 l 136 353 l 106 853 l 13 853 l 50 285 l 50 285 q 67 244 51 263 q 118 225 83 225 l 122 225 l 107 78 l 51 78 l 51 0 l 106 0 "},"Ц":{"ha":439,"x_min":36,"x_max":433,"o":"m 433 -54 l 433 88 l 329 88 l 329 851 l 222 851 l 222 88 l 144 88 l 144 851 l 36 851 l 36 0 l 350 0 l 350 -54 l 433 -54 "},"ц":{"ha":421,"x_min":29,"x_max":421,"o":"m 421 -68 l 421 88 l 331 88 l 331 688 l 224 688 l 224 88 l 132 88 l 132 688 l 29 688 l 29 0 l 351 0 l 351 -68 l 421 -68 "},"Э":{"ha":313,"x_min":24,"x_max":279,"o":"m 172 129 q 168 86 172 100 q 149 72 164 72 l 149 72 q 133 90 136 72 q 131 129 131 107 l 131 329 l 24 329 l 24 122 l 24 122 q 57 23 24 54 q 156 -8 90 -8 l 156 -8 q 246 25 213 -8 q 279 122 279 58 l 279 728 l 279 728 q 243 828 279 797 q 142 860 207 860 l 142 860 q 54 820 85 860 q 24 728 24 781 l 24 515 l 131 515 l 131 772 l 172 772 l 172 490 l 86 490 l 86 414 l 172 414 l 172 129 l 172 129 "},"л":{"ha":331,"x_min":-1,"x_max":301,"o":"m -1 -7 l -1 -7 q 106 26 65 -7 q 151 128 147 58 l 182 617 l 199 617 l 199 0 l 301 0 l 301 689 l 88 689 l 60 136 l 60 136 q 57 117 60 131 q 44 90 54 103 q 13 78 33 78 l 13 78 q -1 79 3 78 l -1 -7 "},"є":{"ha":275,"x_min":24,"x_max":257,"o":"m 125 319 l 188 319 l 188 379 l 125 379 l 125 575 l 125 575 q 129 605 125 597 q 143 613 133 613 l 143 613 q 156 605 153 613 q 160 575 160 597 l 160 418 l 257 418 l 257 568 l 257 568 q 238 638 257 610 q 193 679 219 665 q 140 693 167 693 l 140 693 q 88 679 115 693 q 42 638 61 665 q 24 569 24 611 l 24 106 l 24 106 q 42 40 24 65 q 88 3 61 14 q 140 -8 115 -8 l 140 -8 q 193 3 167 -8 q 238 40 219 15 q 257 107 257 65 l 257 285 l 160 285 l 160 108 l 160 108 q 143 76 160 76 l 143 76 q 125 108 125 76 l 125 319 "},"э":{"ha":275,"x_min":18,"x_max":251,"o":"m 150 383 l 88 383 l 88 319 l 150 319 l 150 108 l 150 108 q 132 76 150 76 l 132 76 q 115 108 115 76 l 115 285 l 18 285 l 18 107 l 18 107 q 37 40 18 65 q 83 3 56 15 q 135 -8 110 -8 l 135 -8 q 188 3 161 -8 q 233 40 214 14 q 251 106 251 65 l 251 569 l 251 569 q 233 638 251 611 q 188 679 214 665 q 135 693 161 693 l 135 693 q 83 679 110 693 q 37 638 56 665 q 18 568 18 610 l 18 418 l 115 418 l 115 575 l 115 575 q 119 605 115 597 q 132 613 122 613 l 132 613 q 147 605 143 613 q 150 575 150 597 l 150 383 "},"ђ":{"ha":292,"x_min":-17,"x_max":264,"o":"m 160 -146 l 160 -146 q 240 -110 217 -146 q 264 0 264 -75 l 264 568 l 264 568 q 259 626 264 597 q 240 673 254 654 q 194 692 225 692 l 194 692 q 147 672 158 692 q 135 635 136 653 l 126 635 l 126 764 l 179 764 l 179 814 l 126 814 l 126 907 l 29 907 l 29 814 l -17 814 l -17 764 l 29 764 l 29 0 l 129 0 l 129 567 l 129 567 q 133 590 129 578 q 147 601 136 601 l 147 601 q 161 590 158 601 q 164 569 164 579 l 164 -62 l 132 -62 l 132 -146 l 160 -146 "},"ћ":{"ha":290,"x_min":-1,"x_max":264,"o":"m 129 0 l 129 567 l 129 567 q 133 590 129 578 q 147 601 136 601 l 147 601 q 161 590 158 601 q 164 569 164 579 l 164 0 l 264 0 l 264 568 l 264 568 q 259 626 264 597 q 238 673 254 654 q 190 692 222 692 l 190 692 q 147 672 157 692 q 135 635 136 653 l 126 635 l 126 764 l 194 764 l 194 814 l 126 814 l 126 851 l 29 851 l 29 814 l -1 814 l -1 764 l 29 764 l 29 0 l 129 0 "},"Ћ":{"ha":354,"x_min":19,"x_max":332,"o":"m 97 772 l 97 0 l 197 0 l 197 567 l 197 567 q 201 590 197 578 q 215 601 204 601 l 215 601 q 229 590 226 601 q 232 569 232 579 l 232 0 l 332 0 l 332 568 l 332 568 q 327 626 332 597 q 306 673 322 654 q 258 692 290 692 l 258 692 q 215 672 225 692 q 203 635 204 653 l 194 635 l 194 772 l 264 772 l 264 851 l 19 851 l 19 772 l 97 772 "},"Ђ":{"ha":332,"x_min":6,"x_max":304,"o":"m 6 772 l 68 772 l 68 0 l 168 0 l 168 567 l 168 567 q 173 590 168 578 q 194 601 178 601 l 194 601 q 213 590 210 601 q 217 569 217 579 l 217 60 l 186 60 l 186 0 l 217 0 l 217 0 q 289 24 274 0 q 304 106 304 49 l 304 568 l 304 568 q 302 626 304 597 q 287 673 300 654 q 240 692 274 692 l 240 692 q 188 672 201 692 q 174 635 175 653 l 165 635 l 165 772 l 250 772 l 250 851 l 6 851 l 6 772 "},"З":{"ha":304,"x_min":22,"x_max":278,"o":"m 129 301 l 22 301 l 22 114 l 22 114 q 56 24 22 57 q 150 -10 89 -10 l 150 -10 q 244 24 211 -10 q 278 114 278 57 l 278 332 l 278 332 q 260 405 278 376 q 192 433 242 433 l 192 444 l 192 444 q 260 476 243 444 q 278 551 278 508 l 278 738 l 278 738 q 247 824 278 788 q 147 860 215 860 l 147 860 q 57 831 92 860 q 22 738 22 803 l 22 550 l 129 550 l 129 778 l 174 778 l 174 544 l 174 544 q 162 494 174 507 q 118 482 150 482 l 118 394 l 118 394 q 162 383 150 394 q 174 333 174 371 l 174 124 l 174 124 q 170 91 174 101 q 153 81 167 81 l 153 81 q 134 91 139 81 q 129 124 129 101 l 129 301 "},"з":{"ha":285,"x_min":10,"x_max":265,"o":"m 117 190 l 10 190 l 10 114 l 10 114 q 43 24 10 57 q 138 -10 76 -10 l 138 -10 q 232 24 199 -10 q 265 114 265 57 l 265 249 l 265 249 q 247 322 265 293 q 179 350 229 350 l 179 361 l 179 361 q 248 393 231 361 q 265 468 265 425 l 265 571 l 265 571 q 235 658 265 621 q 149 694 206 694 l 149 694 q 47 665 83 694 q 10 571 10 636 l 10 494 l 117 494 l 117 611 l 161 611 l 161 461 l 161 461 q 149 411 161 424 q 106 399 138 399 l 106 311 l 106 311 q 149 299 138 311 q 161 250 161 288 l 161 124 l 161 124 q 158 91 161 101 q 139 81 154 81 l 139 81 q 121 91 125 81 q 117 124 117 101 l 117 190 "},"Д":{"ha":442,"x_min":11,"x_max":431,"o":"m 113 1 l 113 144 l 329 144 l 329 1 l 431 1 l 431 231 l 372 231 l 372 851 l 140 851 l 113 378 l 113 378 q 109 345 113 364 q 96 313 106 326 q 65 299 86 299 l 65 231 l 11 231 l 11 1 l 113 1 m 143 231 l 143 231 q 198 279 181 244 q 218 364 215 314 l 242 769 l 269 769 l 269 231 l 143 231 "},"д":{"ha":400,"x_min":6,"x_max":394,"o":"m 107 0 l 107 115 l 293 115 l 293 0 l 394 0 l 394 201 l 335 201 l 335 688 l 125 688 l 110 353 l 110 353 q 105 320 110 339 q 88 288 100 301 q 56 274 76 274 l 56 201 l 6 201 l 6 0 l 107 0 m 122 201 l 122 201 q 208 339 204 221 l 221 611 l 232 611 l 232 201 l 122 201 "},"б":{"ha":297,"x_min":24,"x_max":279,"o":"m 279 447 l 279 447 q 264 509 279 483 q 207 535 249 535 l 207 535 q 171 524 189 535 q 146 489 153 514 l 125 489 l 125 535 l 125 535 q 147 615 125 597 q 199 632 168 632 l 228 632 l 213 726 l 199 726 l 199 726 q 92 703 131 726 q 39 642 54 681 q 24 554 24 603 l 24 108 l 24 108 q 63 20 24 49 q 149 -8 101 -8 l 149 -8 q 238 20 197 -8 q 279 108 279 49 l 279 447 m 175 121 l 175 121 q 170 85 175 99 q 149 72 165 72 l 149 72 q 129 85 133 72 q 125 121 125 99 l 125 426 l 125 426 q 150 468 125 468 l 150 468 q 170 458 165 468 q 175 426 175 447 l 175 121 "},"Ў":{"ha":294,"x_min":11,"x_max":286,"o":"m 110 0 l 110 0 q 179 21 160 0 q 201 72 199 42 l 286 851 l 192 851 l 139 353 l 104 853 l 11 853 l 54 285 l 54 285 q 72 244 57 263 q 122 225 88 225 l 126 225 l 111 78 l 56 78 l 56 0 l 110 0 m 49 971 l 49 971 q 72 909 49 936 q 136 882 96 882 l 136 882 q 202 908 178 882 q 226 971 226 933 l 226 1013 l 169 1013 l 169 976 l 169 976 q 136 939 169 939 l 136 939 q 113 949 122 939 q 104 976 104 960 l 104 1013 l 49 1013 l 49 971 "},"ĺ":{"ha":158,"x_min":29,"x_max":196,"o":"m 129 0 l 129 851 l 29 851 l 29 0 l 129 0 m 196 1021 l 85 1021 l 54 901 l 117 901 l 196 1021 "},"ſ":{"ha":161,"x_min":29,"x_max":267,"o":"m 29 1 l 132 1 l 132 901 l 132 901 q 135 933 132 919 q 147 946 138 946 l 147 946 q 161 933 158 946 q 164 901 164 919 l 164 879 l 267 879 l 267 913 l 267 913 q 237 982 267 949 q 150 1015 207 1015 l 150 1015 q 60 980 90 1015 q 29 885 29 944 l 29 1 "},"Ǳ":{"ha":604,"x_min":36,"x_max":596,"o":"m 292 722 l 292 722 q 254 821 292 792 q 175 850 217 850 l 36 850 l 36 0 l 175 0 l 175 0 q 254 28 217 0 q 292 126 292 57 l 292 722 m 142 67 l 142 783 l 185 783 l 185 111 l 185 111 q 175 76 185 85 q 154 67 165 67 l 142 67 m 596 0 l 596 88 l 439 88 l 583 767 l 583 851 l 357 851 l 357 764 l 475 764 l 332 85 l 332 0 l 596 0 "},"ǲ":{"ha":563,"x_min":36,"x_max":556,"o":"m 292 722 l 292 722 q 254 821 292 792 q 175 850 217 850 l 36 850 l 36 0 l 175 0 l 175 0 q 254 28 217 0 q 292 126 292 57 l 292 722 m 142 67 l 142 783 l 185 783 l 185 111 l 185 111 q 175 76 185 85 q 154 67 165 67 l 142 67 m 556 0 l 556 83 l 425 83 l 553 600 l 553 688 l 342 688 l 342 604 l 456 604 l 326 88 l 326 0 l 556 0 "},"ǳ":{"ha":540,"x_min":25,"x_max":533,"o":"m 106 -4 q 157 15 142 -4 q 174 53 172 35 l 182 53 l 182 0 l 271 0 l 271 851 l 174 851 l 174 638 l 165 638 l 165 638 q 149 675 164 656 q 100 694 133 694 l 100 694 q 53 676 69 694 q 31 628 36 657 q 25 571 25 600 l 25 119 l 25 119 q 31 63 25 92 q 55 15 38 33 q 106 -4 72 -4 l 106 -4 m 153 86 q 138 97 142 86 q 133 122 133 107 l 133 568 l 133 568 q 136 594 133 583 q 151 604 139 604 l 151 604 q 171 568 171 604 l 171 122 l 171 122 q 167 97 171 107 q 153 86 164 86 l 153 86 m 533 0 l 533 83 l 403 83 l 531 600 l 531 688 l 319 688 l 319 604 l 433 604 l 304 88 l 304 0 l 533 0 "},"Ǵ":{"ha":333,"x_min":32,"x_max":307,"o":"m 139 785 l 185 785 l 185 565 l 292 565 l 292 726 l 292 726 q 273 802 292 774 q 226 844 254 831 q 171 858 199 858 l 149 858 l 149 858 q 69 827 107 858 q 32 726 32 796 l 32 108 l 32 108 q 62 19 32 44 q 131 -7 92 -7 l 131 -7 q 173 6 157 -7 q 199 54 189 19 l 210 54 l 210 0 l 307 0 l 307 475 l 168 475 l 168 389 l 208 389 l 208 122 l 208 122 q 199 85 208 96 q 175 75 190 75 l 175 75 q 150 85 161 75 q 139 118 139 96 l 139 785 m 282 1028 l 171 1028 l 140 908 l 203 908 l 282 1028 "},"ǵ":{"ha":281,"x_min":22,"x_max":257,"o":"m 22 197 l 22 197 q 44 108 22 138 q 111 71 67 78 l 111 39 l 111 39 q 29 -46 29 28 l 29 -46 q 56 -111 29 -86 q 133 -136 82 -136 l 151 -136 l 151 -136 q 229 -111 204 -136 q 254 -47 254 -86 l 254 -47 q 233 12 254 -11 q 171 39 213 35 l 171 72 l 171 72 q 236 108 215 79 q 257 197 257 136 l 257 688 l 169 688 l 169 635 l 161 635 l 161 635 q 142 672 160 653 q 90 692 124 692 l 90 692 q 44 673 58 692 q 26 626 29 654 q 22 568 22 597 l 22 197 m 140 164 q 126 174 129 164 q 122 203 122 183 l 122 575 l 122 575 q 126 593 122 585 q 142 601 131 601 l 142 601 q 155 592 153 601 q 157 572 157 583 l 157 206 l 157 206 q 154 174 157 183 q 140 164 151 164 l 140 164 m 143 -68 q 124 -65 133 -68 q 114 -49 114 -61 l 114 -49 q 124 -32 114 -36 q 142 -28 133 -28 l 144 -28 l 144 -28 q 162 -32 153 -28 q 171 -49 171 -36 l 171 -49 q 162 -65 171 -61 q 143 -68 153 -68 l 143 -68 m 256 857 l 144 857 l 114 738 l 176 738 l 256 857 "},"ǰ":{"ha":157,"x_min":-36,"x_max":194,"o":"m -18 -219 l 10 -219 l 10 -219 q 97 -197 67 -219 q 128 -97 128 -174 l 128 688 l 29 688 l 29 -118 l -18 -118 l -18 -219 m 43 750 l 115 750 l 194 869 l 124 869 l 78 815 l 33 869 l -36 869 l 43 750 "},"Ǔ":{"ha":322,"x_min":33,"x_max":289,"o":"m 140 851 l 33 851 l 33 135 l 33 135 q 63 29 33 67 q 161 -8 92 -8 l 161 -8 q 260 29 231 -8 q 289 135 289 67 l 289 851 l 183 851 l 183 128 l 183 128 q 180 89 183 101 q 163 76 176 76 l 163 76 q 144 89 149 76 q 140 128 140 101 l 140 851 m 124 915 l 196 915 l 275 1035 l 204 1035 l 158 981 l 114 1035 l 44 1035 l 124 915 "},"ǔ":{"ha":299,"x_min":26,"x_max":269,"o":"m 169 688 l 169 121 l 169 121 q 166 98 169 110 q 149 86 163 86 l 149 86 q 131 97 135 86 q 126 118 126 108 l 126 688 l 26 688 l 26 119 l 26 119 q 32 63 26 92 q 55 15 38 33 q 106 -4 72 -4 l 106 -4 q 152 15 142 -4 q 164 53 163 35 l 172 53 l 172 0 l 269 0 l 269 688 l 169 688 m 106 750 l 178 750 l 257 869 l 186 869 l 140 815 l 96 869 l 26 869 l 106 750 "},"ǅ":{"ha":563,"x_min":36,"x_max":557,"o":"m 292 722 l 292 722 q 254 821 292 792 q 175 850 217 850 l 36 850 l 36 0 l 175 0 l 175 0 q 254 28 217 0 q 292 126 292 57 l 292 722 m 142 67 l 142 783 l 185 783 l 185 111 l 185 111 q 175 76 185 85 q 154 67 165 67 l 142 67 m 556 0 l 556 83 l 425 83 l 553 600 l 553 688 l 342 688 l 342 604 l 456 604 l 326 88 l 326 0 l 556 0 m 406 750 l 478 750 l 557 869 l 486 869 l 440 815 l 396 869 l 326 869 l 406 750 "},"Ǉ":{"ha":554,"x_min":36,"x_max":521,"o":"m 247 0 l 247 94 l 140 94 l 140 851 l 36 851 l 36 0 l 247 0 m 376 408 l 269 408 l 269 122 l 269 122 q 301 31 269 69 q 396 -8 333 -8 l 396 -8 q 489 27 457 -8 q 521 122 521 63 l 521 851 l 414 851 l 414 121 l 414 121 q 412 88 414 103 q 397 72 410 72 l 397 72 q 376 121 376 72 l 376 408 "},"ǈ":{"ha":410,"x_min":36,"x_max":381,"o":"m 247 0 l 247 94 l 140 94 l 140 851 l 36 851 l 36 0 l 247 0 m 378 735 l 378 851 l 276 851 l 276 735 l 378 735 m 235 -221 l 263 -221 l 263 -221 q 350 -198 319 -221 q 381 -99 381 -175 l 381 688 l 282 688 l 282 -119 l 235 -119 l 235 -221 "},"ǉ":{"ha":315,"x_min":29,"x_max":286,"o":"m 129 0 l 129 851 l 29 851 l 29 0 l 129 0 m 283 735 l 283 851 l 182 851 l 182 735 l 283 735 m 140 -221 l 168 -221 l 168 -221 q 256 -198 225 -221 q 286 -99 286 -175 l 286 688 l 188 688 l 188 -119 l 140 -119 l 140 -221 "},"Ǌ":{"ha":701,"x_min":36,"x_max":668,"o":"m 138 0 l 138 564 l 142 564 l 250 0 l 364 0 l 364 850 l 261 850 l 261 299 l 258 299 l 156 850 l 36 850 l 36 0 l 138 0 m 524 408 l 417 408 l 417 122 l 417 122 q 449 31 417 69 q 543 -8 481 -8 l 543 -8 q 636 27 604 -8 q 668 122 668 63 l 668 851 l 561 851 l 561 121 l 561 121 q 559 88 561 103 q 544 72 557 72 l 544 72 q 524 121 524 72 l 524 408 "},"ǋ":{"ha":557,"x_min":36,"x_max":528,"o":"m 138 0 l 138 564 l 142 564 l 250 0 l 364 0 l 364 850 l 261 850 l 261 299 l 258 299 l 156 850 l 36 850 l 36 0 l 138 0 m 525 735 l 525 851 l 424 851 l 424 735 l 525 735 m 382 -221 l 410 -221 l 410 -221 q 497 -198 467 -221 q 528 -99 528 -175 l 528 688 l 429 688 l 429 -119 l 382 -119 l 382 -221 "},"ǌ":{"ha":456,"x_min":29,"x_max":426,"o":"m 129 0 l 129 567 l 129 567 q 133 590 129 578 q 150 601 136 601 l 150 601 q 168 590 164 601 q 172 569 172 579 l 172 0 l 272 0 l 272 568 l 272 568 q 267 626 272 597 q 244 673 261 654 q 193 692 228 692 l 193 692 q 147 672 158 692 q 135 635 136 653 l 126 635 l 126 688 l 29 688 l 29 0 l 129 0 m 424 735 l 424 851 l 322 851 l 322 735 l 424 735 m 281 -221 l 308 -221 l 308 -221 q 396 -198 365 -221 q 426 -99 426 -175 l 426 688 l 328 688 l 328 -119 l 281 -119 l 281 -221 "},"ǩ":{"ha":328,"x_min":29,"x_max":374,"o":"m 129 0 l 129 406 l 150 406 l 221 0 l 328 0 l 260 389 l 260 389 q 236 431 256 411 q 181 449 217 450 l 181 463 l 181 463 q 234 485 217 460 q 267 556 251 511 l 313 689 l 203 689 l 149 513 l 129 513 l 129 851 l 29 851 l 29 0 l 129 0 m 222 788 l 294 788 l 374 907 l 303 907 l 257 853 l 213 907 l 143 907 l 222 788 "},"Ǧ":{"ha":333,"x_min":32,"x_max":307,"o":"m 139 785 l 185 785 l 185 565 l 292 565 l 292 726 l 292 726 q 273 802 292 774 q 226 844 254 831 q 171 858 199 858 l 149 858 l 149 858 q 69 827 107 858 q 32 726 32 796 l 32 108 l 32 108 q 62 19 32 44 q 131 -7 92 -7 l 131 -7 q 173 6 157 -7 q 199 54 189 19 l 210 54 l 210 0 l 307 0 l 307 475 l 168 475 l 168 389 l 208 389 l 208 122 l 208 122 q 199 85 208 96 q 175 75 190 75 l 175 75 q 150 85 161 75 q 139 118 139 96 l 139 785 m 132 921 l 204 921 l 283 1040 l 213 1040 l 167 986 l 122 1040 l 53 1040 l 132 921 "},"ǧ":{"ha":281,"x_min":22,"x_max":257,"o":"m 22 197 l 22 197 q 44 108 22 138 q 111 71 67 78 l 111 39 l 111 39 q 29 -46 29 28 l 29 -46 q 56 -111 29 -86 q 133 -136 82 -136 l 151 -136 l 151 -136 q 229 -111 204 -136 q 254 -47 254 -86 l 254 -47 q 233 12 254 -11 q 171 39 213 35 l 171 72 l 171 72 q 236 108 215 79 q 257 197 257 136 l 257 688 l 169 688 l 169 635 l 161 635 l 161 635 q 142 672 160 653 q 90 692 124 692 l 90 692 q 44 673 58 692 q 26 626 29 654 q 22 568 22 597 l 22 197 m 140 164 q 126 174 129 164 q 122 203 122 183 l 122 575 l 122 575 q 126 593 122 585 q 142 601 131 601 l 142 601 q 155 592 153 601 q 157 572 157 583 l 157 206 l 157 206 q 154 174 157 183 q 140 164 151 164 l 140 164 m 143 -68 q 124 -65 133 -68 q 114 -49 114 -61 l 114 -49 q 124 -32 114 -36 q 142 -28 133 -28 l 144 -28 l 144 -28 q 162 -32 153 -28 q 171 -49 171 -36 l 171 -49 q 162 -65 171 -61 q 143 -68 153 -68 l 143 -68 m 106 750 l 178 750 l 257 869 l 186 869 l 140 815 l 96 869 l 26 869 l 106 750 "},"Ǩ":{"ha":353,"x_min":36,"x_max":347,"o":"m 136 0 l 136 358 l 142 358 l 240 0 l 347 0 l 235 394 l 235 394 q 207 442 225 428 q 144 456 189 457 l 144 471 l 144 471 q 210 499 190 468 q 242 568 229 529 l 333 851 l 224 851 l 142 557 l 136 557 l 136 851 l 36 851 l 36 0 l 136 0 m 140 914 l 213 914 l 292 1033 l 221 1033 l 175 979 l 131 1033 l 61 1033 l 140 914 "},"Ǣ":{"ha":410,"x_min":8,"x_max":401,"o":"m 104 0 l 125 224 l 189 224 l 189 0 l 401 0 l 401 76 l 296 76 l 296 385 l 367 385 l 367 454 l 296 454 l 296 775 l 394 775 l 394 851 l 89 851 l 8 0 l 104 0 m 129 310 l 179 775 l 189 775 l 189 310 l 129 310 m 326 938 l 326 1006 l 151 1006 l 151 938 l 326 938 "},"ǣ":{"ha":432,"x_min":15,"x_max":413,"o":"m 15 118 l 15 118 q 24 61 15 90 q 53 13 32 32 q 108 -6 74 -6 l 108 -6 q 163 14 144 -6 q 182 51 181 33 l 193 51 l 193 51 q 237 10 210 24 q 293 -4 264 -4 l 293 -4 q 375 27 338 -4 q 413 121 413 58 l 413 285 l 311 285 l 311 115 l 311 115 q 306 95 311 100 q 294 90 300 90 l 294 90 q 283 95 289 90 q 278 115 278 100 l 278 349 l 413 349 l 413 568 l 413 568 q 375 662 413 631 q 293 693 338 693 l 293 693 q 215 664 249 693 l 215 664 q 142 692 185 692 l 142 692 q 65 660 94 692 q 36 568 36 628 l 36 501 l 133 501 l 133 594 l 176 594 l 176 406 l 168 406 l 168 406 q 151 443 167 424 q 99 463 135 463 l 99 463 q 46 444 64 463 q 22 397 28 425 q 15 339 15 368 l 15 118 m 122 338 l 122 338 q 128 369 122 356 q 149 382 133 382 l 149 382 q 172 368 167 382 q 176 335 176 354 l 176 122 l 176 122 q 172 89 176 103 q 147 75 167 75 l 147 75 q 128 88 133 75 q 122 119 122 101 l 122 338 m 279 421 l 279 596 l 311 596 l 311 421 l 279 421 m 300 774 l 300 842 l 125 842 l 125 774 l 300 774 "},"Ǫ":{"ha":326,"x_min":32,"x_max":294,"o":"m 294 728 l 294 728 q 257 828 294 797 q 178 860 219 860 l 149 860 l 149 860 q 69 828 107 860 q 32 728 32 797 l 32 122 l 32 122 q 59 33 32 64 q 121 -6 86 3 l 121 -6 q 90 -103 90 -56 l 90 -103 q 131 -183 90 -157 q 232 -190 171 -210 l 232 -110 l 232 -110 q 221 -115 232 -110 q 194 -121 210 -121 l 194 -121 q 170 -110 176 -121 q 164 -82 164 -100 l 164 -82 q 179 -8 164 -47 l 179 -8 q 257 22 219 -8 q 294 122 294 53 l 294 728 m 136 772 l 190 772 l 190 79 l 136 79 l 136 772 "},"Ǭ":{"ha":326,"x_min":32,"x_max":294,"o":"m 294 728 l 294 728 q 257 828 294 797 q 178 860 219 860 l 149 860 l 149 860 q 69 828 107 860 q 32 728 32 797 l 32 122 l 32 122 q 59 33 32 64 q 121 -6 86 3 l 121 -6 q 90 -103 90 -56 l 90 -103 q 131 -183 90 -157 q 232 -190 171 -210 l 232 -110 l 232 -110 q 221 -115 232 -110 q 194 -121 210 -121 l 194 -121 q 170 -110 176 -121 q 164 -82 164 -100 l 164 -82 q 179 -8 164 -47 l 179 -8 q 257 22 219 -8 q 294 122 294 53 l 294 728 m 136 772 l 190 772 l 190 79 l 136 79 l 136 772 m 254 946 l 254 1014 l 79 1014 l 79 946 l 254 946 "},"ǭ":{"ha":289,"x_min":24,"x_max":265,"o":"m 24 119 l 24 119 q 49 38 24 69 q 113 -4 75 7 l 113 -4 q 81 -103 81 -53 l 81 -103 q 121 -183 81 -157 q 222 -190 161 -210 l 222 -110 l 222 -110 q 211 -115 222 -110 q 185 -121 200 -121 l 185 -121 q 160 -110 167 -121 q 154 -82 154 -100 l 154 -82 q 169 -6 154 -44 l 169 -6 q 238 35 210 3 q 265 121 265 67 l 265 568 l 265 568 q 228 662 265 631 q 144 693 190 693 l 144 693 q 61 662 99 693 q 24 569 24 631 l 24 119 m 125 596 l 164 596 l 164 117 l 164 117 q 158 98 164 103 q 146 93 153 93 l 146 93 q 132 98 139 93 q 125 117 125 103 l 125 596 m 231 774 l 231 842 l 56 842 l 56 774 l 231 774 "},"ǹ":{"ha":299,"x_min":29,"x_max":272,"o":"m 129 0 l 129 567 l 129 567 q 133 590 129 578 q 150 601 136 601 l 150 601 q 168 590 164 601 q 172 569 172 579 l 172 0 l 272 0 l 272 568 l 272 568 q 267 626 272 597 q 244 673 261 654 q 193 692 228 692 l 193 692 q 147 672 158 692 q 135 635 136 653 l 126 635 l 126 688 l 29 688 l 29 0 l 129 0 m 171 738 l 140 857 l 29 857 l 108 738 l 171 738 "},"Ǹ":{"ha":400,"x_min":36,"x_max":364,"o":"m 138 0 l 138 564 l 142 564 l 250 0 l 364 0 l 364 850 l 261 850 l 261 299 l 258 299 l 156 850 l 36 850 l 36 0 l 138 0 m 225 901 l 194 1021 l 83 1021 l 163 901 l 225 901 "},"Ǻ":{"ha":308,"x_min":8,"x_max":300,"o":"m 108 0 l 125 231 l 190 231 l 210 0 l 300 0 l 215 851 l 93 851 l 8 0 l 108 0 m 69 975 q 94 917 69 942 q 151 893 119 893 l 151 893 q 212 918 188 893 q 236 975 236 943 l 236 975 q 226 1015 236 997 q 201 1043 217 1032 l 271 1147 l 160 1147 l 138 1058 l 138 1058 q 89 1030 108 1053 q 69 975 69 1007 l 69 975 m 121 976 q 153 1010 121 1010 l 153 1010 q 177 1001 168 1010 q 186 976 186 992 l 186 976 q 153 944 186 944 l 153 944 q 121 976 121 944 l 121 976 m 151 611 l 157 611 l 183 308 l 131 308 l 151 611 "},"ǻ":{"ha":300,"x_min":25,"x_max":271,"o":"m 106 -4 q 157 15 142 -4 q 174 53 172 35 l 182 53 l 182 0 l 271 0 l 271 688 l 182 688 l 182 638 l 174 638 l 174 638 q 157 675 172 656 q 106 694 142 694 l 106 694 q 55 676 72 694 q 31 628 38 657 q 25 571 25 600 l 25 119 l 25 119 q 31 63 25 92 q 55 15 38 33 q 106 -4 72 -4 l 106 -4 m 153 86 q 133 121 133 86 l 133 569 l 133 569 q 136 594 133 585 q 151 604 139 604 l 151 604 q 171 567 171 604 l 171 124 l 171 124 q 167 97 171 107 q 153 86 164 86 l 153 86 m 64 810 q 89 752 64 776 q 146 728 114 728 l 146 728 q 206 753 182 728 q 231 810 231 778 l 231 810 q 221 849 231 832 q 196 878 211 867 l 265 982 l 154 982 l 132 893 l 132 893 q 83 865 103 888 q 64 810 64 842 l 64 810 m 115 811 q 147 844 115 844 l 147 844 q 172 835 163 844 q 181 811 181 826 l 181 811 q 147 779 181 779 l 147 779 q 115 811 115 779 l 115 811 "},"Ǽ":{"ha":410,"x_min":8,"x_max":401,"o":"m 104 0 l 125 224 l 189 224 l 189 0 l 401 0 l 401 76 l 296 76 l 296 385 l 367 385 l 367 454 l 296 454 l 296 775 l 394 775 l 394 851 l 89 851 l 8 0 l 104 0 m 129 310 l 179 775 l 189 775 l 189 310 l 129 310 m 353 1021 l 242 1021 l 211 901 l 274 901 l 353 1021 "},"ǽ":{"ha":432,"x_min":15,"x_max":413,"o":"m 15 118 l 15 118 q 24 61 15 90 q 53 13 32 32 q 108 -6 74 -6 l 108 -6 q 163 14 144 -6 q 182 51 181 33 l 193 51 l 193 51 q 237 10 210 24 q 293 -4 264 -4 l 293 -4 q 375 27 338 -4 q 413 121 413 58 l 413 285 l 311 285 l 311 115 l 311 115 q 306 95 311 100 q 294 90 300 90 l 294 90 q 283 95 289 90 q 278 115 278 100 l 278 349 l 413 349 l 413 568 l 413 568 q 375 662 413 631 q 293 693 338 693 l 293 693 q 215 664 249 693 l 215 664 q 142 692 185 692 l 142 692 q 65 660 94 692 q 36 568 36 628 l 36 501 l 133 501 l 133 594 l 176 594 l 176 406 l 168 406 l 168 406 q 151 443 167 424 q 99 463 135 463 l 99 463 q 46 444 64 463 q 22 397 28 425 q 15 339 15 368 l 15 118 m 122 338 l 122 338 q 128 369 122 356 q 149 382 133 382 l 149 382 q 172 368 167 382 q 176 335 176 354 l 176 122 l 176 122 q 172 89 176 103 q 147 75 167 75 l 147 75 q 128 88 133 75 q 122 119 122 101 l 122 338 m 279 421 l 279 596 l 311 596 l 311 421 l 279 421 m 326 857 l 215 857 l 185 738 l 247 738 l 326 857 "},"Ǿ":{"ha":326,"x_min":29,"x_max":296,"o":"m 294 728 l 294 728 q 289 774 294 754 q 272 810 283 794 l 296 907 l 244 907 l 231 847 l 231 847 q 178 860 206 860 l 149 860 l 149 860 q 69 828 107 860 q 32 728 32 797 l 32 122 l 32 122 q 43 60 32 86 l 29 0 l 81 0 l 83 11 l 83 11 q 149 -8 111 -8 l 178 -8 l 178 -8 q 257 22 219 -8 q 294 122 294 53 l 294 728 m 136 235 l 190 463 l 190 79 l 136 79 l 136 235 m 281 1029 l 169 1029 l 139 910 l 201 910 l 281 1029 m 136 772 l 190 772 l 190 679 l 136 450 l 136 772 "},"ǿ":{"ha":289,"x_min":6,"x_max":272,"o":"m 24 119 l 24 119 q 29 78 24 96 l 6 0 l 57 0 l 64 22 l 64 22 q 144 -8 99 -8 l 144 -8 q 228 25 190 -8 q 265 121 265 58 l 265 568 l 265 568 q 253 629 265 604 l 272 693 l 221 693 l 214 672 l 214 672 q 144 693 185 693 l 144 693 q 61 662 99 693 q 24 569 24 631 l 24 119 m 125 219 l 164 344 l 164 117 l 164 117 q 158 98 164 103 q 146 93 153 93 l 146 93 q 132 98 139 93 q 125 117 125 103 l 125 219 m 257 857 l 146 857 l 115 738 l 178 738 l 257 857 m 125 596 l 164 596 l 164 510 l 125 385 l 125 596 "},"ș":{"ha":269,"x_min":17,"x_max":253,"o":"m 151 83 l 114 83 l 114 285 l 17 285 l 17 121 l 17 121 q 54 25 17 58 q 135 -8 92 -8 l 135 -8 q 215 24 179 -8 q 253 118 251 57 l 253 201 l 253 201 q 233 293 253 256 q 187 362 213 331 q 141 427 161 393 q 121 508 121 461 l 121 613 l 156 613 l 156 418 l 253 418 l 253 568 l 253 568 q 217 662 253 631 q 136 693 181 693 l 136 693 q 56 662 93 693 q 19 568 19 631 l 19 485 l 19 485 q 40 396 19 435 q 85 324 60 357 q 131 258 111 292 q 151 183 151 225 l 151 83 "},"ț":{"ha":186,"x_min":-1,"x_max":183,"o":"m 38 119 l 38 119 q 68 20 38 43 q 156 -3 99 -3 l 183 -3 l 183 72 l 139 72 l 139 611 l 183 611 l 183 688 l 138 688 l 138 851 l 38 851 l 38 688 l -1 688 l -1 611 l 38 611 l 38 119 "},"̦":{"ha":0,"x_min":21,"x_max":101,"o":"m 69 -292 l 101 -210 l 101 -76 l 21 -76 l 21 -210 l 57 -210 l 36 -292 l 69 -292 "},"Ȧ":{"ha":308,"x_min":8,"x_max":300,"o":"m 108 0 l 125 231 l 190 231 l 210 0 l 300 0 l 215 851 l 93 851 l 8 0 l 108 0 m 190 904 l 190 1010 l 115 1010 l 115 904 l 190 904 m 151 611 l 157 611 l 183 308 l 131 308 l 151 611 "},"ȧ":{"ha":300,"x_min":25,"x_max":271,"o":"m 106 -4 q 157 15 142 -4 q 174 53 172 35 l 182 53 l 182 0 l 271 0 l 271 688 l 182 688 l 182 638 l 174 638 l 174 638 q 157 675 172 656 q 106 694 142 694 l 106 694 q 55 676 72 694 q 31 628 38 657 q 25 571 25 600 l 25 119 l 25 119 q 31 63 25 92 q 55 15 38 33 q 106 -4 72 -4 l 106 -4 m 153 86 q 133 121 133 86 l 133 569 l 133 569 q 136 594 133 585 q 151 604 139 604 l 151 604 q 171 567 171 604 l 171 124 l 171 124 q 167 97 171 107 q 153 86 164 86 l 153 86 m 185 739 l 185 844 l 110 844 l 110 739 l 185 739 "},"Ȯ":{"ha":326,"x_min":32,"x_max":294,"o":"m 294 728 l 294 728 q 257 828 294 797 q 178 860 219 860 l 149 860 l 149 860 q 69 828 107 860 q 32 728 32 797 l 32 122 l 32 122 q 69 22 32 53 q 149 -8 107 -8 l 178 -8 l 178 -8 q 257 22 219 -8 q 294 122 294 53 l 294 728 m 136 772 l 190 772 l 190 79 l 136 79 l 136 772 m 204 911 l 204 1017 l 129 1017 l 129 911 l 204 911 "},"ȯ":{"ha":289,"x_min":24,"x_max":265,"o":"m 24 119 l 24 119 q 61 25 24 58 q 144 -8 99 -8 l 144 -8 q 228 25 190 -8 q 265 121 265 58 l 265 568 l 265 568 q 228 662 265 631 q 144 693 190 693 l 144 693 q 61 662 99 693 q 24 569 24 631 l 24 119 m 125 596 l 164 596 l 164 117 l 164 117 q 158 98 164 103 q 146 93 153 93 l 146 93 q 132 98 139 93 q 125 117 125 103 l 125 596 m 181 739 l 181 844 l 106 844 l 106 739 l 181 739 "},"Ȳ":{"ha":315,"x_min":6,"x_max":310,"o":"m 201 0 l 201 317 l 310 851 l 207 851 l 156 522 l 151 522 l 108 851 l 6 851 l 103 317 l 103 0 l 201 0 m 242 938 l 242 1006 l 67 1006 l 67 938 l 242 938 "},"ȳ":{"ha":282,"x_min":8,"x_max":279,"o":"m 96 -225 l 96 -225 q 155 -208 135 -225 q 184 -167 175 -190 q 194 -125 193 -143 l 279 688 l 188 688 l 136 114 l 132 114 l 99 688 l 8 688 l 44 107 l 44 107 q 69 24 49 47 q 108 0 90 0 l 125 0 l 111 -133 l 69 -133 l 69 -225 l 96 -225 m 224 774 l 224 842 l 49 842 l 49 774 l 224 774 "},"Ȟ":{"ha":336,"x_min":36,"x_max":300,"o":"m 142 0 l 142 428 l 193 428 l 193 0 l 300 0 l 300 851 l 193 851 l 193 514 l 142 514 l 142 851 l 36 851 l 36 0 l 142 0 m 132 914 l 204 914 l 283 1033 l 213 1033 l 167 979 l 122 1033 l 53 1033 l 132 914 "},"ȟ":{"ha":290,"x_min":29,"x_max":371,"o":"m 129 0 l 129 567 l 129 567 q 133 590 129 578 q 147 601 136 601 l 147 601 q 161 590 158 601 q 164 569 164 579 l 164 0 l 264 0 l 264 568 l 264 568 q 259 626 264 597 q 238 673 254 654 q 190 692 222 692 l 190 692 q 147 672 157 692 q 135 635 136 653 l 126 635 l 126 851 l 29 851 l 29 0 l 129 0 m 219 789 l 292 789 l 371 908 l 300 908 l 254 854 l 210 908 l 140 908 l 219 789 "},"Ẁ":{"ha":474,"x_min":10,"x_max":464,"o":"m 236 543 l 240 543 l 306 0 l 396 0 l 464 850 l 367 850 l 329 368 l 325 368 l 268 850 l 203 850 l 154 368 l 150 368 l 113 850 l 10 850 l 78 0 l 175 0 l 236 543 m 264 901 l 233 1021 l 122 1021 l 201 901 l 264 901 "},"ẁ":{"ha":444,"x_min":4,"x_max":442,"o":"m 164 0 l 221 403 l 225 403 l 282 0 l 376 0 l 442 688 l 346 688 l 314 228 l 308 228 l 261 688 l 185 688 l 138 228 l 132 228 l 100 688 l 4 688 l 69 0 l 164 0 m 244 738 l 214 857 l 103 857 l 182 738 l 244 738 "},"Ẃ":{"ha":474,"x_min":10,"x_max":464,"o":"m 236 543 l 240 543 l 306 0 l 396 0 l 464 850 l 367 850 l 329 368 l 325 368 l 268 850 l 203 850 l 154 368 l 150 368 l 113 850 l 10 850 l 78 0 l 175 0 l 236 543 m 350 1021 l 239 1021 l 208 901 l 271 901 l 350 1021 "},"ẃ":{"ha":444,"x_min":4,"x_max":442,"o":"m 164 0 l 221 403 l 225 403 l 282 0 l 376 0 l 442 688 l 346 688 l 314 228 l 308 228 l 261 688 l 185 688 l 138 228 l 132 228 l 100 688 l 4 688 l 69 0 l 164 0 m 331 857 l 219 857 l 189 738 l 251 738 l 331 857 "},"Ẅ":{"ha":474,"x_min":10,"x_max":464,"o":"m 236 543 l 240 543 l 306 0 l 396 0 l 464 850 l 367 850 l 329 368 l 325 368 l 268 850 l 203 850 l 154 368 l 150 368 l 113 850 l 10 850 l 78 0 l 175 0 l 236 543 m 219 929 l 219 1036 l 153 1036 l 153 929 l 219 929 m 318 929 l 318 1036 l 251 1036 l 251 929 l 318 929 "},"ẅ":{"ha":444,"x_min":4,"x_max":442,"o":"m 164 0 l 221 403 l 225 403 l 282 0 l 376 0 l 442 688 l 346 688 l 314 228 l 308 228 l 261 688 l 185 688 l 138 228 l 132 228 l 100 688 l 4 688 l 69 0 l 164 0 m 200 765 l 200 872 l 133 872 l 133 765 l 200 765 m 299 765 l 299 872 l 232 872 l 232 765 l 299 765 "},"̣":{"ha":0,"x_min":29,"x_max":110,"o":"m 110 -193 l 110 -60 l 29 -60 l 29 -193 l 110 -193 "},"Ạ":{"ha":308,"x_min":8,"x_max":300,"o":"m 108 0 l 125 231 l 190 231 l 210 0 l 300 0 l 215 851 l 93 851 l 8 0 l 108 0 m 190 -193 l 190 -60 l 110 -60 l 110 -193 l 190 -193 m 151 611 l 157 611 l 183 308 l 131 308 l 151 611 "},"Ỹ":{"ha":315,"x_min":6,"x_max":310,"o":"m 201 0 l 201 317 l 310 851 l 207 851 l 156 522 l 151 522 l 108 851 l 6 851 l 103 317 l 103 0 l 201 0 m 106 983 l 122 983 l 122 972 l 122 972 q 142 928 122 943 q 190 913 161 913 l 190 913 q 233 928 214 913 q 251 972 251 943 l 251 1038 l 196 1038 l 196 967 l 196 967 q 188 956 196 956 l 188 956 q 180 960 182 956 q 178 967 178 964 l 178 982 l 178 982 q 157 1027 178 1013 q 108 1042 136 1042 l 108 1042 q 66 1027 86 1042 q 46 982 46 1013 l 46 917 l 106 917 l 106 983 "},"ỹ":{"ha":282,"x_min":8,"x_max":279,"o":"m 96 -225 l 96 -225 q 155 -208 135 -225 q 184 -167 175 -190 q 194 -125 193 -143 l 279 688 l 188 688 l 136 114 l 132 114 l 99 688 l 8 688 l 44 107 l 44 107 q 69 24 49 47 q 108 0 90 0 l 125 0 l 111 -133 l 69 -133 l 69 -225 l 96 -225 m 88 819 l 104 819 l 104 808 l 104 808 q 124 764 104 779 q 172 749 143 749 l 172 749 q 215 764 196 749 q 233 808 233 779 l 233 874 l 178 874 l 178 803 l 178 803 q 169 792 178 792 l 169 792 q 162 796 164 792 q 160 803 160 800 l 160 818 l 160 818 q 139 863 160 849 q 90 878 118 878 l 90 878 q 48 863 68 878 q 28 818 28 849 l 28 753 l 88 753 l 88 819 "},"Ỳ":{"ha":315,"x_min":6,"x_max":310,"o":"m 201 0 l 201 317 l 310 851 l 207 851 l 156 522 l 151 522 l 108 851 l 6 851 l 103 317 l 103 0 l 201 0 m 182 901 l 151 1021 l 40 1021 l 119 901 l 182 901 "},"ỳ":{"ha":282,"x_min":8,"x_max":279,"o":"m 96 -225 l 96 -225 q 155 -208 135 -225 q 184 -167 175 -190 q 194 -125 193 -143 l 279 688 l 188 688 l 136 114 l 132 114 l 99 688 l 8 688 l 44 107 l 44 107 q 69 24 49 47 q 108 0 90 0 l 125 0 l 111 -133 l 69 -133 l 69 -225 l 96 -225 m 164 738 l 133 857 l 22 857 l 101 738 l 164 738 "},"ĳ":{"ha":314,"x_min":26,"x_max":285,"o":"m 125 739 l 125 851 l 26 851 l 26 739 l 125 739 m 128 0 l 128 688 l 29 688 l 29 0 l 128 0 m 282 735 l 282 851 l 181 851 l 181 735 l 282 735 m 139 -221 l 167 -221 l 167 -221 q 254 -198 224 -221 q 285 -99 285 -175 l 285 688 l 186 688 l 186 -119 l 139 -119 l 139 -221 "},"Ǆ":{"ha":604,"x_min":36,"x_max":596,"o":"m 292 722 l 292 722 q 254 821 292 792 q 175 850 217 850 l 36 850 l 36 0 l 175 0 l 175 0 q 254 28 217 0 q 292 126 292 57 l 292 722 m 142 67 l 142 783 l 185 783 l 185 111 l 185 111 q 175 76 185 85 q 154 67 165 67 l 142 67 m 596 0 l 596 88 l 439 88 l 583 767 l 583 851 l 357 851 l 357 764 l 475 764 l 332 85 l 332 0 l 596 0 m 428 914 l 500 914 l 579 1033 l 508 1033 l 463 979 l 418 1033 l 349 1033 l 428 914 "},"Ə":{"ha":314,"x_min":25,"x_max":281,"o":"m 174 129 q 169 86 174 100 q 150 72 165 72 l 150 72 q 135 90 138 72 q 132 129 132 107 l 132 293 l 174 293 l 174 129 l 174 129 m 32 329 l 25 329 l 25 122 l 25 122 q 58 23 25 54 q 157 -8 92 -8 l 157 -8 q 247 25 214 -8 q 281 122 281 58 l 281 728 l 281 728 q 244 828 281 797 q 143 860 208 860 l 143 860 q 56 820 86 860 q 25 728 25 781 l 25 515 l 132 515 l 132 772 l 174 772 l 174 357 l 32 357 l 32 329 "},"Ģ":{"ha":333,"x_min":32,"x_max":307,"o":"m 165 -276 l 211 -194 l 211 -61 l 117 -61 l 117 -194 l 153 -194 l 132 -276 l 165 -276 m 139 785 l 185 785 l 185 565 l 292 565 l 292 726 l 292 726 q 273 802 292 774 q 226 844 254 831 q 171 858 199 858 l 149 858 l 149 858 q 69 827 107 858 q 32 726 32 796 l 32 108 l 32 108 q 62 19 32 44 q 131 -7 92 -7 l 131 -7 q 173 6 157 -7 q 199 54 189 19 l 210 54 l 210 0 l 307 0 l 307 475 l 168 475 l 168 389 l 208 389 l 208 122 l 208 122 q 199 85 208 96 q 175 75 190 75 l 175 75 q 150 85 161 75 q 139 118 139 96 l 139 785 "},"Ḡ":{"ha":333,"x_min":32,"x_max":307,"o":"m 139 785 l 185 785 l 185 565 l 292 565 l 292 726 l 292 726 q 273 802 292 774 q 226 844 254 831 q 171 858 199 858 l 149 858 l 149 858 q 69 827 107 858 q 32 726 32 796 l 32 108 l 32 108 q 62 19 32 44 q 131 -7 92 -7 l 131 -7 q 173 6 157 -7 q 199 54 189 19 l 210 54 l 210 0 l 307 0 l 307 475 l 168 475 l 168 389 l 208 389 l 208 122 l 208 122 q 199 85 208 96 q 175 75 190 75 l 175 75 q 150 85 161 75 q 139 118 139 96 l 139 785 m 256 944 l 256 1013 l 81 1013 l 81 944 l 256 944 "},"Ķ":{"ha":351,"x_min":36,"x_max":347,"o":"m 181 -276 l 226 -194 l 226 -61 l 132 -61 l 132 -194 l 168 -194 l 147 -276 l 181 -276 m 136 0 l 136 358 l 142 358 l 240 0 l 347 0 l 235 394 l 235 394 q 207 442 225 428 q 144 456 189 457 l 144 471 l 144 471 q 210 499 190 468 q 242 568 229 529 l 333 851 l 224 851 l 142 557 l 136 557 l 136 851 l 36 851 l 36 0 l 136 0 "},"Ļ":{"ha":253,"x_min":36,"x_max":247,"o":"m 247 0 l 247 94 l 140 94 l 140 851 l 36 851 l 36 0 l 247 0 m 146 -276 l 192 -194 l 192 -61 l 97 -61 l 97 -194 l 133 -194 l 113 -276 l 146 -276 "},"Ņ":{"ha":400,"x_min":36,"x_max":364,"o":"m 138 0 l 138 522 l 264 0 l 364 0 l 364 851 l 261 851 l 261 317 l 142 851 l 36 851 l 36 0 l 138 0 m 206 -276 l 251 -194 l 251 -61 l 157 -61 l 157 -194 l 193 -194 l 172 -276 l 206 -276 "},"Ŗ":{"ha":322,"x_min":36,"x_max":292,"o":"m 160 -276 l 206 -194 l 206 -61 l 111 -61 l 111 -194 l 147 -194 l 126 -276 l 160 -276 m 36 851 l 36 0 l 139 0 l 139 418 l 147 418 l 147 418 q 185 357 185 418 l 185 0 l 292 0 l 292 376 l 292 376 q 218 456 292 456 l 215 456 l 215 469 l 215 469 q 292 564 292 469 l 292 733 l 292 733 q 260 821 292 790 q 175 851 229 851 l 36 851 m 139 493 l 139 771 l 185 771 l 185 556 l 185 556 q 147 493 185 493 l 139 493 "},"Ș":{"ha":303,"x_min":29,"x_max":285,"o":"m 165 -276 l 211 -194 l 211 -61 l 117 -61 l 117 -194 l 153 -194 l 132 -276 l 165 -276 m 135 324 l 29 324 l 29 114 l 29 114 q 58 27 29 63 q 160 -8 88 -8 l 160 -8 q 253 21 221 -8 q 285 114 285 50 l 285 260 l 285 260 q 269 341 285 307 q 233 403 254 375 q 189 458 211 431 q 151 520 167 486 q 136 601 136 554 l 136 776 l 175 776 l 175 525 l 278 525 l 278 735 l 278 735 q 247 821 278 783 q 151 858 217 858 l 151 858 q 63 826 96 858 q 29 735 29 794 l 29 590 l 29 590 q 44 507 29 542 q 82 444 60 472 q 126 390 104 417 q 163 328 147 363 q 178 247 178 294 l 178 107 l 178 107 q 174 81 178 93 q 157 68 171 68 l 157 68 q 139 81 143 68 q 135 107 135 93 l 135 324 "},"Ț":{"ha":272,"x_min":6,"x_max":267,"o":"m 143 -276 l 189 -194 l 189 -61 l 94 -61 l 94 -194 l 131 -194 l 110 -276 l 143 -276 m 190 0 l 190 761 l 267 761 l 267 851 l 6 851 l 6 761 l 83 761 l 83 0 l 190 0 "},"ǆ":{"ha":540,"x_min":25,"x_max":535,"o":"m 106 -4 q 157 15 142 -4 q 174 53 172 35 l 182 53 l 182 0 l 271 0 l 271 851 l 174 851 l 174 638 l 165 638 l 165 638 q 149 675 164 656 q 100 694 133 694 l 100 694 q 53 676 69 694 q 31 628 36 657 q 25 571 25 600 l 25 119 l 25 119 q 31 63 25 92 q 55 15 38 33 q 106 -4 72 -4 l 106 -4 m 153 86 q 138 97 142 86 q 133 122 133 107 l 133 568 l 133 568 q 136 594 133 583 q 151 604 139 604 l 151 604 q 171 568 171 604 l 171 122 l 171 122 q 167 97 171 107 q 153 86 164 86 l 153 86 m 533 0 l 533 83 l 403 83 l 531 600 l 531 688 l 319 688 l 319 604 l 433 604 l 304 88 l 304 0 l 533 0 m 383 750 l 456 750 l 535 869 l 464 869 l 418 815 l 374 869 l 304 869 l 383 750 "},"ə":{"ha":281,"x_min":21,"x_max":257,"o":"m 122 572 l 122 572 q 128 592 122 588 q 139 597 133 597 l 139 597 q 151 592 146 597 q 156 572 156 588 l 156 339 l 21 339 l 21 119 l 21 119 q 59 26 21 57 q 140 -6 97 -6 l 140 -6 q 221 26 185 -6 q 257 118 257 57 l 257 568 l 257 568 q 221 660 257 629 q 140 692 185 692 l 140 692 q 59 660 97 692 q 21 567 21 629 l 21 403 l 122 403 l 122 572 m 154 267 l 154 92 l 122 92 l 122 267 l 154 267 "},"ḡ":{"ha":281,"x_min":22,"x_max":257,"o":"m 22 197 l 22 197 q 44 108 22 138 q 111 71 67 78 l 111 39 l 111 39 q 29 -46 29 28 l 29 -46 q 56 -111 29 -86 q 133 -136 82 -136 l 151 -136 l 151 -136 q 229 -111 204 -136 q 254 -47 254 -86 l 254 -47 q 233 12 254 -11 q 171 39 213 35 l 171 72 l 171 72 q 236 108 215 79 q 257 197 257 136 l 257 688 l 169 688 l 169 635 l 161 635 l 161 635 q 142 672 160 653 q 90 692 124 692 l 90 692 q 44 673 58 692 q 26 626 29 654 q 22 568 22 597 l 22 197 m 140 164 q 126 174 129 164 q 122 203 122 183 l 122 575 l 122 575 q 126 593 122 585 q 142 601 131 601 l 142 601 q 155 592 153 601 q 157 572 157 583 l 157 206 l 157 206 q 154 174 157 183 q 140 164 151 164 l 140 164 m 143 -68 q 124 -65 133 -68 q 114 -49 114 -61 l 114 -49 q 124 -32 114 -36 q 142 -28 133 -28 l 144 -28 l 144 -28 q 162 -32 153 -28 q 171 -49 171 -36 l 171 -49 q 162 -65 171 -61 q 143 -68 153 -68 l 143 -68 m 229 774 l 229 842 l 54 842 l 54 774 l 229 774 "},"ı":{"ha":151,"x_min":26,"x_max":128,"o":"m 26 0 l 128 0 l 128 688 l 26 688 l 26 0 "},"ȷ":{"ha":157,"x_min":-18,"x_max":128,"o":"m -18 -219 l 10 -219 l 10 -219 q 97 -197 67 -219 q 128 -97 128 -174 l 128 688 l 29 688 l 29 -118 l -18 -118 l -18 -219 "},"ǫ":{"ha":289,"x_min":24,"x_max":265,"o":"m 24 119 l 24 119 q 49 38 24 69 q 113 -4 75 7 l 113 -4 q 81 -103 81 -53 l 81 -103 q 121 -183 81 -157 q 222 -190 161 -210 l 222 -110 l 222 -110 q 211 -115 222 -110 q 185 -121 200 -121 l 185 -121 q 160 -110 167 -121 q 154 -82 154 -100 l 154 -82 q 169 -6 154 -44 l 169 -6 q 238 35 210 3 q 265 121 265 67 l 265 568 l 265 568 q 228 662 265 631 q 144 693 190 693 l 144 693 q 61 662 99 693 q 24 569 24 631 l 24 119 m 125 596 l 164 596 l 164 117 l 164 117 q 158 98 164 103 q 146 93 153 93 l 146 93 q 132 98 139 93 q 125 117 125 103 l 125 596 "},"̈":{"ha":0,"x_min":29,"x_max":194,"o":"m 96 765 l 96 872 l 29 872 l 29 765 l 96 765 m 194 765 l 194 872 l 128 872 l 128 765 l 194 765 "},"̇":{"ha":0,"x_min":29,"x_max":104,"o":"m 104 739 l 104 844 l 29 844 l 29 739 l 104 739 "},"̀":{"ha":0,"x_min":3,"x_max":144,"o":"m 144 738 l 114 857 l 3 857 l 82 738 l 144 738 "},"́":{"ha":0,"x_min":14,"x_max":156,"o":"m 156 857 l 44 857 l 14 738 l 76 738 l 156 857 "},"̋":{"ha":0,"x_min":14,"x_max":267,"o":"m 142 872 l 44 872 l 14 753 l 63 753 l 142 872 m 267 872 l 169 872 l 111 753 l 160 753 l 267 872 "},"̂":{"ha":0,"x_min":1,"x_max":232,"o":"m 71 750 l 115 804 l 161 750 l 232 750 l 153 869 l 81 869 l 1 750 l 71 750 "},"̌":{"ha":0,"x_min":3,"x_max":233,"o":"m 82 750 l 154 750 l 233 869 l 163 869 l 117 815 l 72 869 l 3 869 l 82 750 "},"̆":{"ha":0,"x_min":18,"x_max":196,"o":"m 18 831 l 18 831 q 42 769 18 796 q 106 742 65 742 l 106 742 q 172 767 147 742 q 196 831 196 793 l 196 872 l 139 872 l 139 836 l 139 836 q 106 799 139 799 l 106 799 q 83 809 92 799 q 74 836 74 819 l 74 872 l 18 872 l 18 831 "},"̊":{"ha":0,"x_min":14,"x_max":181,"o":"m 14 810 q 39 752 14 776 q 96 728 64 728 l 96 728 q 156 753 132 728 q 181 810 181 778 l 181 810 q 155 870 181 846 q 94 894 129 894 l 94 894 q 38 869 63 894 q 14 810 14 844 l 14 810 m 65 811 q 97 844 65 844 l 97 844 q 122 835 113 844 q 131 811 131 826 l 131 811 q 97 779 131 779 l 97 779 q 65 811 65 779 l 65 811 "},"̃":{"ha":0,"x_min":24,"x_max":229,"o":"m 83 819 l 100 819 l 100 808 l 100 808 q 119 764 100 779 q 168 749 139 749 l 168 749 q 210 764 192 749 q 229 808 229 779 l 229 874 l 174 874 l 174 803 l 174 803 q 165 792 174 792 l 165 792 q 158 796 160 792 q 156 803 156 800 l 156 818 l 156 818 q 135 863 156 849 q 86 878 114 878 l 86 878 q 44 863 64 878 q 24 818 24 849 l 24 753 l 83 753 l 83 819 "},"̄":{"ha":0,"x_min":29,"x_max":204,"o":"m 204 774 l 204 842 l 29 842 l 29 774 l 204 774 "},"̒":{"ha":0,"x_min":21,"x_max":115,"o":"m 67 886 l 21 804 l 21 671 l 115 671 l 115 804 l 79 804 l 100 886 l 67 886 "},"̧":{"ha":0,"x_min":17,"x_max":143,"o":"m 17 -90 l 17 -143 l 56 -143 l 56 -143 q 122 -119 100 -143 q 135 -62 143 -94 l 135 -62 q 110 -29 129 -39 q 63 -26 90 -19 l 72 11 l 42 11 l 28 -53 l 53 -57 l 53 -57 q 74 -51 63 -51 l 74 -51 q 96 -65 94 -51 l 96 -65 q 80 -87 99 -83 q 42 -90 61 -90 l 17 -90 "},"̨":{"ha":0,"x_min":14,"x_max":156,"o":"m 156 -124 l 156 -124 q 144 -129 156 -124 q 118 -135 133 -135 l 118 -135 q 94 -124 100 -135 q 88 -96 88 -114 l 88 -96 q 113 0 88 -46 l 58 0 l 58 0 q 26 -58 38 -26 q 14 -117 14 -89 l 14 -117 q 54 -197 14 -171 q 156 -204 94 -224 l 156 -124 "},"̸":{"ha":0,"x_min":-3,"x_max":264,"o":"m 49 0 l 264 907 l 213 907 l -3 0 l 49 0 "}}}
